<mxfile host="65bd71144e" modified="2021-02-26T06:52:37.937Z" agent="5.0 (Windows NT 10.0; Win64; x64) AppleWebKit/537.36 (KHTML, like Gecko) Code/1.52.1 Chrome/83.0.4103.122 Electron/9.3.5 Safari/537.36" etag="4a4sUKVwsXRDi7QV-i7L" version="14.2.4" type="embed">
    <diagram id="y0GHpVhyPhgE10jHAckV" name="ページ1">
        <mxGraphModel dx="1497" dy="642" grid="1" gridSize="10" guides="1" tooltips="1" connect="1" arrows="1" fold="1" page="1" pageScale="1" pageWidth="827" pageHeight="1169" math="0" shadow="0">
            <root>
                <mxCell id="0"/>
                <mxCell id="1" parent="0"/>
                <mxCell id="65" value="delivery環境" style="rounded=0;whiteSpace=wrap;html=1;verticalAlign=bottom;" parent="1" vertex="1">
                    <mxGeometry x="335" y="1650" width="435" height="240" as="geometry"/>
                </mxCell>
                <mxCell id="86" value="delivery vpc" style="points=[[0,0],[0.25,0],[0.5,0],[0.75,0],[1,0],[1,0.25],[1,0.5],[1,0.75],[1,1],[0.75,1],[0.5,1],[0.25,1],[0,1],[0,0.75],[0,0.5],[0,0.25]];outlineConnect=0;gradientColor=none;html=1;whiteSpace=wrap;fontSize=12;fontStyle=0;shape=mxgraph.aws4.group;grIcon=mxgraph.aws4.group_vpc;strokeColor=#248814;fillColor=none;verticalAlign=top;align=left;spacingLeft=30;fontColor=#AAB7B8;dashed=0;" parent="1" vertex="1">
                    <mxGeometry x="373" y="1669" width="187" height="190" as="geometry"/>
                </mxCell>
                <mxCell id="wLuAjBkB-3Mf1tBQLU4J-114" value="" style="rounded=0;whiteSpace=wrap;html=1;" parent="1" vertex="1">
                    <mxGeometry x="203" y="575" width="100" height="245" as="geometry"/>
                </mxCell>
                <mxCell id="wLuAjBkB-3Mf1tBQLU4J-50" value="" style="rounded=0;whiteSpace=wrap;html=1;" parent="1" vertex="1">
                    <mxGeometry x="60" y="130" width="100" height="280" as="geometry"/>
                </mxCell>
                <mxCell id="wLuAjBkB-3Mf1tBQLU4J-31" value="" style="rounded=0;whiteSpace=wrap;html=1;" parent="1" vertex="1">
                    <mxGeometry x="220" y="100" width="590" height="150" as="geometry"/>
                </mxCell>
                <mxCell id="wLuAjBkB-3Mf1tBQLU4J-44" style="edgeStyle=orthogonalEdgeStyle;rounded=0;orthogonalLoop=1;jettySize=auto;html=1;" parent="1" source="wLuAjBkB-3Mf1tBQLU4J-39" target="wLuAjBkB-3Mf1tBQLU4J-41" edge="1">
                    <mxGeometry relative="1" as="geometry"/>
                </mxCell>
                <mxCell id="wLuAjBkB-3Mf1tBQLU4J-39" value="" style="rounded=0;whiteSpace=wrap;html=1;" parent="1" vertex="1">
                    <mxGeometry x="1030" y="100" width="190" height="150" as="geometry"/>
                </mxCell>
                <mxCell id="wLuAjBkB-3Mf1tBQLU4J-29" value="plan&amp;nbsp;result" style="edgeStyle=orthogonalEdgeStyle;rounded=0;orthogonalLoop=1;jettySize=auto;html=1;entryX=0;entryY=0.5;entryDx=0;entryDy=0;" parent="1" source="wLuAjBkB-3Mf1tBQLU4J-17" target="wLuAjBkB-3Mf1tBQLU4J-19" edge="1">
                    <mxGeometry relative="1" as="geometry"/>
                </mxCell>
                <mxCell id="wLuAjBkB-3Mf1tBQLU4J-17" value="" style="rounded=0;whiteSpace=wrap;html=1;" parent="1" vertex="1">
                    <mxGeometry x="640" y="121" width="150" height="110" as="geometry"/>
                </mxCell>
                <mxCell id="wLuAjBkB-3Mf1tBQLU4J-26" value="OK" style="edgeStyle=orthogonalEdgeStyle;rounded=0;orthogonalLoop=1;jettySize=auto;html=1;entryX=0;entryY=0.5;entryDx=0;entryDy=0;" parent="1" source="wLuAjBkB-3Mf1tBQLU4J-16" target="wLuAjBkB-3Mf1tBQLU4J-17" edge="1">
                    <mxGeometry relative="1" as="geometry"/>
                </mxCell>
                <mxCell id="wLuAjBkB-3Mf1tBQLU4J-16" value="" style="rounded=0;whiteSpace=wrap;html=1;" parent="1" vertex="1">
                    <mxGeometry x="440" y="121" width="150" height="110" as="geometry"/>
                </mxCell>
                <mxCell id="wLuAjBkB-3Mf1tBQLU4J-25" value="OK" style="edgeStyle=orthogonalEdgeStyle;rounded=0;orthogonalLoop=1;jettySize=auto;html=1;entryX=0;entryY=0.5;entryDx=0;entryDy=0;" parent="1" source="wLuAjBkB-3Mf1tBQLU4J-14" target="wLuAjBkB-3Mf1tBQLU4J-16" edge="1">
                    <mxGeometry relative="1" as="geometry"/>
                </mxCell>
                <mxCell id="wLuAjBkB-3Mf1tBQLU4J-14" value="" style="rounded=0;whiteSpace=wrap;html=1;" parent="1" vertex="1">
                    <mxGeometry x="240" y="121" width="150" height="110" as="geometry"/>
                </mxCell>
                <mxCell id="wLuAjBkB-3Mf1tBQLU4J-24" value="pull request" style="edgeStyle=orthogonalEdgeStyle;rounded=0;orthogonalLoop=1;jettySize=auto;html=1;entryX=0;entryY=0.5;entryDx=0;entryDy=0;" parent="1" source="wLuAjBkB-3Mf1tBQLU4J-2" target="wLuAjBkB-3Mf1tBQLU4J-14" edge="1">
                    <mxGeometry relative="1" as="geometry"/>
                </mxCell>
                <mxCell id="wLuAjBkB-3Mf1tBQLU4J-45" style="edgeStyle=orthogonalEdgeStyle;rounded=0;orthogonalLoop=1;jettySize=auto;html=1;entryX=0.5;entryY=0;entryDx=0;entryDy=0;" parent="1" source="wLuAjBkB-3Mf1tBQLU4J-2" target="wLuAjBkB-3Mf1tBQLU4J-5" edge="1">
                    <mxGeometry relative="1" as="geometry"/>
                </mxCell>
                <mxCell id="wLuAjBkB-3Mf1tBQLU4J-46" value="merge" style="edgeLabel;html=1;align=center;verticalAlign=middle;resizable=0;points=[];" parent="wLuAjBkB-3Mf1tBQLU4J-45" vertex="1" connectable="0">
                    <mxGeometry x="-0.0836" relative="1" as="geometry">
                        <mxPoint as="offset"/>
                    </mxGeometry>
                </mxCell>
                <mxCell id="wLuAjBkB-3Mf1tBQLU4J-48" value="省略" style="edgeStyle=orthogonalEdgeStyle;rounded=0;orthogonalLoop=1;jettySize=auto;html=1;dashed=1;" parent="1" source="wLuAjBkB-3Mf1tBQLU4J-5" target="wLuAjBkB-3Mf1tBQLU4J-47" edge="1">
                    <mxGeometry relative="1" as="geometry"/>
                </mxCell>
                <mxCell id="wLuAjBkB-3Mf1tBQLU4J-5" value="prod" style="shape=cylinder;whiteSpace=wrap;html=1;boundedLbl=1;backgroundOutline=1;labelPosition=center;verticalLabelPosition=bottom;align=center;verticalAlign=top;" parent="1" vertex="1">
                    <mxGeometry x="90" y="320" width="40" height="50" as="geometry"/>
                </mxCell>
                <mxCell id="wLuAjBkB-3Mf1tBQLU4J-8" value="setup-terraform" style="shape=image;verticalLabelPosition=middle;verticalAlign=middle;imageAspect=0;image=https://dustindortch.files.wordpress.com/2020/08/terraform-logo.png;labelPosition=right;align=left;" parent="1" vertex="1">
                    <mxGeometry x="220" y="112" width="40" height="40" as="geometry"/>
                </mxCell>
                <mxCell id="wLuAjBkB-3Mf1tBQLU4J-9" value="terraform fmt" style="rounded=1;whiteSpace=wrap;html=1;" parent="1" vertex="1">
                    <mxGeometry x="260" y="150" width="110" height="30" as="geometry"/>
                </mxCell>
                <mxCell id="wLuAjBkB-3Mf1tBQLU4J-10" value="terraform validate" style="rounded=1;whiteSpace=wrap;html=1;" parent="1" vertex="1">
                    <mxGeometry x="260" y="190" width="110" height="30" as="geometry"/>
                </mxCell>
                <mxCell id="wLuAjBkB-3Mf1tBQLU4J-11" value="Policy Check" style="rounded=1;whiteSpace=wrap;html=1;" parent="1" vertex="1">
                    <mxGeometry x="460" y="170" width="110" height="30" as="geometry"/>
                </mxCell>
                <mxCell id="wLuAjBkB-3Mf1tBQLU4J-12" value="terraform plan" style="rounded=1;whiteSpace=wrap;html=1;" parent="1" vertex="1">
                    <mxGeometry x="660" y="170" width="110" height="30" as="geometry"/>
                </mxCell>
                <mxCell id="wLuAjBkB-3Mf1tBQLU4J-13" value="setup-terraform" style="shape=image;verticalLabelPosition=middle;verticalAlign=middle;imageAspect=0;image=https://dustindortch.files.wordpress.com/2020/08/terraform-logo.png;labelPosition=right;align=left;" parent="1" vertex="1">
                    <mxGeometry x="630" y="112" width="40" height="40" as="geometry"/>
                </mxCell>
                <mxCell id="wLuAjBkB-3Mf1tBQLU4J-15" value="Open Policy Agent" style="shape=image;verticalLabelPosition=middle;verticalAlign=middle;imageAspect=0;image=https://d33wubrfki0l68.cloudfront.net/5305a470ca0260247560b4f94daf68ed62d4a514/85ceb/img/logos/opa-no-text-color.png;labelPosition=right;align=left;" parent="1" vertex="1">
                    <mxGeometry x="430" y="112" width="40" height="40" as="geometry"/>
                </mxCell>
                <mxCell id="wLuAjBkB-3Mf1tBQLU4J-36" value="approve" style="edgeStyle=orthogonalEdgeStyle;rounded=0;orthogonalLoop=1;jettySize=auto;html=1;entryX=0;entryY=0.5;entryDx=0;entryDy=0;" parent="1" source="wLuAjBkB-3Mf1tBQLU4J-19" target="wLuAjBkB-3Mf1tBQLU4J-33" edge="1">
                    <mxGeometry relative="1" as="geometry"/>
                </mxCell>
                <mxCell id="wLuAjBkB-3Mf1tBQLU4J-19" value="pull request&amp;nbsp;" style="rounded=1;whiteSpace=wrap;html=1;" parent="1" vertex="1">
                    <mxGeometry x="870" y="160" width="110" height="30" as="geometry"/>
                </mxCell>
                <mxCell id="wLuAjBkB-3Mf1tBQLU4J-22" style="edgeStyle=orthogonalEdgeStyle;rounded=0;orthogonalLoop=1;jettySize=auto;html=1;" parent="1" source="wLuAjBkB-3Mf1tBQLU4J-21" target="wLuAjBkB-3Mf1tBQLU4J-19" edge="1">
                    <mxGeometry relative="1" as="geometry"/>
                </mxCell>
                <mxCell id="wLuAjBkB-3Mf1tBQLU4J-23" value="確認" style="edgeLabel;html=1;align=center;verticalAlign=middle;resizable=0;points=[];" parent="wLuAjBkB-3Mf1tBQLU4J-22" vertex="1" connectable="0">
                    <mxGeometry x="-0.2434" y="-1" relative="1" as="geometry">
                        <mxPoint as="offset"/>
                    </mxGeometry>
                </mxCell>
                <mxCell id="wLuAjBkB-3Mf1tBQLU4J-21" value="" style="outlineConnect=0;fontColor=#232F3E;gradientColor=none;fillColor=#232F3E;strokeColor=none;dashed=0;verticalLabelPosition=bottom;verticalAlign=top;align=center;html=1;fontSize=12;fontStyle=0;aspect=fixed;pointerEvents=1;shape=mxgraph.aws4.user;" parent="1" vertex="1">
                    <mxGeometry x="906" y="49" width="38" height="38" as="geometry"/>
                </mxCell>
                <mxCell id="wLuAjBkB-3Mf1tBQLU4J-7" value="" style="outlineConnect=0;fontColor=#232F3E;gradientColor=#F78E04;gradientDirection=north;fillColor=#D05C17;strokeColor=#ffffff;dashed=0;verticalLabelPosition=bottom;verticalAlign=top;align=center;html=1;fontSize=12;fontStyle=0;aspect=fixed;shape=mxgraph.aws4.resourceIcon;resIcon=mxgraph.aws4.ec2;" parent="1" vertex="1">
                    <mxGeometry x="200" y="60" width="38" height="38" as="geometry"/>
                </mxCell>
                <mxCell id="wLuAjBkB-3Mf1tBQLU4J-33" value="" style="rounded=0;whiteSpace=wrap;html=1;" parent="1" vertex="1">
                    <mxGeometry x="1050" y="120" width="150" height="110" as="geometry"/>
                </mxCell>
                <mxCell id="wLuAjBkB-3Mf1tBQLU4J-34" value="terraform apply" style="rounded=1;whiteSpace=wrap;html=1;" parent="1" vertex="1">
                    <mxGeometry x="1070" y="169" width="110" height="30" as="geometry"/>
                </mxCell>
                <mxCell id="wLuAjBkB-3Mf1tBQLU4J-35" value="setup-terraform" style="shape=image;verticalLabelPosition=middle;verticalAlign=middle;imageAspect=0;image=https://dustindortch.files.wordpress.com/2020/08/terraform-logo.png;labelPosition=right;align=left;" parent="1" vertex="1">
                    <mxGeometry x="1040" y="111" width="40" height="40" as="geometry"/>
                </mxCell>
                <mxCell id="wLuAjBkB-3Mf1tBQLU4J-38" value="" style="outlineConnect=0;fontColor=#232F3E;gradientColor=#F78E04;gradientDirection=north;fillColor=#D05C17;strokeColor=#ffffff;dashed=0;verticalLabelPosition=bottom;verticalAlign=top;align=center;html=1;fontSize=12;fontStyle=0;aspect=fixed;shape=mxgraph.aws4.resourceIcon;resIcon=mxgraph.aws4.ec2;" parent="1" vertex="1">
                    <mxGeometry x="1010" y="60" width="38" height="38" as="geometry"/>
                </mxCell>
                <mxCell id="wLuAjBkB-3Mf1tBQLU4J-41" value="AWS&lt;br&gt;開発環境" style="ellipse;shape=cloud;whiteSpace=wrap;html=1;" parent="1" vertex="1">
                    <mxGeometry x="1270" y="135" width="120" height="80" as="geometry"/>
                </mxCell>
                <mxCell id="wLuAjBkB-3Mf1tBQLU4J-2" value="&lt;span style=&quot;background-color: rgb(255 , 255 , 255)&quot;&gt;dev&lt;/span&gt;" style="shape=cylinder;whiteSpace=wrap;html=1;boundedLbl=1;backgroundOutline=1;labelPosition=center;verticalLabelPosition=bottom;align=center;verticalAlign=top;" parent="1" vertex="1">
                    <mxGeometry x="90" y="151" width="40" height="50" as="geometry"/>
                </mxCell>
                <mxCell id="wLuAjBkB-3Mf1tBQLU4J-47" value="本番環境&lt;br&gt;AWS" style="ellipse;shape=cloud;whiteSpace=wrap;html=1;" parent="1" vertex="1">
                    <mxGeometry x="255" y="305" width="120" height="80" as="geometry"/>
                </mxCell>
                <mxCell id="wLuAjBkB-3Mf1tBQLU4J-51" value="delivery環境" style="rounded=0;whiteSpace=wrap;html=1;verticalAlign=bottom;" parent="1" vertex="1">
                    <mxGeometry x="410" y="720" width="300" height="140" as="geometry"/>
                </mxCell>
                <mxCell id="wLuAjBkB-3Mf1tBQLU4J-57" value="dev環境" style="rounded=0;whiteSpace=wrap;html=1;verticalAlign=bottom;" parent="1" vertex="1">
                    <mxGeometry x="350" y="560" width="210" height="140" as="geometry"/>
                </mxCell>
                <mxCell id="wLuAjBkB-3Mf1tBQLU4J-60" value="delivery用&lt;br&gt;tfbackend" style="rounded=0;whiteSpace=wrap;html=1;verticalAlign=bottom;dashed=1;" parent="1" vertex="1">
                    <mxGeometry x="575" y="740" width="120" height="90" as="geometry"/>
                </mxCell>
                <mxCell id="wLuAjBkB-3Mf1tBQLU4J-56" value="" style="rounded=0;whiteSpace=wrap;html=1;verticalAlign=bottom;dashed=1;" parent="1" vertex="1">
                    <mxGeometry x="420" y="740" width="140" height="90" as="geometry"/>
                </mxCell>
                <mxCell id="wLuAjBkB-3Mf1tBQLU4J-116" style="edgeStyle=orthogonalEdgeStyle;rounded=0;orthogonalLoop=1;jettySize=auto;html=1;entryX=0.5;entryY=1;entryDx=0;entryDy=0;endArrow=classic;endFill=1;" parent="1" target="wLuAjBkB-3Mf1tBQLU4J-114" edge="1">
                    <mxGeometry relative="1" as="geometry">
                        <Array as="points">
                            <mxPoint x="490" y="850"/>
                            <mxPoint x="253" y="850"/>
                        </Array>
                        <mxPoint x="490" y="800" as="sourcePoint"/>
                    </mxGeometry>
                </mxCell>
                <mxCell id="wLuAjBkB-3Mf1tBQLU4J-54" value="" style="outlineConnect=0;fontColor=#232F3E;gradientColor=#F78E04;gradientDirection=north;fillColor=#D05C17;strokeColor=#ffffff;dashed=0;verticalLabelPosition=bottom;verticalAlign=top;align=center;html=1;fontSize=12;fontStyle=0;aspect=fixed;shape=mxgraph.aws4.resourceIcon;resIcon=mxgraph.aws4.ec2;" parent="1" vertex="1">
                    <mxGeometry x="420" y="740" width="38" height="38" as="geometry"/>
                </mxCell>
                <mxCell id="wLuAjBkB-3Mf1tBQLU4J-58" value="" style="outlineConnect=0;fontColor=#232F3E;gradientColor=#60A337;gradientDirection=north;fillColor=#277116;strokeColor=#ffffff;dashed=0;verticalLabelPosition=bottom;verticalAlign=top;align=center;html=1;fontSize=12;fontStyle=0;aspect=fixed;shape=mxgraph.aws4.resourceIcon;resIcon=mxgraph.aws4.s3;" parent="1" vertex="1">
                    <mxGeometry x="588" y="749" width="40" height="40" as="geometry"/>
                </mxCell>
                <mxCell id="wLuAjBkB-3Mf1tBQLU4J-59" value="" style="outlineConnect=0;fontColor=#232F3E;gradientColor=#4D72F3;gradientDirection=north;fillColor=#3334B9;strokeColor=#ffffff;dashed=0;verticalLabelPosition=bottom;verticalAlign=top;align=center;html=1;fontSize=12;fontStyle=0;aspect=fixed;shape=mxgraph.aws4.resourceIcon;resIcon=mxgraph.aws4.dynamodb;" parent="1" vertex="1">
                    <mxGeometry x="643" y="749" width="40" height="40" as="geometry"/>
                </mxCell>
                <mxCell id="wLuAjBkB-3Mf1tBQLU4J-61" value="prod環境" style="rounded=0;whiteSpace=wrap;html=1;verticalAlign=bottom;" parent="1" vertex="1">
                    <mxGeometry x="575" y="560" width="210" height="140" as="geometry"/>
                </mxCell>
                <mxCell id="wLuAjBkB-3Mf1tBQLU4J-62" value="dev用&lt;br&gt;tfbackend" style="rounded=0;whiteSpace=wrap;html=1;verticalAlign=bottom;dashed=1;" parent="1" vertex="1">
                    <mxGeometry x="395" y="580" width="120" height="90" as="geometry"/>
                </mxCell>
                <mxCell id="wLuAjBkB-3Mf1tBQLU4J-63" value="" style="outlineConnect=0;fontColor=#232F3E;gradientColor=#60A337;gradientDirection=north;fillColor=#277116;strokeColor=#ffffff;dashed=0;verticalLabelPosition=bottom;verticalAlign=top;align=center;html=1;fontSize=12;fontStyle=0;aspect=fixed;shape=mxgraph.aws4.resourceIcon;resIcon=mxgraph.aws4.s3;" parent="1" vertex="1">
                    <mxGeometry x="408" y="589" width="40" height="40" as="geometry"/>
                </mxCell>
                <mxCell id="wLuAjBkB-3Mf1tBQLU4J-64" value="" style="outlineConnect=0;fontColor=#232F3E;gradientColor=#4D72F3;gradientDirection=north;fillColor=#3334B9;strokeColor=#ffffff;dashed=0;verticalLabelPosition=bottom;verticalAlign=top;align=center;html=1;fontSize=12;fontStyle=0;aspect=fixed;shape=mxgraph.aws4.resourceIcon;resIcon=mxgraph.aws4.dynamodb;" parent="1" vertex="1">
                    <mxGeometry x="463" y="589" width="40" height="40" as="geometry"/>
                </mxCell>
                <mxCell id="wLuAjBkB-3Mf1tBQLU4J-68" value="" style="group" parent="1" vertex="1" connectable="0">
                    <mxGeometry x="620" y="580" width="120" height="90" as="geometry"/>
                </mxCell>
                <mxCell id="wLuAjBkB-3Mf1tBQLU4J-65" value="prod用&lt;br&gt;tfbackend" style="rounded=0;whiteSpace=wrap;html=1;verticalAlign=bottom;dashed=1;" parent="wLuAjBkB-3Mf1tBQLU4J-68" vertex="1">
                    <mxGeometry width="120" height="90" as="geometry"/>
                </mxCell>
                <mxCell id="wLuAjBkB-3Mf1tBQLU4J-66" value="" style="outlineConnect=0;fontColor=#232F3E;gradientColor=#60A337;gradientDirection=north;fillColor=#277116;strokeColor=#ffffff;dashed=0;verticalLabelPosition=bottom;verticalAlign=top;align=center;html=1;fontSize=12;fontStyle=0;aspect=fixed;shape=mxgraph.aws4.resourceIcon;resIcon=mxgraph.aws4.s3;" parent="wLuAjBkB-3Mf1tBQLU4J-68" vertex="1">
                    <mxGeometry x="13" y="9" width="40" height="40" as="geometry"/>
                </mxCell>
                <mxCell id="wLuAjBkB-3Mf1tBQLU4J-67" value="" style="outlineConnect=0;fontColor=#232F3E;gradientColor=#4D72F3;gradientDirection=north;fillColor=#3334B9;strokeColor=#ffffff;dashed=0;verticalLabelPosition=bottom;verticalAlign=top;align=center;html=1;fontSize=12;fontStyle=0;aspect=fixed;shape=mxgraph.aws4.resourceIcon;resIcon=mxgraph.aws4.dynamodb;" parent="wLuAjBkB-3Mf1tBQLU4J-68" vertex="1">
                    <mxGeometry x="68" y="9" width="40" height="40" as="geometry"/>
                </mxCell>
                <mxCell id="wLuAjBkB-3Mf1tBQLU4J-69" value="dev vpc" style="points=[[0,0],[0.25,0],[0.5,0],[0.75,0],[1,0],[1,0.25],[1,0.5],[1,0.75],[1,1],[0.75,1],[0.5,1],[0.25,1],[0,1],[0,0.75],[0,0.5],[0,0.25]];outlineConnect=0;gradientColor=none;html=1;whiteSpace=wrap;fontSize=12;fontStyle=0;shape=mxgraph.aws4.group;grIcon=mxgraph.aws4.group_vpc;strokeColor=#248814;fillColor=none;verticalAlign=top;align=left;spacingLeft=30;fontColor=#AAB7B8;dashed=0;" parent="1" vertex="1">
                    <mxGeometry x="39.00000000000003" y="1010" width="172" height="370" as="geometry"/>
                </mxCell>
                <mxCell id="wLuAjBkB-3Mf1tBQLU4J-70" value="prod vpc" style="points=[[0,0],[0.25,0],[0.5,0],[0.75,0],[1,0],[1,0.25],[1,0.5],[1,0.75],[1,1],[0.75,1],[0.5,1],[0.25,1],[0,1],[0,0.75],[0,0.5],[0,0.25]];outlineConnect=0;gradientColor=none;html=1;whiteSpace=wrap;fontSize=12;fontStyle=0;shape=mxgraph.aws4.group;grIcon=mxgraph.aws4.group_vpc;strokeColor=#248814;fillColor=none;verticalAlign=top;align=left;spacingLeft=30;fontColor=#AAB7B8;dashed=0;" parent="1" vertex="1">
                    <mxGeometry x="391" y="1010" width="310" height="370" as="geometry"/>
                </mxCell>
                <mxCell id="wLuAjBkB-3Mf1tBQLU4J-71" value="Public subnet" style="points=[[0,0],[0.25,0],[0.5,0],[0.75,0],[1,0],[1,0.25],[1,0.5],[1,0.75],[1,1],[0.75,1],[0.5,1],[0.25,1],[0,1],[0,0.75],[0,0.5],[0,0.25]];outlineConnect=0;gradientColor=none;html=1;whiteSpace=wrap;fontSize=12;fontStyle=0;shape=mxgraph.aws4.group;grIcon=mxgraph.aws4.group_security_group;grStroke=0;strokeColor=#248814;fillColor=#E9F3E6;verticalAlign=top;align=left;spacingLeft=30;fontColor=#248814;dashed=0;" parent="1" vertex="1">
                    <mxGeometry x="61.00000000000003" y="1040" width="130" height="100" as="geometry"/>
                </mxCell>
                <mxCell id="wLuAjBkB-3Mf1tBQLU4J-72" value="" style="outlineConnect=0;fontColor=#232F3E;gradientColor=none;fillColor=#5A30B5;strokeColor=none;dashed=0;verticalLabelPosition=bottom;verticalAlign=top;align=center;html=1;fontSize=12;fontStyle=0;aspect=fixed;pointerEvents=1;shape=mxgraph.aws4.internet_gateway;" parent="1" vertex="1">
                    <mxGeometry x="106.00000000000003" y="1000" width="38" height="38" as="geometry"/>
                </mxCell>
                <mxCell id="wLuAjBkB-3Mf1tBQLU4J-73" value="" style="outlineConnect=0;fontColor=#232F3E;gradientColor=none;fillColor=#5A30B5;strokeColor=none;dashed=0;verticalLabelPosition=bottom;verticalAlign=top;align=center;html=1;fontSize=12;fontStyle=0;aspect=fixed;pointerEvents=1;shape=mxgraph.aws4.nat_gateway;" parent="1" vertex="1">
                    <mxGeometry x="107.00000000000014" y="1080" width="38" height="38" as="geometry"/>
                </mxCell>
                <mxCell id="wLuAjBkB-3Mf1tBQLU4J-74" value="Private subnet" style="points=[[0,0],[0.25,0],[0.5,0],[0.75,0],[1,0],[1,0.25],[1,0.5],[1,0.75],[1,1],[0.75,1],[0.5,1],[0.25,1],[0,1],[0,0.75],[0,0.5],[0,0.25]];outlineConnect=0;gradientColor=none;html=1;whiteSpace=wrap;fontSize=12;fontStyle=0;shape=mxgraph.aws4.group;grIcon=mxgraph.aws4.group_security_group;grStroke=0;strokeColor=#147EBA;fillColor=#E6F2F8;verticalAlign=top;align=left;spacingLeft=30;fontColor=#147EBA;dashed=0;" parent="1" vertex="1">
                    <mxGeometry x="61.00000000000003" y="1159" width="130" height="201" as="geometry"/>
                </mxCell>
                <mxCell id="wLuAjBkB-3Mf1tBQLU4J-83" value="Security group" style="fillColor=none;strokeColor=#DD3522;verticalAlign=top;fontStyle=0;fontColor=#DD3522;dashed=1;" parent="1" vertex="1">
                    <mxGeometry x="71.00000000000003" y="1189" width="110" height="91" as="geometry"/>
                </mxCell>
                <mxCell id="wLuAjBkB-3Mf1tBQLU4J-82" style="edgeStyle=orthogonalEdgeStyle;rounded=0;orthogonalLoop=1;jettySize=auto;html=1;entryX=0.5;entryY=-0.055;entryDx=0;entryDy=0;entryPerimeter=0;endArrow=none;endFill=0;" parent="1" source="wLuAjBkB-3Mf1tBQLU4J-76" target="wLuAjBkB-3Mf1tBQLU4J-77" edge="1">
                    <mxGeometry relative="1" as="geometry"/>
                </mxCell>
                <mxCell id="wLuAjBkB-3Mf1tBQLU4J-76" value="" style="outlineConnect=0;fontColor=#232F3E;gradientColor=none;fillColor=#D86613;strokeColor=none;dashed=0;verticalLabelPosition=bottom;verticalAlign=top;align=center;html=1;fontSize=12;fontStyle=0;aspect=fixed;pointerEvents=1;shape=mxgraph.aws4.t2_instance;" parent="1" vertex="1">
                    <mxGeometry x="102.00000000000014" y="1220" width="48" height="48" as="geometry"/>
                </mxCell>
                <mxCell id="wLuAjBkB-3Mf1tBQLU4J-77" value="10GB" style="outlineConnect=0;fontColor=#232F3E;gradientColor=none;fillColor=#277116;strokeColor=none;dashed=0;verticalLabelPosition=bottom;verticalAlign=top;align=center;html=1;fontSize=12;fontStyle=0;aspect=fixed;pointerEvents=1;shape=mxgraph.aws4.volume;" parent="1" vertex="1">
                    <mxGeometry x="110.89499999999978" y="1292" width="30.21" height="38" as="geometry"/>
                </mxCell>
                <mxCell id="wLuAjBkB-3Mf1tBQLU4J-85" value="port: any&lt;br&gt;source: tetra(210.148.59.64/28)" style="shape=callout;whiteSpace=wrap;html=1;perimeter=calloutPerimeter;align=left;base=16;size=17;position=0.05;position2=0;" parent="1" vertex="1">
                    <mxGeometry x="189.00000000000003" y="1170" width="182" height="60" as="geometry"/>
                </mxCell>
                <mxCell id="wLuAjBkB-3Mf1tBQLU4J-86" value="Public subnet" style="points=[[0,0],[0.25,0],[0.5,0],[0.75,0],[1,0],[1,0.25],[1,0.5],[1,0.75],[1,1],[0.75,1],[0.5,1],[0.25,1],[0,1],[0,0.75],[0,0.5],[0,0.25]];outlineConnect=0;gradientColor=none;html=1;whiteSpace=wrap;fontSize=12;fontStyle=0;shape=mxgraph.aws4.group;grIcon=mxgraph.aws4.group_security_group;grStroke=0;strokeColor=#248814;fillColor=#E9F3E6;verticalAlign=top;align=left;spacingLeft=30;fontColor=#248814;dashed=0;" parent="1" vertex="1">
                    <mxGeometry x="411" y="1040" width="130" height="100" as="geometry"/>
                </mxCell>
                <mxCell id="wLuAjBkB-3Mf1tBQLU4J-87" value="" style="outlineConnect=0;fontColor=#232F3E;gradientColor=none;fillColor=#5A30B5;strokeColor=none;dashed=0;verticalLabelPosition=bottom;verticalAlign=top;align=center;html=1;fontSize=12;fontStyle=0;aspect=fixed;pointerEvents=1;shape=mxgraph.aws4.nat_gateway;" parent="1" vertex="1">
                    <mxGeometry x="457.0000000000001" y="1080" width="38" height="38" as="geometry"/>
                </mxCell>
                <mxCell id="wLuAjBkB-3Mf1tBQLU4J-88" value="Private subnet" style="points=[[0,0],[0.25,0],[0.5,0],[0.75,0],[1,0],[1,0.25],[1,0.5],[1,0.75],[1,1],[0.75,1],[0.5,1],[0.25,1],[0,1],[0,0.75],[0,0.5],[0,0.25]];outlineConnect=0;gradientColor=none;html=1;whiteSpace=wrap;fontSize=12;fontStyle=0;shape=mxgraph.aws4.group;grIcon=mxgraph.aws4.group_security_group;grStroke=0;strokeColor=#147EBA;fillColor=#E6F2F8;verticalAlign=top;align=left;spacingLeft=30;fontColor=#147EBA;dashed=0;" parent="1" vertex="1">
                    <mxGeometry x="411" y="1159" width="130" height="201" as="geometry"/>
                </mxCell>
                <mxCell id="wLuAjBkB-3Mf1tBQLU4J-94" value="Public subnet" style="points=[[0,0],[0.25,0],[0.5,0],[0.75,0],[1,0],[1,0.25],[1,0.5],[1,0.75],[1,1],[0.75,1],[0.5,1],[0.25,1],[0,1],[0,0.75],[0,0.5],[0,0.25]];outlineConnect=0;gradientColor=none;html=1;whiteSpace=wrap;fontSize=12;fontStyle=0;shape=mxgraph.aws4.group;grIcon=mxgraph.aws4.group_security_group;grStroke=0;strokeColor=#248814;fillColor=#E9F3E6;verticalAlign=top;align=left;spacingLeft=30;fontColor=#248814;dashed=0;" parent="1" vertex="1">
                    <mxGeometry x="551" y="1040" width="130" height="100" as="geometry"/>
                </mxCell>
                <mxCell id="wLuAjBkB-3Mf1tBQLU4J-95" value="" style="outlineConnect=0;fontColor=#232F3E;gradientColor=none;fillColor=#5A30B5;strokeColor=none;dashed=0;verticalLabelPosition=bottom;verticalAlign=top;align=center;html=1;fontSize=12;fontStyle=0;aspect=fixed;pointerEvents=1;shape=mxgraph.aws4.nat_gateway;" parent="1" vertex="1">
                    <mxGeometry x="597.0000000000001" y="1080" width="38" height="38" as="geometry"/>
                </mxCell>
                <mxCell id="wLuAjBkB-3Mf1tBQLU4J-96" value="Private subnet" style="points=[[0,0],[0.25,0],[0.5,0],[0.75,0],[1,0],[1,0.25],[1,0.5],[1,0.75],[1,1],[0.75,1],[0.5,1],[0.25,1],[0,1],[0,0.75],[0,0.5],[0,0.25]];outlineConnect=0;gradientColor=none;html=1;whiteSpace=wrap;fontSize=12;fontStyle=0;shape=mxgraph.aws4.group;grIcon=mxgraph.aws4.group_security_group;grStroke=0;strokeColor=#147EBA;fillColor=#E6F2F8;verticalAlign=top;align=left;spacingLeft=30;fontColor=#147EBA;dashed=0;" parent="1" vertex="1">
                    <mxGeometry x="551" y="1159" width="130" height="201" as="geometry"/>
                </mxCell>
                <mxCell id="wLuAjBkB-3Mf1tBQLU4J-101" value="" style="outlineConnect=0;fontColor=#232F3E;gradientColor=none;fillColor=#5A30B5;strokeColor=none;dashed=0;verticalLabelPosition=bottom;verticalAlign=top;align=center;html=1;fontSize=12;fontStyle=0;aspect=fixed;pointerEvents=1;shape=mxgraph.aws4.internet_gateway;" parent="1" vertex="1">
                    <mxGeometry x="527" y="1000" width="38" height="38" as="geometry"/>
                </mxCell>
                <mxCell id="wLuAjBkB-3Mf1tBQLU4J-89" value="Security group" style="fillColor=none;strokeColor=#DD3522;verticalAlign=top;fontStyle=0;fontColor=#DD3522;dashed=1;" parent="1" vertex="1">
                    <mxGeometry x="421" y="1189" width="250" height="91" as="geometry"/>
                </mxCell>
                <mxCell id="wLuAjBkB-3Mf1tBQLU4J-90" style="edgeStyle=orthogonalEdgeStyle;rounded=0;orthogonalLoop=1;jettySize=auto;html=1;entryX=0.5;entryY=-0.055;entryDx=0;entryDy=0;entryPerimeter=0;endArrow=none;endFill=0;" parent="1" source="wLuAjBkB-3Mf1tBQLU4J-91" target="wLuAjBkB-3Mf1tBQLU4J-92" edge="1">
                    <mxGeometry relative="1" as="geometry"/>
                </mxCell>
                <mxCell id="wLuAjBkB-3Mf1tBQLU4J-92" value="&lt;b&gt;&lt;font color=&quot;#ff0000&quot;&gt;20GB&lt;/font&gt;&lt;/b&gt;" style="outlineConnect=0;fontColor=#232F3E;gradientColor=none;fillColor=#277116;strokeColor=none;dashed=0;verticalLabelPosition=bottom;verticalAlign=top;align=center;html=1;fontSize=12;fontStyle=0;aspect=fixed;pointerEvents=1;shape=mxgraph.aws4.volume;" parent="1" vertex="1">
                    <mxGeometry x="460.89499999999975" y="1292" width="30.21" height="38" as="geometry"/>
                </mxCell>
                <mxCell id="wLuAjBkB-3Mf1tBQLU4J-98" style="edgeStyle=orthogonalEdgeStyle;rounded=0;orthogonalLoop=1;jettySize=auto;html=1;entryX=0.5;entryY=-0.055;entryDx=0;entryDy=0;entryPerimeter=0;endArrow=none;endFill=0;" parent="1" source="wLuAjBkB-3Mf1tBQLU4J-99" target="wLuAjBkB-3Mf1tBQLU4J-100" edge="1">
                    <mxGeometry relative="1" as="geometry"/>
                </mxCell>
                <mxCell id="wLuAjBkB-3Mf1tBQLU4J-100" value="&lt;b&gt;&lt;font color=&quot;#ff0000&quot;&gt;20GB&lt;/font&gt;&lt;/b&gt;" style="outlineConnect=0;fontColor=#232F3E;gradientColor=none;fillColor=#277116;strokeColor=none;dashed=0;verticalLabelPosition=bottom;verticalAlign=top;align=center;html=1;fontSize=12;fontStyle=0;aspect=fixed;pointerEvents=1;shape=mxgraph.aws4.volume;" parent="1" vertex="1">
                    <mxGeometry x="600.895" y="1292" width="30.21" height="38" as="geometry"/>
                </mxCell>
                <mxCell id="wLuAjBkB-3Mf1tBQLU4J-91" value="" style="outlineConnect=0;fontColor=#232F3E;gradientColor=none;fillColor=#D86613;strokeColor=none;dashed=0;verticalLabelPosition=bottom;verticalAlign=top;align=center;html=1;fontSize=12;fontStyle=0;aspect=fixed;pointerEvents=1;shape=mxgraph.aws4.t3_instance;fontFamily=Helvetica;" parent="1" vertex="1">
                    <mxGeometry x="452.0000000000001" y="1220" width="48" height="48" as="geometry"/>
                </mxCell>
                <mxCell id="wLuAjBkB-3Mf1tBQLU4J-99" value="" style="outlineConnect=0;fontColor=#232F3E;gradientColor=none;fillColor=#D86613;strokeColor=none;dashed=0;verticalLabelPosition=bottom;verticalAlign=top;align=center;html=1;fontSize=12;fontStyle=0;aspect=fixed;pointerEvents=1;shape=mxgraph.aws4.t3_instance;fontFamily=Helvetica;" parent="1" vertex="1">
                    <mxGeometry x="592.0000000000001" y="1220" width="48" height="48" as="geometry"/>
                </mxCell>
                <mxCell id="wLuAjBkB-3Mf1tBQLU4J-105" value="" style="rounded=0;whiteSpace=wrap;html=1;align=left;strokeColor=#FF0000;fillColor=none;" parent="1" vertex="1">
                    <mxGeometry x="551" y="1040" width="130" height="100" as="geometry"/>
                </mxCell>
                <mxCell id="wLuAjBkB-3Mf1tBQLU4J-106" value="" style="rounded=0;whiteSpace=wrap;html=1;align=left;strokeColor=#FF0000;fillColor=none;" parent="1" vertex="1">
                    <mxGeometry x="551" y="1159" width="130" height="201" as="geometry"/>
                </mxCell>
                <mxCell id="wLuAjBkB-3Mf1tBQLU4J-93" value="port: &lt;b&gt;&lt;font color=&quot;#ff0000&quot;&gt;22,80,443&lt;/font&gt;&lt;/b&gt;&lt;br&gt;source: tetra(210.148.59.64/28)" style="shape=callout;whiteSpace=wrap;html=1;perimeter=calloutPerimeter;align=left;base=16;size=17;position=0.05;position2=0;" parent="1" vertex="1">
                    <mxGeometry x="679" y="1165" width="182" height="60" as="geometry"/>
                </mxCell>
                <mxCell id="wLuAjBkB-3Mf1tBQLU4J-108" value="" style="rounded=0;whiteSpace=wrap;html=1;align=left;strokeColor=#FF0000;fillColor=none;" parent="1" vertex="1">
                    <mxGeometry x="601" y="1234" width="30" height="20" as="geometry"/>
                </mxCell>
                <mxCell id="wLuAjBkB-3Mf1tBQLU4J-110" value="" style="rounded=0;whiteSpace=wrap;html=1;align=left;strokeColor=#FF0000;fillColor=none;" parent="1" vertex="1">
                    <mxGeometry x="461" y="1234" width="30" height="20" as="geometry"/>
                </mxCell>
                <mxCell id="wLuAjBkB-3Mf1tBQLU4J-112" value="&lt;span style=&quot;background-color: rgb(255 , 255 , 255)&quot;&gt;dev&lt;/span&gt;" style="shape=cylinder;whiteSpace=wrap;html=1;boundedLbl=1;backgroundOutline=1;labelPosition=center;verticalLabelPosition=bottom;align=center;verticalAlign=top;" parent="1" vertex="1">
                    <mxGeometry x="233.00000000000026" y="630" width="40" height="50" as="geometry"/>
                </mxCell>
                <mxCell id="wLuAjBkB-3Mf1tBQLU4J-113" value="prod" style="shape=cylinder;whiteSpace=wrap;html=1;boundedLbl=1;backgroundOutline=1;labelPosition=center;verticalLabelPosition=bottom;align=center;verticalAlign=top;" parent="1" vertex="1">
                    <mxGeometry x="233.00000000000026" y="735" width="40" height="50" as="geometry"/>
                </mxCell>
                <mxCell id="64" value="" style="rounded=0;whiteSpace=wrap;html=1;" parent="1" vertex="1">
                    <mxGeometry x="188" y="1505" width="100" height="245" as="geometry"/>
                </mxCell>
                <mxCell id="66" value="dev環境" style="rounded=0;whiteSpace=wrap;html=1;verticalAlign=bottom;" parent="1" vertex="1">
                    <mxGeometry x="335" y="1490" width="210" height="140" as="geometry"/>
                </mxCell>
                <mxCell id="67" value="delivery用&lt;br&gt;tfbackend" style="rounded=0;whiteSpace=wrap;html=1;verticalAlign=bottom;dashed=1;" parent="1" vertex="1">
                    <mxGeometry x="581" y="1719" width="120" height="90" as="geometry"/>
                </mxCell>
                <mxCell id="72" value="" style="outlineConnect=0;fontColor=#232F3E;gradientColor=#60A337;gradientDirection=north;fillColor=#277116;strokeColor=#ffffff;dashed=0;verticalLabelPosition=bottom;verticalAlign=top;align=center;html=1;fontSize=12;fontStyle=0;aspect=fixed;shape=mxgraph.aws4.resourceIcon;resIcon=mxgraph.aws4.s3;" parent="1" vertex="1">
                    <mxGeometry x="594" y="1728" width="40" height="40" as="geometry"/>
                </mxCell>
                <mxCell id="73" value="" style="outlineConnect=0;fontColor=#232F3E;gradientColor=#4D72F3;gradientDirection=north;fillColor=#3334B9;strokeColor=#ffffff;dashed=0;verticalLabelPosition=bottom;verticalAlign=top;align=center;html=1;fontSize=12;fontStyle=0;aspect=fixed;shape=mxgraph.aws4.resourceIcon;resIcon=mxgraph.aws4.dynamodb;" parent="1" vertex="1">
                    <mxGeometry x="649" y="1728" width="40" height="40" as="geometry"/>
                </mxCell>
                <mxCell id="74" value="prod環境" style="rounded=0;whiteSpace=wrap;html=1;verticalAlign=bottom;" parent="1" vertex="1">
                    <mxGeometry x="560" y="1490" width="210" height="140" as="geometry"/>
                </mxCell>
                <mxCell id="75" value="dev用&lt;br&gt;tfbackend" style="rounded=0;whiteSpace=wrap;html=1;verticalAlign=bottom;dashed=1;" parent="1" vertex="1">
                    <mxGeometry x="380" y="1510" width="120" height="90" as="geometry"/>
                </mxCell>
                <mxCell id="76" value="" style="outlineConnect=0;fontColor=#232F3E;gradientColor=#60A337;gradientDirection=north;fillColor=#277116;strokeColor=#ffffff;dashed=0;verticalLabelPosition=bottom;verticalAlign=top;align=center;html=1;fontSize=12;fontStyle=0;aspect=fixed;shape=mxgraph.aws4.resourceIcon;resIcon=mxgraph.aws4.s3;" parent="1" vertex="1">
                    <mxGeometry x="393" y="1519" width="40" height="40" as="geometry"/>
                </mxCell>
                <mxCell id="77" value="" style="outlineConnect=0;fontColor=#232F3E;gradientColor=#4D72F3;gradientDirection=north;fillColor=#3334B9;strokeColor=#ffffff;dashed=0;verticalLabelPosition=bottom;verticalAlign=top;align=center;html=1;fontSize=12;fontStyle=0;aspect=fixed;shape=mxgraph.aws4.resourceIcon;resIcon=mxgraph.aws4.dynamodb;" parent="1" vertex="1">
                    <mxGeometry x="448" y="1519" width="40" height="40" as="geometry"/>
                </mxCell>
                <mxCell id="78" value="" style="group" parent="1" vertex="1" connectable="0">
                    <mxGeometry x="605" y="1510" width="120" height="90" as="geometry"/>
                </mxCell>
                <mxCell id="79" value="prod用&lt;br&gt;tfbackend" style="rounded=0;whiteSpace=wrap;html=1;verticalAlign=bottom;dashed=1;" parent="78" vertex="1">
                    <mxGeometry width="120" height="90" as="geometry"/>
                </mxCell>
                <mxCell id="80" value="" style="outlineConnect=0;fontColor=#232F3E;gradientColor=#60A337;gradientDirection=north;fillColor=#277116;strokeColor=#ffffff;dashed=0;verticalLabelPosition=bottom;verticalAlign=top;align=center;html=1;fontSize=12;fontStyle=0;aspect=fixed;shape=mxgraph.aws4.resourceIcon;resIcon=mxgraph.aws4.s3;" parent="78" vertex="1">
                    <mxGeometry x="13" y="9" width="40" height="40" as="geometry"/>
                </mxCell>
                <mxCell id="81" value="" style="outlineConnect=0;fontColor=#232F3E;gradientColor=#4D72F3;gradientDirection=north;fillColor=#3334B9;strokeColor=#ffffff;dashed=0;verticalLabelPosition=bottom;verticalAlign=top;align=center;html=1;fontSize=12;fontStyle=0;aspect=fixed;shape=mxgraph.aws4.resourceIcon;resIcon=mxgraph.aws4.dynamodb;" parent="78" vertex="1">
                    <mxGeometry x="68" y="9" width="40" height="40" as="geometry"/>
                </mxCell>
                <mxCell id="83" value="&lt;span style=&quot;background-color: rgb(255 , 255 , 255)&quot;&gt;dev&lt;/span&gt;" style="shape=cylinder;whiteSpace=wrap;html=1;boundedLbl=1;backgroundOutline=1;labelPosition=center;verticalLabelPosition=bottom;align=center;verticalAlign=top;" parent="1" vertex="1">
                    <mxGeometry x="218.00000000000026" y="1560" width="40" height="50" as="geometry"/>
                </mxCell>
                <mxCell id="84" value="prod" style="shape=cylinder;whiteSpace=wrap;html=1;boundedLbl=1;backgroundOutline=1;labelPosition=center;verticalLabelPosition=bottom;align=center;verticalAlign=top;" parent="1" vertex="1">
                    <mxGeometry x="218.00000000000026" y="1665" width="40" height="50" as="geometry"/>
                </mxCell>
                <mxCell id="87" value="Public subnet" style="points=[[0,0],[0.25,0],[0.5,0],[0.75,0],[1,0],[1,0.25],[1,0.5],[1,0.75],[1,1],[0.75,1],[0.5,1],[0.25,1],[0,1],[0,0.75],[0,0.5],[0,0.25]];outlineConnect=0;gradientColor=none;html=1;whiteSpace=wrap;fontSize=12;fontStyle=0;shape=mxgraph.aws4.group;grIcon=mxgraph.aws4.group_security_group;grStroke=0;strokeColor=#248814;fillColor=#E9F3E6;verticalAlign=top;align=left;spacingLeft=30;fontColor=#248814;dashed=0;" parent="1" vertex="1">
                    <mxGeometry x="388" y="1700" width="160" height="140" as="geometry"/>
                </mxCell>
                <mxCell id="68" value="" style="rounded=0;whiteSpace=wrap;html=1;verticalAlign=bottom;dashed=1;" parent="1" vertex="1">
                    <mxGeometry x="398" y="1740" width="140" height="90" as="geometry"/>
                </mxCell>
                <mxCell id="71" value="" style="outlineConnect=0;fontColor=#232F3E;gradientColor=#F78E04;gradientDirection=north;fillColor=#D05C17;strokeColor=#ffffff;dashed=0;verticalLabelPosition=bottom;verticalAlign=top;align=center;html=1;fontSize=12;fontStyle=0;aspect=fixed;shape=mxgraph.aws4.resourceIcon;resIcon=mxgraph.aws4.ec2;" parent="1" vertex="1">
                    <mxGeometry x="398" y="1740" width="38" height="38" as="geometry"/>
                </mxCell>
                <mxCell id="69" style="edgeStyle=orthogonalEdgeStyle;rounded=0;orthogonalLoop=1;jettySize=auto;html=1;entryX=0.5;entryY=1;entryDx=0;entryDy=0;endArrow=classic;endFill=1;exitX=0;exitY=0.5;exitDx=0;exitDy=0;" parent="1" source="88" target="64" edge="1">
                    <mxGeometry relative="1" as="geometry">
                        <Array as="points"/>
                    </mxGeometry>
                </mxCell>
                <mxCell id="88" value="" style="outlineConnect=0;fontColor=#232F3E;gradientColor=none;fillColor=#5A30B5;strokeColor=none;dashed=0;verticalLabelPosition=bottom;verticalAlign=top;align=center;html=1;fontSize=12;fontStyle=0;aspect=fixed;pointerEvents=1;shape=mxgraph.aws4.internet_gateway;" parent="1" vertex="1">
                    <mxGeometry x="352" y="1766" width="38" height="38" as="geometry"/>
                </mxCell>
                <mxCell id="91" value="dev環境" style="rounded=0;whiteSpace=wrap;html=1;verticalAlign=bottom;" parent="1" vertex="1">
                    <mxGeometry x="90" y="1950" width="310" height="541" as="geometry"/>
                </mxCell>
                <mxCell id="92" value="prod環境" style="rounded=0;whiteSpace=wrap;html=1;verticalAlign=bottom;" parent="1" vertex="1">
                    <mxGeometry x="520" y="1950" width="430" height="540" as="geometry"/>
                </mxCell>
                <mxCell id="93" value="dev用&lt;br&gt;tfbackend" style="rounded=0;whiteSpace=wrap;html=1;verticalAlign=bottom;dashed=1;" parent="1" vertex="1">
                    <mxGeometry x="180" y="2370" width="120" height="90" as="geometry"/>
                </mxCell>
                <mxCell id="94" value="" style="outlineConnect=0;fontColor=#232F3E;gradientColor=#60A337;gradientDirection=north;fillColor=#277116;strokeColor=#ffffff;dashed=0;verticalLabelPosition=bottom;verticalAlign=top;align=center;html=1;fontSize=12;fontStyle=0;aspect=fixed;shape=mxgraph.aws4.resourceIcon;resIcon=mxgraph.aws4.s3;" parent="1" vertex="1">
                    <mxGeometry x="193" y="2379" width="40" height="40" as="geometry"/>
                </mxCell>
                <mxCell id="95" value="" style="outlineConnect=0;fontColor=#232F3E;gradientColor=#4D72F3;gradientDirection=north;fillColor=#3334B9;strokeColor=#ffffff;dashed=0;verticalLabelPosition=bottom;verticalAlign=top;align=center;html=1;fontSize=12;fontStyle=0;aspect=fixed;shape=mxgraph.aws4.resourceIcon;resIcon=mxgraph.aws4.dynamodb;" parent="1" vertex="1">
                    <mxGeometry x="248" y="2379" width="40" height="40" as="geometry"/>
                </mxCell>
                <mxCell id="96" value="" style="group" parent="1" vertex="1" connectable="0">
                    <mxGeometry x="675" y="2370" width="120" height="90" as="geometry"/>
                </mxCell>
                <mxCell id="97" value="prod用&lt;br&gt;tfbackend" style="rounded=0;whiteSpace=wrap;html=1;verticalAlign=bottom;dashed=1;" parent="96" vertex="1">
                    <mxGeometry width="120" height="90" as="geometry"/>
                </mxCell>
                <mxCell id="98" value="" style="outlineConnect=0;fontColor=#232F3E;gradientColor=#60A337;gradientDirection=north;fillColor=#277116;strokeColor=#ffffff;dashed=0;verticalLabelPosition=bottom;verticalAlign=top;align=center;html=1;fontSize=12;fontStyle=0;aspect=fixed;shape=mxgraph.aws4.resourceIcon;resIcon=mxgraph.aws4.s3;" parent="96" vertex="1">
                    <mxGeometry x="13" y="9" width="40" height="40" as="geometry"/>
                </mxCell>
                <mxCell id="99" value="" style="outlineConnect=0;fontColor=#232F3E;gradientColor=#4D72F3;gradientDirection=north;fillColor=#3334B9;strokeColor=#ffffff;dashed=0;verticalLabelPosition=bottom;verticalAlign=top;align=center;html=1;fontSize=12;fontStyle=0;aspect=fixed;shape=mxgraph.aws4.resourceIcon;resIcon=mxgraph.aws4.dynamodb;" parent="96" vertex="1">
                    <mxGeometry x="68" y="9" width="40" height="40" as="geometry"/>
                </mxCell>
                <mxCell id="100" value="dev vpc" style="points=[[0,0],[0.25,0],[0.5,0],[0.75,0],[1,0],[1,0.25],[1,0.5],[1,0.75],[1,1],[0.75,1],[0.5,1],[0.25,1],[0,1],[0,0.75],[0,0.5],[0,0.25]];outlineConnect=0;gradientColor=none;html=1;whiteSpace=wrap;fontSize=12;fontStyle=0;shape=mxgraph.aws4.group;grIcon=mxgraph.aws4.group_vpc;strokeColor=#248814;fillColor=none;verticalAlign=top;align=left;spacingLeft=30;fontColor=#AAB7B8;dashed=0;" parent="1" vertex="1">
                    <mxGeometry x="156.00000000000003" y="1990" width="172" height="370" as="geometry"/>
                </mxCell>
                <mxCell id="101" value="Public subnet" style="points=[[0,0],[0.25,0],[0.5,0],[0.75,0],[1,0],[1,0.25],[1,0.5],[1,0.75],[1,1],[0.75,1],[0.5,1],[0.25,1],[0,1],[0,0.75],[0,0.5],[0,0.25]];outlineConnect=0;gradientColor=none;html=1;whiteSpace=wrap;fontSize=12;fontStyle=0;shape=mxgraph.aws4.group;grIcon=mxgraph.aws4.group_security_group;grStroke=0;strokeColor=#248814;fillColor=#E9F3E6;verticalAlign=top;align=left;spacingLeft=30;fontColor=#248814;dashed=0;" parent="1" vertex="1">
                    <mxGeometry x="178.00000000000003" y="2020" width="130" height="100" as="geometry"/>
                </mxCell>
                <mxCell id="102" value="" style="outlineConnect=0;fontColor=#232F3E;gradientColor=none;fillColor=#5A30B5;strokeColor=none;dashed=0;verticalLabelPosition=bottom;verticalAlign=top;align=center;html=1;fontSize=12;fontStyle=0;aspect=fixed;pointerEvents=1;shape=mxgraph.aws4.internet_gateway;" parent="1" vertex="1">
                    <mxGeometry x="226.00000000000003" y="1970" width="38" height="38" as="geometry"/>
                </mxCell>
                <mxCell id="103" value="" style="outlineConnect=0;fontColor=#232F3E;gradientColor=none;fillColor=#5A30B5;strokeColor=none;dashed=0;verticalLabelPosition=bottom;verticalAlign=top;align=center;html=1;fontSize=12;fontStyle=0;aspect=fixed;pointerEvents=1;shape=mxgraph.aws4.nat_gateway;" parent="1" vertex="1">
                    <mxGeometry x="224.00000000000014" y="2060" width="38" height="38" as="geometry"/>
                </mxCell>
                <mxCell id="104" value="Private subnet" style="points=[[0,0],[0.25,0],[0.5,0],[0.75,0],[1,0],[1,0.25],[1,0.5],[1,0.75],[1,1],[0.75,1],[0.5,1],[0.25,1],[0,1],[0,0.75],[0,0.5],[0,0.25]];outlineConnect=0;gradientColor=none;html=1;whiteSpace=wrap;fontSize=12;fontStyle=0;shape=mxgraph.aws4.group;grIcon=mxgraph.aws4.group_security_group;grStroke=0;strokeColor=#147EBA;fillColor=#E6F2F8;verticalAlign=top;align=left;spacingLeft=30;fontColor=#147EBA;dashed=0;" parent="1" vertex="1">
                    <mxGeometry x="178.00000000000003" y="2139" width="130" height="201" as="geometry"/>
                </mxCell>
                <mxCell id="105" value="Security group" style="fillColor=none;strokeColor=#DD3522;verticalAlign=top;fontStyle=0;fontColor=#DD3522;dashed=1;" parent="1" vertex="1">
                    <mxGeometry x="188.00000000000003" y="2169" width="110" height="91" as="geometry"/>
                </mxCell>
                <mxCell id="106" style="edgeStyle=orthogonalEdgeStyle;rounded=0;orthogonalLoop=1;jettySize=auto;html=1;entryX=0.5;entryY=-0.055;entryDx=0;entryDy=0;entryPerimeter=0;endArrow=none;endFill=0;" parent="1" source="107" target="108" edge="1">
                    <mxGeometry relative="1" as="geometry"/>
                </mxCell>
                <mxCell id="107" value="" style="outlineConnect=0;fontColor=#232F3E;gradientColor=none;fillColor=#D86613;strokeColor=none;dashed=0;verticalLabelPosition=bottom;verticalAlign=top;align=center;html=1;fontSize=12;fontStyle=0;aspect=fixed;pointerEvents=1;shape=mxgraph.aws4.t2_instance;" parent="1" vertex="1">
                    <mxGeometry x="219.00000000000014" y="2200" width="48" height="48" as="geometry"/>
                </mxCell>
                <mxCell id="108" value="10GB" style="outlineConnect=0;fontColor=#232F3E;gradientColor=none;fillColor=#277116;strokeColor=none;dashed=0;verticalLabelPosition=bottom;verticalAlign=top;align=center;html=1;fontSize=12;fontStyle=0;aspect=fixed;pointerEvents=1;shape=mxgraph.aws4.volume;" parent="1" vertex="1">
                    <mxGeometry x="227.89499999999978" y="2272" width="30.21" height="38" as="geometry"/>
                </mxCell>
                <mxCell id="109" value="port: any&lt;br&gt;source: tetra(210.148.59.64/28)" style="shape=callout;whiteSpace=wrap;html=1;perimeter=calloutPerimeter;align=left;base=16;size=17;position=0.05;position2=0;" parent="1" vertex="1">
                    <mxGeometry x="306" y="2150" width="182" height="60" as="geometry"/>
                </mxCell>
                <mxCell id="110" value="prod vpc" style="points=[[0,0],[0.25,0],[0.5,0],[0.75,0],[1,0],[1,0.25],[1,0.5],[1,0.75],[1,1],[0.75,1],[0.5,1],[0.25,1],[0,1],[0,0.75],[0,0.5],[0,0.25]];outlineConnect=0;gradientColor=none;html=1;whiteSpace=wrap;fontSize=12;fontStyle=0;shape=mxgraph.aws4.group;grIcon=mxgraph.aws4.group_vpc;strokeColor=#248814;fillColor=none;verticalAlign=top;align=left;spacingLeft=30;fontColor=#AAB7B8;dashed=0;" parent="1" vertex="1">
                    <mxGeometry x="575" y="1980" width="310" height="370" as="geometry"/>
                </mxCell>
                <mxCell id="111" value="Public subnet" style="points=[[0,0],[0.25,0],[0.5,0],[0.75,0],[1,0],[1,0.25],[1,0.5],[1,0.75],[1,1],[0.75,1],[0.5,1],[0.25,1],[0,1],[0,0.75],[0,0.5],[0,0.25]];outlineConnect=0;gradientColor=none;html=1;whiteSpace=wrap;fontSize=12;fontStyle=0;shape=mxgraph.aws4.group;grIcon=mxgraph.aws4.group_security_group;grStroke=0;strokeColor=#248814;fillColor=#E9F3E6;verticalAlign=top;align=left;spacingLeft=30;fontColor=#248814;dashed=0;" parent="1" vertex="1">
                    <mxGeometry x="595" y="2010" width="130" height="100" as="geometry"/>
                </mxCell>
                <mxCell id="112" value="" style="outlineConnect=0;fontColor=#232F3E;gradientColor=none;fillColor=#5A30B5;strokeColor=none;dashed=0;verticalLabelPosition=bottom;verticalAlign=top;align=center;html=1;fontSize=12;fontStyle=0;aspect=fixed;pointerEvents=1;shape=mxgraph.aws4.nat_gateway;" parent="1" vertex="1">
                    <mxGeometry x="641.0000000000001" y="2050" width="38" height="38" as="geometry"/>
                </mxCell>
                <mxCell id="113" value="Private subnet" style="points=[[0,0],[0.25,0],[0.5,0],[0.75,0],[1,0],[1,0.25],[1,0.5],[1,0.75],[1,1],[0.75,1],[0.5,1],[0.25,1],[0,1],[0,0.75],[0,0.5],[0,0.25]];outlineConnect=0;gradientColor=none;html=1;whiteSpace=wrap;fontSize=12;fontStyle=0;shape=mxgraph.aws4.group;grIcon=mxgraph.aws4.group_security_group;grStroke=0;strokeColor=#147EBA;fillColor=#E6F2F8;verticalAlign=top;align=left;spacingLeft=30;fontColor=#147EBA;dashed=0;" parent="1" vertex="1">
                    <mxGeometry x="595" y="2129" width="130" height="201" as="geometry"/>
                </mxCell>
                <mxCell id="114" value="Public subnet" style="points=[[0,0],[0.25,0],[0.5,0],[0.75,0],[1,0],[1,0.25],[1,0.5],[1,0.75],[1,1],[0.75,1],[0.5,1],[0.25,1],[0,1],[0,0.75],[0,0.5],[0,0.25]];outlineConnect=0;gradientColor=none;html=1;whiteSpace=wrap;fontSize=12;fontStyle=0;shape=mxgraph.aws4.group;grIcon=mxgraph.aws4.group_security_group;grStroke=0;strokeColor=#248814;fillColor=#E9F3E6;verticalAlign=top;align=left;spacingLeft=30;fontColor=#248814;dashed=0;" parent="1" vertex="1">
                    <mxGeometry x="735" y="2010" width="130" height="100" as="geometry"/>
                </mxCell>
                <mxCell id="115" value="" style="outlineConnect=0;fontColor=#232F3E;gradientColor=none;fillColor=#5A30B5;strokeColor=none;dashed=0;verticalLabelPosition=bottom;verticalAlign=top;align=center;html=1;fontSize=12;fontStyle=0;aspect=fixed;pointerEvents=1;shape=mxgraph.aws4.nat_gateway;" parent="1" vertex="1">
                    <mxGeometry x="781.0000000000001" y="2050" width="38" height="38" as="geometry"/>
                </mxCell>
                <mxCell id="116" value="Private subnet" style="points=[[0,0],[0.25,0],[0.5,0],[0.75,0],[1,0],[1,0.25],[1,0.5],[1,0.75],[1,1],[0.75,1],[0.5,1],[0.25,1],[0,1],[0,0.75],[0,0.5],[0,0.25]];outlineConnect=0;gradientColor=none;html=1;whiteSpace=wrap;fontSize=12;fontStyle=0;shape=mxgraph.aws4.group;grIcon=mxgraph.aws4.group_security_group;grStroke=0;strokeColor=#147EBA;fillColor=#E6F2F8;verticalAlign=top;align=left;spacingLeft=30;fontColor=#147EBA;dashed=0;" parent="1" vertex="1">
                    <mxGeometry x="735" y="2129" width="130" height="201" as="geometry"/>
                </mxCell>
                <mxCell id="117" value="" style="outlineConnect=0;fontColor=#232F3E;gradientColor=none;fillColor=#5A30B5;strokeColor=none;dashed=0;verticalLabelPosition=bottom;verticalAlign=top;align=center;html=1;fontSize=12;fontStyle=0;aspect=fixed;pointerEvents=1;shape=mxgraph.aws4.internet_gateway;" parent="1" vertex="1">
                    <mxGeometry x="711" y="1970" width="38" height="38" as="geometry"/>
                </mxCell>
                <mxCell id="118" value="Security group" style="fillColor=none;strokeColor=#DD3522;verticalAlign=top;fontStyle=0;fontColor=#DD3522;dashed=1;" parent="1" vertex="1">
                    <mxGeometry x="605" y="2159" width="250" height="91" as="geometry"/>
                </mxCell>
                <mxCell id="119" style="edgeStyle=orthogonalEdgeStyle;rounded=0;orthogonalLoop=1;jettySize=auto;html=1;entryX=0.5;entryY=-0.055;entryDx=0;entryDy=0;entryPerimeter=0;endArrow=none;endFill=0;" parent="1" source="123" target="120" edge="1">
                    <mxGeometry relative="1" as="geometry"/>
                </mxCell>
                <mxCell id="120" value="&lt;b&gt;&lt;font color=&quot;#ff0000&quot;&gt;20GB&lt;/font&gt;&lt;/b&gt;" style="outlineConnect=0;fontColor=#232F3E;gradientColor=none;fillColor=#277116;strokeColor=none;dashed=0;verticalLabelPosition=bottom;verticalAlign=top;align=center;html=1;fontSize=12;fontStyle=0;aspect=fixed;pointerEvents=1;shape=mxgraph.aws4.volume;" parent="1" vertex="1">
                    <mxGeometry x="644.8949999999998" y="2262" width="30.21" height="38" as="geometry"/>
                </mxCell>
                <mxCell id="121" style="edgeStyle=orthogonalEdgeStyle;rounded=0;orthogonalLoop=1;jettySize=auto;html=1;entryX=0.5;entryY=-0.055;entryDx=0;entryDy=0;entryPerimeter=0;endArrow=none;endFill=0;" parent="1" source="124" target="122" edge="1">
                    <mxGeometry relative="1" as="geometry"/>
                </mxCell>
                <mxCell id="122" value="&lt;b&gt;&lt;font color=&quot;#ff0000&quot;&gt;20GB&lt;/font&gt;&lt;/b&gt;" style="outlineConnect=0;fontColor=#232F3E;gradientColor=none;fillColor=#277116;strokeColor=none;dashed=0;verticalLabelPosition=bottom;verticalAlign=top;align=center;html=1;fontSize=12;fontStyle=0;aspect=fixed;pointerEvents=1;shape=mxgraph.aws4.volume;" parent="1" vertex="1">
                    <mxGeometry x="784.895" y="2262" width="30.21" height="38" as="geometry"/>
                </mxCell>
                <mxCell id="123" value="" style="outlineConnect=0;fontColor=#232F3E;gradientColor=none;fillColor=#D86613;strokeColor=none;dashed=0;verticalLabelPosition=bottom;verticalAlign=top;align=center;html=1;fontSize=12;fontStyle=0;aspect=fixed;pointerEvents=1;shape=mxgraph.aws4.t3_instance;fontFamily=Helvetica;" parent="1" vertex="1">
                    <mxGeometry x="636.0000000000001" y="2190" width="48" height="48" as="geometry"/>
                </mxCell>
                <mxCell id="124" value="" style="outlineConnect=0;fontColor=#232F3E;gradientColor=none;fillColor=#D86613;strokeColor=none;dashed=0;verticalLabelPosition=bottom;verticalAlign=top;align=center;html=1;fontSize=12;fontStyle=0;aspect=fixed;pointerEvents=1;shape=mxgraph.aws4.t3_instance;fontFamily=Helvetica;" parent="1" vertex="1">
                    <mxGeometry x="776.0000000000001" y="2190" width="48" height="48" as="geometry"/>
                </mxCell>
                <mxCell id="125" value="" style="rounded=0;whiteSpace=wrap;html=1;align=left;strokeColor=#FF0000;fillColor=none;" parent="1" vertex="1">
                    <mxGeometry x="735" y="2010" width="130" height="100" as="geometry"/>
                </mxCell>
                <mxCell id="126" value="" style="rounded=0;whiteSpace=wrap;html=1;align=left;strokeColor=#FF0000;fillColor=none;" parent="1" vertex="1">
                    <mxGeometry x="735" y="2129" width="130" height="201" as="geometry"/>
                </mxCell>
                <mxCell id="127" value="port: &lt;b&gt;&lt;font color=&quot;#ff0000&quot;&gt;22,80,443&lt;/font&gt;&lt;/b&gt;&lt;br&gt;source: tetra(210.148.59.64/28)" style="shape=callout;whiteSpace=wrap;html=1;perimeter=calloutPerimeter;align=left;base=16;size=17;position=0.05;position2=0;" parent="1" vertex="1">
                    <mxGeometry x="863" y="2135" width="182" height="60" as="geometry"/>
                </mxCell>
                <mxCell id="128" value="" style="rounded=0;whiteSpace=wrap;html=1;align=left;strokeColor=#FF0000;fillColor=none;" parent="1" vertex="1">
                    <mxGeometry x="785" y="2204" width="30" height="20" as="geometry"/>
                </mxCell>
                <mxCell id="129" value="" style="rounded=0;whiteSpace=wrap;html=1;align=left;strokeColor=#FF0000;fillColor=none;" parent="1" vertex="1">
                    <mxGeometry x="645" y="2204" width="30" height="20" as="geometry"/>
                </mxCell>
                <mxCell id="130" value="" style="shape=image;imageAspect=0;aspect=fixed;verticalLabelPosition=bottom;verticalAlign=top;image=data:image/png,iVBORw0KGgoAAAANSUhEUgAAAgAAAAIACAMAAADDpiTIAAAAA3NCSVQICAjb4U/gAAAACXBIWXMAAMinAADIpwFvdAvIAAAAGXRFWHRTb2Z0d2FyZQB3d3cuaW5rc2NhcGUub3Jnm+48GgAAAwBQTFRF////AAAAAAAAAAAAAAAAAAAAAAAAAAAAAAAAAAAAAAAAAAAAAAAAAAAAAAAAAAAAAAAAAAAAAAAAAAAAAAAAAAAAAAAAAAAAAAAAAAAAAAAAAAAAAAAAAAAAAAAAAAAAAAAAAAAAAAAAAAAAAAAAAAAAAAAAAAAAAAAAAAAAAAAAAAAAAAAAAAAAAAAAAAAAAAAAAAAAAAAAAAAAAAAAAAAAAAAAAAAAAAAAAAAAAAAAAAAAAAAAAAAAAAAAAAAAAAAAAAAAAAAAAAAAAAAAAAAAAAAAAAAAAAAAAAAAAAAAAAAAAAAAAAAAAAAAAAAAAAAAAAAAAAAAAAAAAAAAAAAAAAAAAAAAAAAAAAAAAAAAAAAAAAAAAAAAAAAAAAAAAAAAAAAAAAAAAAAAAAAAAAAAAAAAAAAAAAAAAAAAAAAAAAAAAAAAAAAAAAAAAAAAAAAAAAAAAAAAAAAAAAAAAAAAAAAAAAAAAAAAAAAAAAAAAAAAAAAAAAAAAAAAAAAAAAAAAAAAAAAAAAAAAAAAAAAAAAAAAAAAAAAAAAAAAAAAAAAAAAAAAAAAAAAAAAAAAAAAAAAAAAAAAAAAAAAAAAAAAAAAAAAAAAAAAAAAAAAAAAAAAAAAAAAAAAAAAAAAAAAAAAAAAAAAAAAAAAAAAAAAAAAAAAAAAAAAAAAAAAAAAAAAAAAAAAAAAAAAAAAAAAAAAAAAAAAAAAAAAAAAAAAAAAAAAAAAAAAAAAAAAAAAAAAAAAAAAAAAAAAAAAAAAAAAAAAAAAAAAAAAAAAAAAAAAAAAAAAAAAAAAAAAAAAAAAAAAAAAAAAAAAAAAAAAAAAAAAAAAAAAAAAAAAAAAAAAAAAAAAAAAAAAAAAAAAAAAAAAAAAAAAAAAAAAAAAAAAAAAAAAAAAAAAAAAAAAAAAAAAAAAAAAAAAAAAAAAAAAAAAAAAAAAAAAAAAAAAAAAAAAAAAAAAAAAAAAAAAAAAAAAAAAAAAAAAAAAAAAAAAAAAAAAAAAAAAAAAAAAAAACyO34QAAAP90Uk5TAAECAwQFBgcICQoLDA0ODxAREhMUFRYXGBkaGxwdHh8gISIjJCUmJygpKissLS4vMDEyMzQ1Njc4OTo7PD0+P0BBQkNERUZHSElKS0xNTk9QUVJTVFVWV1hZWltcXV5fYGFiY2RlZmdoaWprbG1ub3BxcnN0dXZ3eHl6e3x9fn+AgYKDhIWGh4iJiouMjY6PkJGSk5SVlpeYmZqbnJ2en6ChoqOkpaanqKmqq6ytrq+wsbKztLW2t7i5uru8vb6/wMHCw8TFxsfIycrLzM3Oz9DR0tPU1dbX2Nna29zd3t/g4eLj5OXm5+jp6uvs7e7v8PHy8/T19vf4+fr7/P3+6wjZNQAAHhNJREFUGBntwQmAjfX+BvDnzG6MYWzJml0SXZItLfbqIuLaSlr8yy1Cl0KL5JJCRSURSroIUaiupcWeEncKCYOxZhkMs5/z/JGEOefMeZfv+77nzO/zARRFURRFURRFUUKbq1Dp6jff2a5Hn8EvvzHpnbcnTnjzjdfHjX3t1TGjhvzz/ra331SpWCSUkBNXvdkDz05csCE51cM8pR3+9ftFEwd3u7V8BJTgVqTRwyOn//eXk9THvX/dnLFPdagVBSXYXNvsibdWHKQ5srfPf7lbnRgowaDE3f+ati6F5nP/tnDU/XUjoThW5M1PfrSTstJXv9qhFBTHKX3fa6vSaJGkj/veHAHFIaIbDZy7j1ZL+25Mu0JQbHZd1zc3ZNIu2d8OreeCYpOCbd/ZTdv9PqtnKSiWu37gsgw6xeYxzaKgWCau3aQ9dJgz87vGQbFAzaeXZ9KR0uZ3jYMiKa79u3vpZGnzu8ZBkVH44WWZdL60+V3joJgt6t5P0hks0ua0dEExj+v2904wuCQ9VwaKOWqP2ccglLO4fQQUo8o/m8igdXBUZSgGFH3sOw+DmmdFt2gouoS1W5jJEHDkheJQNIvvv4uhIm1SVSiaVJ2QylDi/rQJlEC5Wi3xMOSs7xQOJQCxj29laNr1ZEEoeajw6gmGruMvxEPx47b5OQxtx56JheJdZK+fmA8c6R8DJbfwXknMJ/b3iYJyJVeX7cxHkh6OgHKZtpuZz+zoEQblohbrmQ8lNodyXuOvmU8tqAil7hLmX+kjCyJ/qznPw3xtf3fkY5U+dDPfW1MP+VTsq1lUSPfUksiP2u6h8oeTA8KR35T7lMpfNt6IfCV8YCqVy2WNiEL+0XAzlav90hD5RJFJHiq5uV+PRX7Q4zAV73Y3R8irtpyKb1OLIKRFD8+g4s/BtghhjXZQycvbMQhRYcOyqeQt8QaEpDJfUwlI2uMIQe2PUwnUgqIIMTFvU9Eg+XaElBsSqWjiHhGO0NEnjYpWayogRBT9lIoOKfcgJNyeTEUX93MuBL3wl91U9FpQCEGu3BoqBvxSFUGt/iEqhpy8G0GsUxoVg9zDXAhWQzxUjJsfh6AUNZ2KKX6piiBU9BsqJkm5A0Gn6g4qpsnsgiBzx3EqJvIMRFB5KIuKuca7EDRco6mYbnY0gkSBeVQEfF0YQaHURioiEssiCJTdSUVIci04XrldVMSk3AaHK7+biqC0FnC0CklURKW3gYNdt4eKsIx74FgV91IRl9kODlVpHxULZHWEI1VOpmKJ7M5woCrJVCyS0w2OU3U/FcvkPACHqXaAioXcveAo1Q9SsZS7Exyk/EEqFstsAceIT6RiudRb4BARy6jY4Nj1cIb3qdgiuTycYBgVm2wvDvt181Cxy8ZCsFvTDCr2WRENe1U7TsVO88Nhp+I7qdjrHdgoZi0Vu/WFbVxzqdgupxXsMoaKA6TUgD0eo+IIvxWFHZrlUHGGFRGwXslDVJxiEizn+oqKc/SF1Z6l4iA5rWCtRtlUnCSlBqyUsIeKs/xaCBZaQMVpZsM6T1Bxnj6wyk0ZVJwnoy6sEfcrFSfaGQ9LfEjFmT6BFR6k4lRPQl6NM1ScKvNmSIvZQhO5U/bvyqBimt1FIGwizfPLE8UBhFVq89Tby/Z5mM94Dq75aMRDd9S//a5B22iaBZDVxEPTfFkQl4lt8sznJ5gvJM0f+8RdNWLwl7vO0iz9ICnyF5pmXSSu5qr1+McnGNLOLu1XDbk1T6dJ0mtA0DCaxtMAXkU0m7CPIerncS2j4d0gmmV9OMRUTadpPoZvdUfsZKhJ+eTRsvAt/iTNMgRiVtA8LeCPq/XCHIaQHx+Mhn9jaJbMWhDSk+Y5HoE8lBtxiKEhe+6tyFNNmubHCIgofpTmmYa8RXZeyeB3bHQ5BOIQTfMiRMygie5BQGq8mcKg9r9HCyAws2iarL9BQDOa6FQ0AhT7yCYGrcV3ImAP0zz/i4LpYnbQRLOgQfstDErbWkGDCjTRKJjuZZqpI7Rw/WMbg86pgZHQZCfNk3MLTFYziyZKj4U24T13Mqh4pl0DjSbTRFujYCrXapppHTSL6L2PwWPDLdCsC830LEz1fzTVm9Ah+smDDA6HH3JBuxIemuhMOZjomhSaqgd0KfCvo3S+7HHx0GULzfQJTPQ2zVUVOsW/mkmHW1sbOo2nqVrCNJWzaKoTLuhWZSGd7MT/uaDXPTTV9iiYZRbN9V8Y0SKROqUd3Lp26cfvjBr8WJfWDerUrnVDzRrVq1WtXKlixRub3NWl98Dh46fO/XLtjgzqlTO9JPQrlE1TPQuT1PHQXCNhSPg/j1GLrN3ffjSqz99rJyAwrlINuwx+e3HiaWqT+V4lGLKWpjpTDuZYQpO1g0EJb2YzAKc3TB903y3XuqBTwt/ufW7eLg8Dcvb1MjBoDM01D6ZoSrOVgmHXf0l/UtZMGdC6HEwR37TftJ8y6VfOVz0LwbCeNFkrmGENTbYPZrhnK73xbJ3Rt/m1MFtknV5vrNxPr1KXP1UKZqhPk/0aBePa0mzzYIqwjht4pQOfDmkWD0EF63QeNmPtMV5yMvGTp+qFwySFaLZnYVhYIs32DMxS7/m1Obzg1IrRHcrAIgkN2t97TusbCsFc+2iyU8Vg1AM0XWuYKLZGy1733VopDKHgK5ptPAyKSqLpboLi3Rs0W0YFGNOX5isLxbs+NN0HMCTuCM0XDcW7e2k6940w4nmaLxWKD41pviUwoNgpmm83FB+qUMDt0G8sBWyA4kMhClgH3RLOUsASKL6kU0BH6PUsJcyA4steCtgeDn0i91PCa1B8+YESekOf7hTxDBRf1lBCciR02UgRD0Px5VuKeAh6NKWMdlB8WUkR21zQYQFltITiyzLK6ADtKrkp4z4ovnxBGeuh3RsU8jAUXxZTyJ3QqvBpChkAxZdFFPIltHqaUoZD8WU5pfwN2oTvoZTXofjyA6XMhjadKWYaFF92UUpOZWiyjmLmQ/HlBMW8Cy0aUs5yKD643BSTUQoazKGcjVB8KExBIxC48jmUswOKD9dR0MFIBOwlCjoCxYcmlNQZgXLtpqAMKD48SEkrEahbKao0FO9GUlQNBOg9imoHxbvZFPUGAhNzkqJGQPHuB4pKiUVAOlPWF1C8O0VZDyMgn1PWUShelaCwjQhEiWwKqwDFmzsorT4C0I/SOkHxZiilTUMAfqC0V6B4s4TS0hKQp5oUtxyKF64TFNcXeRpNcSkuKLnVpLx1yEvYPsqrCiW3R2mBishDM1qgG5TcptMCQ5GHGbTAOCi5/UILJMK/2FRa4AMouZ2iFWrBrx60wkwoucTSEqPg11e0wkdQcqlMS+yGPwk5tMLHUHJpQGs0hB9daYk3oeRSitaYAD9m0hItoOR2kJY4HA6fwo7RCgcioeT2NK3RAj41oiU6QfEiOpGWmAafRtIKs6F4VeMMrXAsDL78RAtsjYPi3f20RCP4UIYWOF0Dii9TaIWR8OH/aIHOUHyK2UILbIIPiyhvHBQ/qp2mBUrDq+gzFPdtBBR/utICj8Cr1hR3sBQU/yZR3nx4NYHSsm+FkofoTRR3OhLe7KK0YVDyVD2T4prBixqUtiMKSt7GUNxYePE0pd0NJQCFDlLaNnixksI+hxKQByiuInKJz6KsjCpQAuJaS2lPIJdOFPZvKAG62U1h85HLJMpKLgglUFMp7Ahy2UJZXaEErORJCquKq8S7KeobKBr0p7CHcJVWlFUfigYR2ynrfVxlOEWtgqLJI5T1K66yjKI6QtEk5ghllcQVwk5TUlI4FG1epKwOuEIdihoARaMS6RQ1Dlf4JyWdjoei1XsU9T2u8BElvQlFs+s9lJQdi8slUZC7MhTtllBUM1zmWkpaCEWH5hT1Ai5zHyXdAUWPzZS0GJcZT0H7XVD0eIyS9uEy6ynobSi6lHRTUgIuicmioBZQ9PmGkm7DJU0p6EQEFH36UlJfXPIMBX0IRaeyHgqagks+o6AOUPRaT0EbcMlhykmLhaLXIAo6G4aLEihoIRTdKlNSNVzUmIIehKLfZgrqhIseoZycolD0e56CRuCisZSzBYoB9ShoIS5aQjlToBgQkUY5u3HRbsrpDcWINZTjicMFBdyUUweKEeMpqDYuuIlyzoZDMaIrBbXDBd0oZxUUQypRUD9cMIJyxkEx5ijljMcFcymnCxRjllDOAlyQSDkVoRjzAuVswnnhmRRzFIpBbSjnBM6rSjkroBhUnILicU47ynkfilGnKac2znmGcp6HYtTPlNMO58ygnAegGLWUcvrhnA2UcxsUoyZRznicc5xyykMxagjlLAAQRTnZ4VCM6kE5GwCUo5wkKIbdSjnbAdxMOV9DMaw85RwE8HfKmQ7FsPAcijkD4FHKGQ7FuL2UEw4Mo5ynoBj3A+UUASZSzqNQjPuOcsoDn1BONyjGfUk5tYDvKKcdFOM+pZzGwA7KaQbFuFmU0wY4TTkNoBg3lXL+gQIUVAuKcRMo51FUpKCKUIx7hXIGohEFlYRi3IuUMxz3UlAsFOMGUc54PE5BYVCMe4JypmA4BUVDMa4v5czBJAoqDMW4QZTzBWZSUEkoxr1AOWvwHwoqD8W40ZSTiHkUVBWKca9Tzl4soqAboRj3LuWkYCkF3QzFuA8o5yyWUVATKMbNoZwT+IaCmkMx7jPKOYjVFHQ3FOOWUU4SNlBQVyjGraKc7dhEQQOgGJdIOVuQSEGvQTHuKOV8j+0UNAuKYZEeylmFXRS0EophZShoOfZS0HYohtWjoCU4SEGnoRh2DwUtwFFKKgjFqEco6D84SUlVoRg1jIJm4Cwl3Q7FqIkUNBmnKKkbFKPmUtAE7KekF6AYtYqCXsNWSpoNxahDFDQS6ylpCxSDClPSc/gvJWWEQzGmASUNwjyKqgrFmAcpqR+mUVR7KMa8QkmP4Q2KGgLFmIWU1BMjKGomFGO2U1JLDKKoH6EYEplNSdfjMYo664JiRA2KikM3yqoBxYgOlJQC3ENZj0IxYiQlJQJNKesDKEaspKSlQB3K2gXFgIgzlDQZqEhhpaHoV5eingOKUdg/oOjXl6J6AVEUNgGKfv+hqOYAjlPWT1D020tR1QBspCx3PBS9ylBWLIC5FNYail6dKeo4znmFwsZC0WsCRW3GOY9R2A4oeu2mqM9xTitKqwFFn1qU9Q7OqUJpg6HoM5SyhuKcSDeFrYaizwbKegDn7aUwdwkoelzroaw7cN43lNYLih69KawyzptGaQug6LGYsjwxOO95SjsTA0W7gumUtQMX3E9xbaFo15HCZuOCxhS3AIp2iylsEC64luKySkLRqpybwprjAlcaxT0NRauXKC0Bf9hKcVuhaBSeTGG7cdEiymsERZu2lDYPFz1PeVOhaPM5pQ3FRW0oLzUOihblciitDS4qRgs8DEWL4RRXAn/aRXkboWgQc4jSknHJbFqgBZTAPUVxi3DJQFpgBZSAxRykuBdxSVNaoQGUQPWjvL/jkoI5tMBCKAGKOUB5pfGX/9ECnhugBKYv5R3GZd6nFWZCCUj0Acpbgss8TitkV4QSiCdpgZdxmbq0xPtQAlD4EC3QAZeJTKcVPPWh5O0tWqECLreelljvgpKX+m5a4DCuMIHWeAhKHsJ/pBU+xBUeoDUOF4biXz9aohuuUJUWGQ/Fr9KnaQV3MVxpF62RXROKP5/QEutwlQm0yNdhUHz7O63xAq7SmlYZCsWnMkdpjfq4SvRZWiS7MRQfIlbRGr+7cLXPaJW9CVC8G02LzEQuj9Eyn0Lx6i4PLdIduZSjdZ6E4kXZY7SIuxhy20LLZNSDkkvEalplPbwYRescqQblauNpmRfhxa200J6yUK40kNa5BV6EH6eFthaDcrkHPLTM72Hw5mNa6fs4KH+5O5vWmQmvetBSK6Kh/KnRWVqoO7wq5qalFoRD+UPN47SQuzi8W0trTXNBOa98Mq20Hj4Mo8XGQzmnWhIt9SJ8uJ5WmxEJpf5RWutm+LKBVvs6Afldq1Raazt86kPLba+E/K17Fi02BD4lZNByRxsjP+vvocXcZeHbHFovvQvyLdcrtNxX8OMu2sAzFPlU8S9ovW7wI/wA7TAtGvlR42Ra72QB+DOGtthyI/Kfp7Npg/fg1/W0R8ZAF/KXhEW0RWP4t542WVkO+Un9JNriV+ThcdolpRvyjeiXMmmPochDkXTa5uMiyB+a76BN3OWQl9m0T3IL5AMlZ9I2/0We2tBOn1ZDiHP1PkH7dEeewg/QTlkTiyOU1VpNG50qgLy9QnudfCYGoaryBzm00xQEoJqHNtvTw4VQVGFKNu3VBIFYSNttvAMhp8zbmbTZDgSkER1gXedwhJJr3kin7YYhMN/RCfYMiEeoqPXuWdrPXQ6BuYf67Z/eo9c7iR6a4dT4CggBEZ2+oSN8hgC5/kddzi7tXxMXFGs/bmMOjcuZ2xBB7prn99MhGiNQ91Mz9w+j7ozC5Yr330IT/DjgWgSvxrMy6RTfIWARe6jJyfe7FIcXdScep3HuZb3iEYzqjt5JB7kLgetHTVLLwoeYAUdpgvS57aMQXOqO3klH2QwNYo9RkwXwKf6lVJrhxOQW0QgWdUfvpNN0gxbDqU1b+FZygpumOLu0//VwvJJdp+6h8+wKhxbFzlKTvQXhR5PdNMu+qZ2LwrHi7h63xUNHehzavEltXoM/habTPO71L99dHI5TsOmLq7LoVIdioE2FbGqSXRd+3XeMpto5q98tUXCIwncM/Girm072DLSaSW12xMGvittptsz1b3avHg5bFW/17NydHjrdyXhodaOH2nwI/xK+pYTM//3nuQ7VwmG56NrdRi7cx+AwGtotpEZjXfArahbFZGyeNbR9lTDEwgKRNf/x0rxtOQwe6ddAuxrZ1OijSPjlGk1Z6avqQdg1z8/5OYvB5h3o8Ra12lAN/o2jrGmQ5lrE4JNTEXoUP0mtzv4T/k2hqMYQF7+dQWcW9BlM7b4sDX/C5lDQVligxmkGm9rQJzqJ2h1vC38iv6Ccp2GF9h4Gl8XQqyt1cA+CP0X2UEpWCVhiBIPLrdDLtZ56TI+CH42zKeQTWMO1mMFkCfRrQl1WlYAfwyikDSxSeB+DR1Z1GPAJddl9HXwLW0kR+8JglS4MHq/DiMqZ1GVPRfhW+iglDId1VjFYHCsCQ8ZRn72V4Ns9FOCuAOvUdTNI9IExCcepz77K8O11mu8rWGkqg0NiOAzqT52Sy8GnqE00XWdY6ZpTDAotYFTkb9Rpcxx8qpZKkx2NgqX+xWCwCMZ1oF6fhcGnnjTZeFgrKonOl1kFJlhMvcbBtw9prpqw2GA632swQ5mT1Ks3fIrbQTOthdVKZNLpjsTDFI9Sr/Tq8OlvGTTRI7Dcx3S63jDJcuq1Jgw+9aN5UuNgudvocJvDYJLrzlCvAfBtEU0zBTbYSme7A6bpS73SqsCnosk0S0PYoB8dbT7M41pFvb5zwaemOTTHz7BDkTQ6WEYlmKhaOvXqC99eoDn6wxZL6GCjYapB1OtMJfjkep9myCwGWwygcx0qBFOFf0+9Vrrgk2sqTTAH9qhN5+oIk9XKpF594JtrCo1rCXu4jtCpPoTpXqBeqaXhm+s9GpXkgk0+pkPtKwzTRW6hXuPhh2syDXoBdnmEzuRpDgF1s6nT2eLww/UuDXGXg10q0JkmQMQo6jUS/rgm0YilsE8SnWh7AYiI+p46nYyHP64BGdSvI+zzOR0o5xYIue4EdRoCrwreiT/csJl6HYmEfV6lA42AmHYe6vN7LLy4dpPn5TBcEDXGTX2eg40eovP8GAk5r1Gnp5Bb2CqSSxPwh9uSqMf3EbBRAzpOek0IilhNfZKjkEtvnrc5AX+In0HtVifATvF0nIEQVfYo9emNXMqc5HkbCuGiDj9Tm6MDomGv/XSYb8Igq7WHuuwMRy4P8oJvw/GnVl8ycKdGxMNuy+gsp6+DtJepT3fk9jnPW43L3DAlnYE4+G6bKNhvMp3lYYgLX0ldfnYhlxJ7eU5rXKHEi0eYh62jG7jgCCPpKJ/BAqUOUZd7kVvdNHImrhbddvS3afTBvWZwNThGfzrJ0WtghTtzqMdGeNGdBxLgTWT9p+Yk8wpnNs/9d68mReEk99NJ7oM1nqMureDFa3fBt3LN7u7Y7aE+/Z8dPuLR20vDgVrTQd6CRVxfUo9vkbe/VUYu75WHY9Wjc3wdAasUT6YeTZGHsH+7uXVMY1zhJu6vhdyun9IL9qtAx0gqDus0zqQOXyIPY3nBtv4J+Ms0MqUprlJmag45AbaLpVOcqQMr9aQet8GvnvxT+gd1cVHxdJLpHXCFe1J43kTYzkOH6ARrDacOu+LgT8J0/mlbVVzUj+e5H8Nfwl7y8A/DYLccOsPLsNqH1OFd+NdmHy/4ojD+9A3/MByXlD3OPySWht0y6QiLXLBa1NfUoTX8K/jM7yTHhuGSZF40ORx/ap7D89YkwHbpdIJfCsF6Cduo3f4iyEPBfy1rh8v8xIuSyuGSp3jOkljY7wwd4EQV2KHiEWo3Exrdmc4LNpXCZaaRMyPgAKdpv5yWsEeDNGrXERrV38JzFhXC5aLXvu6CE6TQfgNhl44eana0CrSq/erSnrhKQTjDcdruA9jnaWq3pyxCyO+024Zo2OgdaretOELHYdrsYGnYKXwJtfsxHiHjAO2V0RD2ivuJ2n1bAKEimfbqBbuVSaZ2SyIRIvbQVi/DfnVOU7svEhAadtNO4+AEt52hdrtvQkj4jTZ6B85wZxq1S3sQoeBX2meGCw7RMp06TIpC8NtO28wOh2PclUkd1pdF0PuVdlkUAQdpm0UdTg6ORpDbQZt8FQ1H6ZBNPfZ0dyGo/UZ7fFMADvOPHOqy8TYEs99oi3VxcJzubuqzsCaC107aYVMROFBPN3Va/VBBBKldtMHPxeFIj3ioV+rUxghKu2m9HaXgUI/TgG2DaiD4JNFySeXgWH1pyOE5/7zBhaCyh1bbXwkONoBGHZ3Xt2kZF4LFXlrsSHU42mCaIX3bkgn929WuVLZE4ZgwONleWmtfTTjcY26aLOdsypF9O3/5acN3y79a8e3q9T9s/nn7zj37Dx87mZqe/QbstY+W2lIajtcxgxaaCHsl00rL4xEE7jhF67wNe+2nhWZGIijcdJiWmQR7HaB1RrkQJCrvpFUmw14HaZWcPgge1/xEi0yBvQ7RImfbIZjEf01rvA97HaI1jjZAcImeT0tMh70O0xI7qyDYhE2mFT6AvY7QChtKIAiNoAVmwl6/0wKfxyIoPeGmuFmw11HKmxyOINUlk9Jmw17HKG4YgleLVAqbC3sdp7CsBxHMbtpLWfNgr+OUldwEwa3EdxS1APY6QVGLiyHYRb5LSQthrxQKyv6XCyGgTxblfAZ7naScvQ0RGm7/nWIWw16nKGZRAkJFhc2UshT2Ok0hWQMQQmI/oZAvYa9Uyth9C0KK6+ksivgv7JVKEfOLINTc/BslLIe9zlBAZl+EoEIzKeBr2OsszbezHkLTA6k03QrYK42mmxuPUFXlB5rtK9grnSbL6IMQFjXWQ3Mtgb0yaK5fbkJoa3OIploIe2XSTOnDohDqEqbTTPNgr0yaaFkV5Aet99I8s2GvLJrmSA/kE3FveWiWj2CvbJrE814C8o+mv9Ik02GvHJrj51uRr8SMyaEppsBebpohbWgk8pubN9MMk2AvD03wVWXkQ+F9jtG4CbAXjTvcDflU0bdyaNR42ItGeSYXQf5140oa9CrsRYMSmyB/67SHhoyCrVw05OyQSOR3BV5MowEvwVZhNCD9jWugAOWn51C352GrcOqW+U4ZKH+oPttDnYbAVhHUKXtqBSh/qfMZ9RkEW0VSF/fMKlCu1HA59egPW0VSB8+c66HkdudaavckbBVF7T6tDcW7u1dTq8dhq2hqtbQeFN+aLPJQk0dhryxqsrwRFP9qTs+iBg/CXvupwXe3Q8lb2XGpDFgP2OtHBuybllACU2ToEQaoPey1kIE5ObEmlMBFd13uYSCqw15PMhCbeheEolHFEcnMU2YE7FWZeUqf0QCKHmF3zcuif2tgt0T6t2NgUSi6lXh6K/1pC7t1oB/ZC1q6oBjT6P1U+rIJ9ltDXw4MLwPFBHGPrKNXh6vBflWP0BvPso4RUMxSc9xR5nL8RjhBnRTmcnxcVSimiur0hZtXmHktnKHaCl4hZ0nnaCjmu7bnhwd40YHJDeEc3Vfm8KKU+Y+XgiKm4m1dBw5+5N6bXHCWYl2fGf/BhCG9GoRDURRFURRFURTFwf4fR4JTtCVMPyYAAAAASUVORK5CYII=;" vertex="1" parent="1">
                    <mxGeometry x="39" y="98" width="42" height="42" as="geometry"/>
                </mxCell>
                <mxCell id="131" value="github actions runner" style="shape=image;imageAspect=0;aspect=fixed;verticalLabelPosition=middle;verticalAlign=middle;image=data:image/png,iVBORw0KGgoAAAANSUhEUgAAAgAAAAIACAMAAADDpiTIAAAAA3NCSVQICAjb4U/gAAAACXBIWXMAAMinAADIpwFvdAvIAAAAGXRFWHRTb2Z0d2FyZQB3d3cuaW5rc2NhcGUub3Jnm+48GgAAAwBQTFRF////AAAAAAAAAAAAAAAAAAAAAAAAAAAAAAAAAAAAAAAAAAAAAAAAAAAAAAAAAAAAAAAAAAAAAAAAAAAAAAAAAAAAAAAAAAAAAAAAAAAAAAAAAAAAAAAAAAAAAAAAAAAAAAAAAAAAAAAAAAAAAAAAAAAAAAAAAAAAAAAAAAAAAAAAAAAAAAAAAAAAAAAAAAAAAAAAAAAAAAAAAAAAAAAAAAAAAAAAAAAAAAAAAAAAAAAAAAAAAAAAAAAAAAAAAAAAAAAAAAAAAAAAAAAAAAAAAAAAAAAAAAAAAAAAAAAAAAAAAAAAAAAAAAAAAAAAAAAAAAAAAAAAAAAAAAAAAAAAAAAAAAAAAAAAAAAAAAAAAAAAAAAAAAAAAAAAAAAAAAAAAAAAAAAAAAAAAAAAAAAAAAAAAAAAAAAAAAAAAAAAAAAAAAAAAAAAAAAAAAAAAAAAAAAAAAAAAAAAAAAAAAAAAAAAAAAAAAAAAAAAAAAAAAAAAAAAAAAAAAAAAAAAAAAAAAAAAAAAAAAAAAAAAAAAAAAAAAAAAAAAAAAAAAAAAAAAAAAAAAAAAAAAAAAAAAAAAAAAAAAAAAAAAAAAAAAAAAAAAAAAAAAAAAAAAAAAAAAAAAAAAAAAAAAAAAAAAAAAAAAAAAAAAAAAAAAAAAAAAAAAAAAAAAAAAAAAAAAAAAAAAAAAAAAAAAAAAAAAAAAAAAAAAAAAAAAAAAAAAAAAAAAAAAAAAAAAAAAAAAAAAAAAAAAAAAAAAAAAAAAAAAAAAAAAAAAAAAAAAAAAAAAAAAAAAAAAAAAAAAAAAAAAAAAAAAAAAAAAAAAAAAAAAAAAAAAAAAAAAAAAAAAAAAAAAAAAAAAAAAAAAAAAAAAAAAAAAAAAAAAAAAAAAAAAAAAAAAAAAAAAAAAAAAAAAAAAAAAAAAAAAAAAAAAAAAAAAAAAAAAAAAAAAAAAAAAAAAAAAAAAAAAAAAAAAAAAAAAAAAAAAAAAAAAAAAAAAAAAAAAAAAAAAAAAAAAAAAAAAAAACyO34QAAAP90Uk5TAAECAwQFBgcICQoLDA0ODxAREhMUFRYXGBkaGxwdHh8gISIjJCUmJygpKissLS4vMDEyMzQ1Njc4OTo7PD0+P0BBQkNERUZHSElKS0xNTk9QUVJTVFVWV1hZWltcXV5fYGFiY2RlZmdoaWprbG1ub3BxcnN0dXZ3eHl6e3x9fn+AgYKDhIWGh4iJiouMjY6PkJGSk5SVlpeYmZqbnJ2en6ChoqOkpaanqKmqq6ytrq+wsbKztLW2t7i5uru8vb6/wMHCw8TFxsfIycrLzM3Oz9DR0tPU1dbX2Nna29zd3t/g4eLj5OXm5+jp6uvs7e7v8PHy8/T19vf4+fr7/P3+6wjZNQAAHhNJREFUGBntwQmAjfX+BvDnzG6MYWzJml0SXZItLfbqIuLaSlr8yy1Cl0KL5JJCRSURSroIUaiupcWeEncKCYOxZhkMs5/z/JGEOefMeZfv+77nzO/zARRFURRFURRFUUKbq1Dp6jff2a5Hn8EvvzHpnbcnTnjzjdfHjX3t1TGjhvzz/ra331SpWCSUkBNXvdkDz05csCE51cM8pR3+9ftFEwd3u7V8BJTgVqTRwyOn//eXk9THvX/dnLFPdagVBSXYXNvsibdWHKQ5srfPf7lbnRgowaDE3f+ati6F5nP/tnDU/XUjoThW5M1PfrSTstJXv9qhFBTHKX3fa6vSaJGkj/veHAHFIaIbDZy7j1ZL+25Mu0JQbHZd1zc3ZNIu2d8OreeCYpOCbd/ZTdv9PqtnKSiWu37gsgw6xeYxzaKgWCau3aQ9dJgz87vGQbFAzaeXZ9KR0uZ3jYMiKa79u3vpZGnzu8ZBkVH44WWZdL60+V3joJgt6t5P0hks0ua0dEExj+v2904wuCQ9VwaKOWqP2ccglLO4fQQUo8o/m8igdXBUZSgGFH3sOw+DmmdFt2gouoS1W5jJEHDkheJQNIvvv4uhIm1SVSiaVJ2QylDi/rQJlEC5Wi3xMOSs7xQOJQCxj29laNr1ZEEoeajw6gmGruMvxEPx47b5OQxtx56JheJdZK+fmA8c6R8DJbfwXknMJ/b3iYJyJVeX7cxHkh6OgHKZtpuZz+zoEQblohbrmQ8lNodyXuOvmU8tqAil7hLmX+kjCyJ/qznPw3xtf3fkY5U+dDPfW1MP+VTsq1lUSPfUksiP2u6h8oeTA8KR35T7lMpfNt6IfCV8YCqVy2WNiEL+0XAzlav90hD5RJFJHiq5uV+PRX7Q4zAV73Y3R8irtpyKb1OLIKRFD8+g4s/BtghhjXZQycvbMQhRYcOyqeQt8QaEpDJfUwlI2uMIQe2PUwnUgqIIMTFvU9Eg+XaElBsSqWjiHhGO0NEnjYpWayogRBT9lIoOKfcgJNyeTEUX93MuBL3wl91U9FpQCEGu3BoqBvxSFUGt/iEqhpy8G0GsUxoVg9zDXAhWQzxUjJsfh6AUNZ2KKX6piiBU9BsqJkm5A0Gn6g4qpsnsgiBzx3EqJvIMRFB5KIuKuca7EDRco6mYbnY0gkSBeVQEfF0YQaHURioiEssiCJTdSUVIci04XrldVMSk3AaHK7+biqC0FnC0CklURKW3gYNdt4eKsIx74FgV91IRl9kODlVpHxULZHWEI1VOpmKJ7M5woCrJVCyS0w2OU3U/FcvkPACHqXaAioXcveAo1Q9SsZS7Exyk/EEqFstsAceIT6RiudRb4BARy6jY4Nj1cIb3qdgiuTycYBgVm2wvDvt181Cxy8ZCsFvTDCr2WRENe1U7TsVO88Nhp+I7qdjrHdgoZi0Vu/WFbVxzqdgupxXsMoaKA6TUgD0eo+IIvxWFHZrlUHGGFRGwXslDVJxiEizn+oqKc/SF1Z6l4iA5rWCtRtlUnCSlBqyUsIeKs/xaCBZaQMVpZsM6T1Bxnj6wyk0ZVJwnoy6sEfcrFSfaGQ9LfEjFmT6BFR6k4lRPQl6NM1ScKvNmSIvZQhO5U/bvyqBimt1FIGwizfPLE8UBhFVq89Tby/Z5mM94Dq75aMRDd9S//a5B22iaBZDVxEPTfFkQl4lt8sznJ5gvJM0f+8RdNWLwl7vO0iz9ICnyF5pmXSSu5qr1+McnGNLOLu1XDbk1T6dJ0mtA0DCaxtMAXkU0m7CPIerncS2j4d0gmmV9OMRUTadpPoZvdUfsZKhJ+eTRsvAt/iTNMgRiVtA8LeCPq/XCHIaQHx+Mhn9jaJbMWhDSk+Y5HoE8lBtxiKEhe+6tyFNNmubHCIgofpTmmYa8RXZeyeB3bHQ5BOIQTfMiRMygie5BQGq8mcKg9r9HCyAws2iarL9BQDOa6FQ0AhT7yCYGrcV3ImAP0zz/i4LpYnbQRLOgQfstDErbWkGDCjTRKJjuZZqpI7Rw/WMbg86pgZHQZCfNk3MLTFYziyZKj4U24T13Mqh4pl0DjSbTRFujYCrXapppHTSL6L2PwWPDLdCsC830LEz1fzTVm9Ah+smDDA6HH3JBuxIemuhMOZjomhSaqgd0KfCvo3S+7HHx0GULzfQJTPQ2zVUVOsW/mkmHW1sbOo2nqVrCNJWzaKoTLuhWZSGd7MT/uaDXPTTV9iiYZRbN9V8Y0SKROqUd3Lp26cfvjBr8WJfWDerUrnVDzRrVq1WtXKlixRub3NWl98Dh46fO/XLtjgzqlTO9JPQrlE1TPQuT1PHQXCNhSPg/j1GLrN3ffjSqz99rJyAwrlINuwx+e3HiaWqT+V4lGLKWpjpTDuZYQpO1g0EJb2YzAKc3TB903y3XuqBTwt/ufW7eLg8Dcvb1MjBoDM01D6ZoSrOVgmHXf0l/UtZMGdC6HEwR37TftJ8y6VfOVz0LwbCeNFkrmGENTbYPZrhnK73xbJ3Rt/m1MFtknV5vrNxPr1KXP1UKZqhPk/0aBePa0mzzYIqwjht4pQOfDmkWD0EF63QeNmPtMV5yMvGTp+qFwySFaLZnYVhYIs32DMxS7/m1Obzg1IrRHcrAIgkN2t97TusbCsFc+2iyU8Vg1AM0XWuYKLZGy1733VopDKHgK5ptPAyKSqLpboLi3Rs0W0YFGNOX5isLxbs+NN0HMCTuCM0XDcW7e2k6940w4nmaLxWKD41pviUwoNgpmm83FB+qUMDt0G8sBWyA4kMhClgH3RLOUsASKL6kU0BH6PUsJcyA4steCtgeDn0i91PCa1B8+YESekOf7hTxDBRf1lBCciR02UgRD0Px5VuKeAh6NKWMdlB8WUkR21zQYQFltITiyzLK6ADtKrkp4z4ovnxBGeuh3RsU8jAUXxZTyJ3QqvBpChkAxZdFFPIltHqaUoZD8WU5pfwN2oTvoZTXofjyA6XMhjadKWYaFF92UUpOZWiyjmLmQ/HlBMW8Cy0aUs5yKD643BSTUQoazKGcjVB8KExBIxC48jmUswOKD9dR0MFIBOwlCjoCxYcmlNQZgXLtpqAMKD48SEkrEahbKao0FO9GUlQNBOg9imoHxbvZFPUGAhNzkqJGQPHuB4pKiUVAOlPWF1C8O0VZDyMgn1PWUShelaCwjQhEiWwKqwDFmzsorT4C0I/SOkHxZiilTUMAfqC0V6B4s4TS0hKQp5oUtxyKF64TFNcXeRpNcSkuKLnVpLx1yEvYPsqrCiW3R2mBishDM1qgG5TcptMCQ5GHGbTAOCi5/UILJMK/2FRa4AMouZ2iFWrBrx60wkwoucTSEqPg11e0wkdQcqlMS+yGPwk5tMLHUHJpQGs0hB9daYk3oeRSitaYAD9m0hItoOR2kJY4HA6fwo7RCgcioeT2NK3RAj41oiU6QfEiOpGWmAafRtIKs6F4VeMMrXAsDL78RAtsjYPi3f20RCP4UIYWOF0Dii9TaIWR8OH/aIHOUHyK2UILbIIPiyhvHBQ/qp2mBUrDq+gzFPdtBBR/utICj8Cr1hR3sBQU/yZR3nx4NYHSsm+FkofoTRR3OhLe7KK0YVDyVD2T4prBixqUtiMKSt7GUNxYePE0pd0NJQCFDlLaNnixksI+hxKQByiuInKJz6KsjCpQAuJaS2lPIJdOFPZvKAG62U1h85HLJMpKLgglUFMp7Ahy2UJZXaEErORJCquKq8S7KeobKBr0p7CHcJVWlFUfigYR2ynrfVxlOEWtgqLJI5T1K66yjKI6QtEk5ghllcQVwk5TUlI4FG1epKwOuEIdihoARaMS6RQ1Dlf4JyWdjoei1XsU9T2u8BElvQlFs+s9lJQdi8slUZC7MhTtllBUM1zmWkpaCEWH5hT1Ai5zHyXdAUWPzZS0GJcZT0H7XVD0eIyS9uEy6ynobSi6lHRTUgIuicmioBZQ9PmGkm7DJU0p6EQEFH36UlJfXPIMBX0IRaeyHgqagks+o6AOUPRaT0EbcMlhykmLhaLXIAo6G4aLEihoIRTdKlNSNVzUmIIehKLfZgrqhIseoZycolD0e56CRuCisZSzBYoB9ShoIS5aQjlToBgQkUY5u3HRbsrpDcWINZTjicMFBdyUUweKEeMpqDYuuIlyzoZDMaIrBbXDBd0oZxUUQypRUD9cMIJyxkEx5ijljMcFcymnCxRjllDOAlyQSDkVoRjzAuVswnnhmRRzFIpBbSjnBM6rSjkroBhUnILicU47ynkfilGnKac2znmGcp6HYtTPlNMO58ygnAegGLWUcvrhnA2UcxsUoyZRznicc5xyykMxagjlLAAQRTnZ4VCM6kE5GwCUo5wkKIbdSjnbAdxMOV9DMaw85RwE8HfKmQ7FsPAcijkD4FHKGQ7FuL2UEw4Mo5ynoBj3A+UUASZSzqNQjPuOcsoDn1BONyjGfUk5tYDvKKcdFOM+pZzGwA7KaQbFuFmU0wY4TTkNoBg3lXL+gQIUVAuKcRMo51FUpKCKUIx7hXIGohEFlYRi3IuUMxz3UlAsFOMGUc54PE5BYVCMe4JypmA4BUVDMa4v5czBJAoqDMW4QZTzBWZSUEkoxr1AOWvwHwoqD8W40ZSTiHkUVBWKca9Tzl4soqAboRj3LuWkYCkF3QzFuA8o5yyWUVATKMbNoZwT+IaCmkMx7jPKOYjVFHQ3FOOWUU4SNlBQVyjGraKc7dhEQQOgGJdIOVuQSEGvQTHuKOV8j+0UNAuKYZEeylmFXRS0EophZShoOfZS0HYohtWjoCU4SEGnoRh2DwUtwFFKKgjFqEco6D84SUlVoRg1jIJm4Cwl3Q7FqIkUNBmnKKkbFKPmUtAE7KekF6AYtYqCXsNWSpoNxahDFDQS6ylpCxSDClPSc/gvJWWEQzGmASUNwjyKqgrFmAcpqR+mUVR7KMa8QkmP4Q2KGgLFmIWU1BMjKGomFGO2U1JLDKKoH6EYEplNSdfjMYo664JiRA2KikM3yqoBxYgOlJQC3ENZj0IxYiQlJQJNKesDKEaspKSlQB3K2gXFgIgzlDQZqEhhpaHoV5eingOKUdg/oOjXl6J6AVEUNgGKfv+hqOYAjlPWT1D020tR1QBspCx3PBS9ylBWLIC5FNYail6dKeo4znmFwsZC0WsCRW3GOY9R2A4oeu2mqM9xTitKqwFFn1qU9Q7OqUJpg6HoM5SyhuKcSDeFrYaizwbKegDn7aUwdwkoelzroaw7cN43lNYLih69KawyzptGaQug6LGYsjwxOO95SjsTA0W7gumUtQMX3E9xbaFo15HCZuOCxhS3AIp2iylsEC64luKySkLRqpybwprjAlcaxT0NRauXKC0Bf9hKcVuhaBSeTGG7cdEiymsERZu2lDYPFz1PeVOhaPM5pQ3FRW0oLzUOihblciitDS4qRgs8DEWL4RRXAn/aRXkboWgQc4jSknHJbFqgBZTAPUVxi3DJQFpgBZSAxRykuBdxSVNaoQGUQPWjvL/jkoI5tMBCKAGKOUB5pfGX/9ECnhugBKYv5R3GZd6nFWZCCUj0Acpbgss8TitkV4QSiCdpgZdxmbq0xPtQAlD4EC3QAZeJTKcVPPWh5O0tWqECLreelljvgpKX+m5a4DCuMIHWeAhKHsJ/pBU+xBUeoDUOF4biXz9aohuuUJUWGQ/Fr9KnaQV3MVxpF62RXROKP5/QEutwlQm0yNdhUHz7O63xAq7SmlYZCsWnMkdpjfq4SvRZWiS7MRQfIlbRGr+7cLXPaJW9CVC8G02LzEQuj9Eyn0Lx6i4PLdIduZSjdZ6E4kXZY7SIuxhy20LLZNSDkkvEalplPbwYRescqQblauNpmRfhxa200J6yUK40kNa5BV6EH6eFthaDcrkHPLTM72Hw5mNa6fs4KH+5O5vWmQmvetBSK6Kh/KnRWVqoO7wq5qalFoRD+UPN47SQuzi8W0trTXNBOa98Mq20Hj4Mo8XGQzmnWhIt9SJ8uJ5WmxEJpf5RWutm+LKBVvs6Afldq1Raazt86kPLba+E/K17Fi02BD4lZNByRxsjP+vvocXcZeHbHFovvQvyLdcrtNxX8OMu2sAzFPlU8S9ovW7wI/wA7TAtGvlR42Ra72QB+DOGtthyI/Kfp7Npg/fg1/W0R8ZAF/KXhEW0RWP4t542WVkO+Un9JNriV+ThcdolpRvyjeiXMmmPochDkXTa5uMiyB+a76BN3OWQl9m0T3IL5AMlZ9I2/0We2tBOn1ZDiHP1PkH7dEeewg/QTlkTiyOU1VpNG50qgLy9QnudfCYGoaryBzm00xQEoJqHNtvTw4VQVGFKNu3VBIFYSNttvAMhp8zbmbTZDgSkER1gXedwhJJr3kin7YYhMN/RCfYMiEeoqPXuWdrPXQ6BuYf67Z/eo9c7iR6a4dT4CggBEZ2+oSN8hgC5/kddzi7tXxMXFGs/bmMOjcuZ2xBB7prn99MhGiNQ91Mz9w+j7ozC5Yr330IT/DjgWgSvxrMy6RTfIWARe6jJyfe7FIcXdScep3HuZb3iEYzqjt5JB7kLgetHTVLLwoeYAUdpgvS57aMQXOqO3klH2QwNYo9RkwXwKf6lVJrhxOQW0QgWdUfvpNN0gxbDqU1b+FZygpumOLu0//VwvJJdp+6h8+wKhxbFzlKTvQXhR5PdNMu+qZ2LwrHi7h63xUNHehzavEltXoM/habTPO71L99dHI5TsOmLq7LoVIdioE2FbGqSXRd+3XeMpto5q98tUXCIwncM/Girm072DLSaSW12xMGvittptsz1b3avHg5bFW/17NydHjrdyXhodaOH2nwI/xK+pYTM//3nuQ7VwmG56NrdRi7cx+AwGtotpEZjXfArahbFZGyeNbR9lTDEwgKRNf/x0rxtOQwe6ddAuxrZ1OijSPjlGk1Z6avqQdg1z8/5OYvB5h3o8Ra12lAN/o2jrGmQ5lrE4JNTEXoUP0mtzv4T/k2hqMYQF7+dQWcW9BlM7b4sDX/C5lDQVligxmkGm9rQJzqJ2h1vC38iv6Ccp2GF9h4Gl8XQqyt1cA+CP0X2UEpWCVhiBIPLrdDLtZ56TI+CH42zKeQTWMO1mMFkCfRrQl1WlYAfwyikDSxSeB+DR1Z1GPAJddl9HXwLW0kR+8JglS4MHq/DiMqZ1GVPRfhW+iglDId1VjFYHCsCQ8ZRn72V4Ns9FOCuAOvUdTNI9IExCcepz77K8O11mu8rWGkqg0NiOAzqT52Sy8GnqE00XWdY6ZpTDAotYFTkb9Rpcxx8qpZKkx2NgqX+xWCwCMZ1oF6fhcGnnjTZeFgrKonOl1kFJlhMvcbBtw9prpqw2GA632swQ5mT1Ks3fIrbQTOthdVKZNLpjsTDFI9Sr/Tq8OlvGTTRI7Dcx3S63jDJcuq1Jgw+9aN5UuNgudvocJvDYJLrzlCvAfBtEU0zBTbYSme7A6bpS73SqsCnosk0S0PYoB8dbT7M41pFvb5zwaemOTTHz7BDkTQ6WEYlmKhaOvXqC99eoDn6wxZL6GCjYapB1OtMJfjkep9myCwGWwygcx0qBFOFf0+9Vrrgk2sqTTAH9qhN5+oIk9XKpF594JtrCo1rCXu4jtCpPoTpXqBeqaXhm+s9GpXkgk0+pkPtKwzTRW6hXuPhh2syDXoBdnmEzuRpDgF1s6nT2eLww/UuDXGXg10q0JkmQMQo6jUS/rgm0YilsE8SnWh7AYiI+p46nYyHP64BGdSvI+zzOR0o5xYIue4EdRoCrwreiT/csJl6HYmEfV6lA42AmHYe6vN7LLy4dpPn5TBcEDXGTX2eg40eovP8GAk5r1Gnp5Bb2CqSSxPwh9uSqMf3EbBRAzpOek0IilhNfZKjkEtvnrc5AX+In0HtVifATvF0nIEQVfYo9emNXMqc5HkbCuGiDj9Tm6MDomGv/XSYb8Igq7WHuuwMRy4P8oJvw/GnVl8ycKdGxMNuy+gsp6+DtJepT3fk9jnPW43L3DAlnYE4+G6bKNhvMp3lYYgLX0ldfnYhlxJ7eU5rXKHEi0eYh62jG7jgCCPpKJ/BAqUOUZd7kVvdNHImrhbddvS3afTBvWZwNThGfzrJ0WtghTtzqMdGeNGdBxLgTWT9p+Yk8wpnNs/9d68mReEk99NJ7oM1nqMureDFa3fBt3LN7u7Y7aE+/Z8dPuLR20vDgVrTQd6CRVxfUo9vkbe/VUYu75WHY9Wjc3wdAasUT6YeTZGHsH+7uXVMY1zhJu6vhdyun9IL9qtAx0gqDus0zqQOXyIPY3nBtv4J+Ms0MqUprlJmag45AbaLpVOcqQMr9aQet8GvnvxT+gd1cVHxdJLpHXCFe1J43kTYzkOH6ARrDacOu+LgT8J0/mlbVVzUj+e5H8Nfwl7y8A/DYLccOsPLsNqH1OFd+NdmHy/4ojD+9A3/MByXlD3OPySWht0y6QiLXLBa1NfUoTX8K/jM7yTHhuGSZF40ORx/ap7D89YkwHbpdIJfCsF6Cduo3f4iyEPBfy1rh8v8xIuSyuGSp3jOkljY7wwd4EQV2KHiEWo3Exrdmc4LNpXCZaaRMyPgAKdpv5yWsEeDNGrXERrV38JzFhXC5aLXvu6CE6TQfgNhl44eana0CrSq/erSnrhKQTjDcdruA9jnaWq3pyxCyO+024Zo2OgdaretOELHYdrsYGnYKXwJtfsxHiHjAO2V0RD2ivuJ2n1bAKEimfbqBbuVSaZ2SyIRIvbQVi/DfnVOU7svEhAadtNO4+AEt52hdrtvQkj4jTZ6B85wZxq1S3sQoeBX2meGCw7RMp06TIpC8NtO28wOh2PclUkd1pdF0PuVdlkUAQdpm0UdTg6ORpDbQZt8FQ1H6ZBNPfZ0dyGo/UZ7fFMADvOPHOqy8TYEs99oi3VxcJzubuqzsCaC107aYVMROFBPN3Va/VBBBKldtMHPxeFIj3ioV+rUxghKu2m9HaXgUI/TgG2DaiD4JNFySeXgWH1pyOE5/7zBhaCyh1bbXwkONoBGHZ3Xt2kZF4LFXlrsSHU42mCaIX3bkgn929WuVLZE4ZgwONleWmtfTTjcY26aLOdsypF9O3/5acN3y79a8e3q9T9s/nn7zj37Dx87mZqe/QbstY+W2lIajtcxgxaaCHsl00rL4xEE7jhF67wNe+2nhWZGIijcdJiWmQR7HaB1RrkQJCrvpFUmw14HaZWcPgge1/xEi0yBvQ7RImfbIZjEf01rvA97HaI1jjZAcImeT0tMh70O0xI7qyDYhE2mFT6AvY7QChtKIAiNoAVmwl6/0wKfxyIoPeGmuFmw11HKmxyOINUlk9Jmw17HKG4YgleLVAqbC3sdp7CsBxHMbtpLWfNgr+OUldwEwa3EdxS1APY6QVGLiyHYRb5LSQthrxQKyv6XCyGgTxblfAZ7naScvQ0RGm7/nWIWw16nKGZRAkJFhc2UshT2Ok0hWQMQQmI/oZAvYa9Uyth9C0KK6+ksivgv7JVKEfOLINTc/BslLIe9zlBAZl+EoEIzKeBr2OsszbezHkLTA6k03QrYK42mmxuPUFXlB5rtK9grnSbL6IMQFjXWQ3Mtgb0yaK5fbkJoa3OIploIe2XSTOnDohDqEqbTTPNgr0yaaFkV5Aet99I8s2GvLJrmSA/kE3FveWiWj2CvbJrE814C8o+mv9Ik02GvHJrj51uRr8SMyaEppsBebpohbWgk8pubN9MMk2AvD03wVWXkQ+F9jtG4CbAXjTvcDflU0bdyaNR42ItGeSYXQf5140oa9CrsRYMSmyB/67SHhoyCrVw05OyQSOR3BV5MowEvwVZhNCD9jWugAOWn51C352GrcOqW+U4ZKH+oPttDnYbAVhHUKXtqBSh/qfMZ9RkEW0VSF/fMKlCu1HA59egPW0VSB8+c66HkdudaavckbBVF7T6tDcW7u1dTq8dhq2hqtbQeFN+aLPJQk0dhryxqsrwRFP9qTs+iBg/CXvupwXe3Q8lb2XGpDFgP2OtHBuybllACU2ToEQaoPey1kIE5ObEmlMBFd13uYSCqw15PMhCbeheEolHFEcnMU2YE7FWZeUqf0QCKHmF3zcuif2tgt0T6t2NgUSi6lXh6K/1pC7t1oB/ZC1q6oBjT6P1U+rIJ9ltDXw4MLwPFBHGPrKNXh6vBflWP0BvPso4RUMxSc9xR5nL8RjhBnRTmcnxcVSimiur0hZtXmHktnKHaCl4hZ0nnaCjmu7bnhwd40YHJDeEc3Vfm8KKU+Y+XgiKm4m1dBw5+5N6bXHCWYl2fGf/BhCG9GoRDURRFURRFURTFwf4fR4JTtCVMPyYAAAAASUVORK5CYII=;labelPosition=right;align=left;" vertex="1" parent="1">
                    <mxGeometry x="248" y="56" width="42" height="42" as="geometry"/>
                </mxCell>
                <mxCell id="132" value="github actions runner" style="shape=image;imageAspect=0;aspect=fixed;verticalLabelPosition=middle;verticalAlign=middle;image=data:image/png,iVBORw0KGgoAAAANSUhEUgAAAgAAAAIACAMAAADDpiTIAAAAA3NCSVQICAjb4U/gAAAACXBIWXMAAMinAADIpwFvdAvIAAAAGXRFWHRTb2Z0d2FyZQB3d3cuaW5rc2NhcGUub3Jnm+48GgAAAwBQTFRF////AAAAAAAAAAAAAAAAAAAAAAAAAAAAAAAAAAAAAAAAAAAAAAAAAAAAAAAAAAAAAAAAAAAAAAAAAAAAAAAAAAAAAAAAAAAAAAAAAAAAAAAAAAAAAAAAAAAAAAAAAAAAAAAAAAAAAAAAAAAAAAAAAAAAAAAAAAAAAAAAAAAAAAAAAAAAAAAAAAAAAAAAAAAAAAAAAAAAAAAAAAAAAAAAAAAAAAAAAAAAAAAAAAAAAAAAAAAAAAAAAAAAAAAAAAAAAAAAAAAAAAAAAAAAAAAAAAAAAAAAAAAAAAAAAAAAAAAAAAAAAAAAAAAAAAAAAAAAAAAAAAAAAAAAAAAAAAAAAAAAAAAAAAAAAAAAAAAAAAAAAAAAAAAAAAAAAAAAAAAAAAAAAAAAAAAAAAAAAAAAAAAAAAAAAAAAAAAAAAAAAAAAAAAAAAAAAAAAAAAAAAAAAAAAAAAAAAAAAAAAAAAAAAAAAAAAAAAAAAAAAAAAAAAAAAAAAAAAAAAAAAAAAAAAAAAAAAAAAAAAAAAAAAAAAAAAAAAAAAAAAAAAAAAAAAAAAAAAAAAAAAAAAAAAAAAAAAAAAAAAAAAAAAAAAAAAAAAAAAAAAAAAAAAAAAAAAAAAAAAAAAAAAAAAAAAAAAAAAAAAAAAAAAAAAAAAAAAAAAAAAAAAAAAAAAAAAAAAAAAAAAAAAAAAAAAAAAAAAAAAAAAAAAAAAAAAAAAAAAAAAAAAAAAAAAAAAAAAAAAAAAAAAAAAAAAAAAAAAAAAAAAAAAAAAAAAAAAAAAAAAAAAAAAAAAAAAAAAAAAAAAAAAAAAAAAAAAAAAAAAAAAAAAAAAAAAAAAAAAAAAAAAAAAAAAAAAAAAAAAAAAAAAAAAAAAAAAAAAAAAAAAAAAAAAAAAAAAAAAAAAAAAAAAAAAAAAAAAAAAAAAAAAAAAAAAAAAAAAAAAAAAAAAAAAAAAAAAAAAAAAAAAAAAAAAAAAAAAAAAAAAAAAAAAAAAAAAAAAAAAAAAAAAAAAAAAAAAAAAAACyO34QAAAP90Uk5TAAECAwQFBgcICQoLDA0ODxAREhMUFRYXGBkaGxwdHh8gISIjJCUmJygpKissLS4vMDEyMzQ1Njc4OTo7PD0+P0BBQkNERUZHSElKS0xNTk9QUVJTVFVWV1hZWltcXV5fYGFiY2RlZmdoaWprbG1ub3BxcnN0dXZ3eHl6e3x9fn+AgYKDhIWGh4iJiouMjY6PkJGSk5SVlpeYmZqbnJ2en6ChoqOkpaanqKmqq6ytrq+wsbKztLW2t7i5uru8vb6/wMHCw8TFxsfIycrLzM3Oz9DR0tPU1dbX2Nna29zd3t/g4eLj5OXm5+jp6uvs7e7v8PHy8/T19vf4+fr7/P3+6wjZNQAAHhNJREFUGBntwQmAjfX+BvDnzG6MYWzJml0SXZItLfbqIuLaSlr8yy1Cl0KL5JJCRSURSroIUaiupcWeEncKCYOxZhkMs5/z/JGEOefMeZfv+77nzO/zARRFURRFURRFUUKbq1Dp6jff2a5Hn8EvvzHpnbcnTnjzjdfHjX3t1TGjhvzz/ra331SpWCSUkBNXvdkDz05csCE51cM8pR3+9ftFEwd3u7V8BJTgVqTRwyOn//eXk9THvX/dnLFPdagVBSXYXNvsibdWHKQ5srfPf7lbnRgowaDE3f+ati6F5nP/tnDU/XUjoThW5M1PfrSTstJXv9qhFBTHKX3fa6vSaJGkj/veHAHFIaIbDZy7j1ZL+25Mu0JQbHZd1zc3ZNIu2d8OreeCYpOCbd/ZTdv9PqtnKSiWu37gsgw6xeYxzaKgWCau3aQ9dJgz87vGQbFAzaeXZ9KR0uZ3jYMiKa79u3vpZGnzu8ZBkVH44WWZdL60+V3joJgt6t5P0hks0ua0dEExj+v2904wuCQ9VwaKOWqP2ccglLO4fQQUo8o/m8igdXBUZSgGFH3sOw+DmmdFt2gouoS1W5jJEHDkheJQNIvvv4uhIm1SVSiaVJ2QylDi/rQJlEC5Wi3xMOSs7xQOJQCxj29laNr1ZEEoeajw6gmGruMvxEPx47b5OQxtx56JheJdZK+fmA8c6R8DJbfwXknMJ/b3iYJyJVeX7cxHkh6OgHKZtpuZz+zoEQblohbrmQ8lNodyXuOvmU8tqAil7hLmX+kjCyJ/qznPw3xtf3fkY5U+dDPfW1MP+VTsq1lUSPfUksiP2u6h8oeTA8KR35T7lMpfNt6IfCV8YCqVy2WNiEL+0XAzlav90hD5RJFJHiq5uV+PRX7Q4zAV73Y3R8irtpyKb1OLIKRFD8+g4s/BtghhjXZQycvbMQhRYcOyqeQt8QaEpDJfUwlI2uMIQe2PUwnUgqIIMTFvU9Eg+XaElBsSqWjiHhGO0NEnjYpWayogRBT9lIoOKfcgJNyeTEUX93MuBL3wl91U9FpQCEGu3BoqBvxSFUGt/iEqhpy8G0GsUxoVg9zDXAhWQzxUjJsfh6AUNZ2KKX6piiBU9BsqJkm5A0Gn6g4qpsnsgiBzx3EqJvIMRFB5KIuKuca7EDRco6mYbnY0gkSBeVQEfF0YQaHURioiEssiCJTdSUVIci04XrldVMSk3AaHK7+biqC0FnC0CklURKW3gYNdt4eKsIx74FgV91IRl9kODlVpHxULZHWEI1VOpmKJ7M5woCrJVCyS0w2OU3U/FcvkPACHqXaAioXcveAo1Q9SsZS7Exyk/EEqFstsAceIT6RiudRb4BARy6jY4Nj1cIb3qdgiuTycYBgVm2wvDvt181Cxy8ZCsFvTDCr2WRENe1U7TsVO88Nhp+I7qdjrHdgoZi0Vu/WFbVxzqdgupxXsMoaKA6TUgD0eo+IIvxWFHZrlUHGGFRGwXslDVJxiEizn+oqKc/SF1Z6l4iA5rWCtRtlUnCSlBqyUsIeKs/xaCBZaQMVpZsM6T1Bxnj6wyk0ZVJwnoy6sEfcrFSfaGQ9LfEjFmT6BFR6k4lRPQl6NM1ScKvNmSIvZQhO5U/bvyqBimt1FIGwizfPLE8UBhFVq89Tby/Z5mM94Dq75aMRDd9S//a5B22iaBZDVxEPTfFkQl4lt8sznJ5gvJM0f+8RdNWLwl7vO0iz9ICnyF5pmXSSu5qr1+McnGNLOLu1XDbk1T6dJ0mtA0DCaxtMAXkU0m7CPIerncS2j4d0gmmV9OMRUTadpPoZvdUfsZKhJ+eTRsvAt/iTNMgRiVtA8LeCPq/XCHIaQHx+Mhn9jaJbMWhDSk+Y5HoE8lBtxiKEhe+6tyFNNmubHCIgofpTmmYa8RXZeyeB3bHQ5BOIQTfMiRMygie5BQGq8mcKg9r9HCyAws2iarL9BQDOa6FQ0AhT7yCYGrcV3ImAP0zz/i4LpYnbQRLOgQfstDErbWkGDCjTRKJjuZZqpI7Rw/WMbg86pgZHQZCfNk3MLTFYziyZKj4U24T13Mqh4pl0DjSbTRFujYCrXapppHTSL6L2PwWPDLdCsC830LEz1fzTVm9Ah+smDDA6HH3JBuxIemuhMOZjomhSaqgd0KfCvo3S+7HHx0GULzfQJTPQ2zVUVOsW/mkmHW1sbOo2nqVrCNJWzaKoTLuhWZSGd7MT/uaDXPTTV9iiYZRbN9V8Y0SKROqUd3Lp26cfvjBr8WJfWDerUrnVDzRrVq1WtXKlixRub3NWl98Dh46fO/XLtjgzqlTO9JPQrlE1TPQuT1PHQXCNhSPg/j1GLrN3ffjSqz99rJyAwrlINuwx+e3HiaWqT+V4lGLKWpjpTDuZYQpO1g0EJb2YzAKc3TB903y3XuqBTwt/ufW7eLg8Dcvb1MjBoDM01D6ZoSrOVgmHXf0l/UtZMGdC6HEwR37TftJ8y6VfOVz0LwbCeNFkrmGENTbYPZrhnK73xbJ3Rt/m1MFtknV5vrNxPr1KXP1UKZqhPk/0aBePa0mzzYIqwjht4pQOfDmkWD0EF63QeNmPtMV5yMvGTp+qFwySFaLZnYVhYIs32DMxS7/m1Obzg1IrRHcrAIgkN2t97TusbCsFc+2iyU8Vg1AM0XWuYKLZGy1733VopDKHgK5ptPAyKSqLpboLi3Rs0W0YFGNOX5isLxbs+NN0HMCTuCM0XDcW7e2k6940w4nmaLxWKD41pviUwoNgpmm83FB+qUMDt0G8sBWyA4kMhClgH3RLOUsASKL6kU0BH6PUsJcyA4steCtgeDn0i91PCa1B8+YESekOf7hTxDBRf1lBCciR02UgRD0Px5VuKeAh6NKWMdlB8WUkR21zQYQFltITiyzLK6ADtKrkp4z4ovnxBGeuh3RsU8jAUXxZTyJ3QqvBpChkAxZdFFPIltHqaUoZD8WU5pfwN2oTvoZTXofjyA6XMhjadKWYaFF92UUpOZWiyjmLmQ/HlBMW8Cy0aUs5yKD643BSTUQoazKGcjVB8KExBIxC48jmUswOKD9dR0MFIBOwlCjoCxYcmlNQZgXLtpqAMKD48SEkrEahbKao0FO9GUlQNBOg9imoHxbvZFPUGAhNzkqJGQPHuB4pKiUVAOlPWF1C8O0VZDyMgn1PWUShelaCwjQhEiWwKqwDFmzsorT4C0I/SOkHxZiilTUMAfqC0V6B4s4TS0hKQp5oUtxyKF64TFNcXeRpNcSkuKLnVpLx1yEvYPsqrCiW3R2mBishDM1qgG5TcptMCQ5GHGbTAOCi5/UILJMK/2FRa4AMouZ2iFWrBrx60wkwoucTSEqPg11e0wkdQcqlMS+yGPwk5tMLHUHJpQGs0hB9daYk3oeRSitaYAD9m0hItoOR2kJY4HA6fwo7RCgcioeT2NK3RAj41oiU6QfEiOpGWmAafRtIKs6F4VeMMrXAsDL78RAtsjYPi3f20RCP4UIYWOF0Dii9TaIWR8OH/aIHOUHyK2UILbIIPiyhvHBQ/qp2mBUrDq+gzFPdtBBR/utICj8Cr1hR3sBQU/yZR3nx4NYHSsm+FkofoTRR3OhLe7KK0YVDyVD2T4prBixqUtiMKSt7GUNxYePE0pd0NJQCFDlLaNnixksI+hxKQByiuInKJz6KsjCpQAuJaS2lPIJdOFPZvKAG62U1h85HLJMpKLgglUFMp7Ahy2UJZXaEErORJCquKq8S7KeobKBr0p7CHcJVWlFUfigYR2ynrfVxlOEWtgqLJI5T1K66yjKI6QtEk5ghllcQVwk5TUlI4FG1epKwOuEIdihoARaMS6RQ1Dlf4JyWdjoei1XsU9T2u8BElvQlFs+s9lJQdi8slUZC7MhTtllBUM1zmWkpaCEWH5hT1Ai5zHyXdAUWPzZS0GJcZT0H7XVD0eIyS9uEy6ynobSi6lHRTUgIuicmioBZQ9PmGkm7DJU0p6EQEFH36UlJfXPIMBX0IRaeyHgqagks+o6AOUPRaT0EbcMlhykmLhaLXIAo6G4aLEihoIRTdKlNSNVzUmIIehKLfZgrqhIseoZycolD0e56CRuCisZSzBYoB9ShoIS5aQjlToBgQkUY5u3HRbsrpDcWINZTjicMFBdyUUweKEeMpqDYuuIlyzoZDMaIrBbXDBd0oZxUUQypRUD9cMIJyxkEx5ijljMcFcymnCxRjllDOAlyQSDkVoRjzAuVswnnhmRRzFIpBbSjnBM6rSjkroBhUnILicU47ynkfilGnKac2znmGcp6HYtTPlNMO58ygnAegGLWUcvrhnA2UcxsUoyZRznicc5xyykMxagjlLAAQRTnZ4VCM6kE5GwCUo5wkKIbdSjnbAdxMOV9DMaw85RwE8HfKmQ7FsPAcijkD4FHKGQ7FuL2UEw4Mo5ynoBj3A+UUASZSzqNQjPuOcsoDn1BONyjGfUk5tYDvKKcdFOM+pZzGwA7KaQbFuFmU0wY4TTkNoBg3lXL+gQIUVAuKcRMo51FUpKCKUIx7hXIGohEFlYRi3IuUMxz3UlAsFOMGUc54PE5BYVCMe4JypmA4BUVDMa4v5czBJAoqDMW4QZTzBWZSUEkoxr1AOWvwHwoqD8W40ZSTiHkUVBWKca9Tzl4soqAboRj3LuWkYCkF3QzFuA8o5yyWUVATKMbNoZwT+IaCmkMx7jPKOYjVFHQ3FOOWUU4SNlBQVyjGraKc7dhEQQOgGJdIOVuQSEGvQTHuKOV8j+0UNAuKYZEeylmFXRS0EophZShoOfZS0HYohtWjoCU4SEGnoRh2DwUtwFFKKgjFqEco6D84SUlVoRg1jIJm4Cwl3Q7FqIkUNBmnKKkbFKPmUtAE7KekF6AYtYqCXsNWSpoNxahDFDQS6ylpCxSDClPSc/gvJWWEQzGmASUNwjyKqgrFmAcpqR+mUVR7KMa8QkmP4Q2KGgLFmIWU1BMjKGomFGO2U1JLDKKoH6EYEplNSdfjMYo664JiRA2KikM3yqoBxYgOlJQC3ENZj0IxYiQlJQJNKesDKEaspKSlQB3K2gXFgIgzlDQZqEhhpaHoV5eingOKUdg/oOjXl6J6AVEUNgGKfv+hqOYAjlPWT1D020tR1QBspCx3PBS9ylBWLIC5FNYail6dKeo4znmFwsZC0WsCRW3GOY9R2A4oeu2mqM9xTitKqwFFn1qU9Q7OqUJpg6HoM5SyhuKcSDeFrYaizwbKegDn7aUwdwkoelzroaw7cN43lNYLih69KawyzptGaQug6LGYsjwxOO95SjsTA0W7gumUtQMX3E9xbaFo15HCZuOCxhS3AIp2iylsEC64luKySkLRqpybwprjAlcaxT0NRauXKC0Bf9hKcVuhaBSeTGG7cdEiymsERZu2lDYPFz1PeVOhaPM5pQ3FRW0oLzUOihblciitDS4qRgs8DEWL4RRXAn/aRXkboWgQc4jSknHJbFqgBZTAPUVxi3DJQFpgBZSAxRykuBdxSVNaoQGUQPWjvL/jkoI5tMBCKAGKOUB5pfGX/9ECnhugBKYv5R3GZd6nFWZCCUj0Acpbgss8TitkV4QSiCdpgZdxmbq0xPtQAlD4EC3QAZeJTKcVPPWh5O0tWqECLreelljvgpKX+m5a4DCuMIHWeAhKHsJ/pBU+xBUeoDUOF4biXz9aohuuUJUWGQ/Fr9KnaQV3MVxpF62RXROKP5/QEutwlQm0yNdhUHz7O63xAq7SmlYZCsWnMkdpjfq4SvRZWiS7MRQfIlbRGr+7cLXPaJW9CVC8G02LzEQuj9Eyn0Lx6i4PLdIduZSjdZ6E4kXZY7SIuxhy20LLZNSDkkvEalplPbwYRescqQblauNpmRfhxa200J6yUK40kNa5BV6EH6eFthaDcrkHPLTM72Hw5mNa6fs4KH+5O5vWmQmvetBSK6Kh/KnRWVqoO7wq5qalFoRD+UPN47SQuzi8W0trTXNBOa98Mq20Hj4Mo8XGQzmnWhIt9SJ8uJ5WmxEJpf5RWutm+LKBVvs6Afldq1Raazt86kPLba+E/K17Fi02BD4lZNByRxsjP+vvocXcZeHbHFovvQvyLdcrtNxX8OMu2sAzFPlU8S9ovW7wI/wA7TAtGvlR42Ra72QB+DOGtthyI/Kfp7Npg/fg1/W0R8ZAF/KXhEW0RWP4t542WVkO+Un9JNriV+ThcdolpRvyjeiXMmmPochDkXTa5uMiyB+a76BN3OWQl9m0T3IL5AMlZ9I2/0We2tBOn1ZDiHP1PkH7dEeewg/QTlkTiyOU1VpNG50qgLy9QnudfCYGoaryBzm00xQEoJqHNtvTw4VQVGFKNu3VBIFYSNttvAMhp8zbmbTZDgSkER1gXedwhJJr3kin7YYhMN/RCfYMiEeoqPXuWdrPXQ6BuYf67Z/eo9c7iR6a4dT4CggBEZ2+oSN8hgC5/kddzi7tXxMXFGs/bmMOjcuZ2xBB7prn99MhGiNQ91Mz9w+j7ozC5Yr330IT/DjgWgSvxrMy6RTfIWARe6jJyfe7FIcXdScep3HuZb3iEYzqjt5JB7kLgetHTVLLwoeYAUdpgvS57aMQXOqO3klH2QwNYo9RkwXwKf6lVJrhxOQW0QgWdUfvpNN0gxbDqU1b+FZygpumOLu0//VwvJJdp+6h8+wKhxbFzlKTvQXhR5PdNMu+qZ2LwrHi7h63xUNHehzavEltXoM/habTPO71L99dHI5TsOmLq7LoVIdioE2FbGqSXRd+3XeMpto5q98tUXCIwncM/Girm072DLSaSW12xMGvittptsz1b3avHg5bFW/17NydHjrdyXhodaOH2nwI/xK+pYTM//3nuQ7VwmG56NrdRi7cx+AwGtotpEZjXfArahbFZGyeNbR9lTDEwgKRNf/x0rxtOQwe6ddAuxrZ1OijSPjlGk1Z6avqQdg1z8/5OYvB5h3o8Ra12lAN/o2jrGmQ5lrE4JNTEXoUP0mtzv4T/k2hqMYQF7+dQWcW9BlM7b4sDX/C5lDQVligxmkGm9rQJzqJ2h1vC38iv6Ccp2GF9h4Gl8XQqyt1cA+CP0X2UEpWCVhiBIPLrdDLtZ56TI+CH42zKeQTWMO1mMFkCfRrQl1WlYAfwyikDSxSeB+DR1Z1GPAJddl9HXwLW0kR+8JglS4MHq/DiMqZ1GVPRfhW+iglDId1VjFYHCsCQ8ZRn72V4Ns9FOCuAOvUdTNI9IExCcepz77K8O11mu8rWGkqg0NiOAzqT52Sy8GnqE00XWdY6ZpTDAotYFTkb9Rpcxx8qpZKkx2NgqX+xWCwCMZ1oF6fhcGnnjTZeFgrKonOl1kFJlhMvcbBtw9prpqw2GA632swQ5mT1Ks3fIrbQTOthdVKZNLpjsTDFI9Sr/Tq8OlvGTTRI7Dcx3S63jDJcuq1Jgw+9aN5UuNgudvocJvDYJLrzlCvAfBtEU0zBTbYSme7A6bpS73SqsCnosk0S0PYoB8dbT7M41pFvb5zwaemOTTHz7BDkTQ6WEYlmKhaOvXqC99eoDn6wxZL6GCjYapB1OtMJfjkep9myCwGWwygcx0qBFOFf0+9Vrrgk2sqTTAH9qhN5+oIk9XKpF594JtrCo1rCXu4jtCpPoTpXqBeqaXhm+s9GpXkgk0+pkPtKwzTRW6hXuPhh2syDXoBdnmEzuRpDgF1s6nT2eLww/UuDXGXg10q0JkmQMQo6jUS/rgm0YilsE8SnWh7AYiI+p46nYyHP64BGdSvI+zzOR0o5xYIue4EdRoCrwreiT/csJl6HYmEfV6lA42AmHYe6vN7LLy4dpPn5TBcEDXGTX2eg40eovP8GAk5r1Gnp5Bb2CqSSxPwh9uSqMf3EbBRAzpOek0IilhNfZKjkEtvnrc5AX+In0HtVifATvF0nIEQVfYo9emNXMqc5HkbCuGiDj9Tm6MDomGv/XSYb8Igq7WHuuwMRy4P8oJvw/GnVl8ycKdGxMNuy+gsp6+DtJepT3fk9jnPW43L3DAlnYE4+G6bKNhvMp3lYYgLX0ldfnYhlxJ7eU5rXKHEi0eYh62jG7jgCCPpKJ/BAqUOUZd7kVvdNHImrhbddvS3afTBvWZwNThGfzrJ0WtghTtzqMdGeNGdBxLgTWT9p+Yk8wpnNs/9d68mReEk99NJ7oM1nqMureDFa3fBt3LN7u7Y7aE+/Z8dPuLR20vDgVrTQd6CRVxfUo9vkbe/VUYu75WHY9Wjc3wdAasUT6YeTZGHsH+7uXVMY1zhJu6vhdyun9IL9qtAx0gqDus0zqQOXyIPY3nBtv4J+Ms0MqUprlJmag45AbaLpVOcqQMr9aQet8GvnvxT+gd1cVHxdJLpHXCFe1J43kTYzkOH6ARrDacOu+LgT8J0/mlbVVzUj+e5H8Nfwl7y8A/DYLccOsPLsNqH1OFd+NdmHy/4ojD+9A3/MByXlD3OPySWht0y6QiLXLBa1NfUoTX8K/jM7yTHhuGSZF40ORx/ap7D89YkwHbpdIJfCsF6Cduo3f4iyEPBfy1rh8v8xIuSyuGSp3jOkljY7wwd4EQV2KHiEWo3Exrdmc4LNpXCZaaRMyPgAKdpv5yWsEeDNGrXERrV38JzFhXC5aLXvu6CE6TQfgNhl44eana0CrSq/erSnrhKQTjDcdruA9jnaWq3pyxCyO+024Zo2OgdaretOELHYdrsYGnYKXwJtfsxHiHjAO2V0RD2ivuJ2n1bAKEimfbqBbuVSaZ2SyIRIvbQVi/DfnVOU7svEhAadtNO4+AEt52hdrtvQkj4jTZ6B85wZxq1S3sQoeBX2meGCw7RMp06TIpC8NtO28wOh2PclUkd1pdF0PuVdlkUAQdpm0UdTg6ORpDbQZt8FQ1H6ZBNPfZ0dyGo/UZ7fFMADvOPHOqy8TYEs99oi3VxcJzubuqzsCaC107aYVMROFBPN3Va/VBBBKldtMHPxeFIj3ioV+rUxghKu2m9HaXgUI/TgG2DaiD4JNFySeXgWH1pyOE5/7zBhaCyh1bbXwkONoBGHZ3Xt2kZF4LFXlrsSHU42mCaIX3bkgn929WuVLZE4ZgwONleWmtfTTjcY26aLOdsypF9O3/5acN3y79a8e3q9T9s/nn7zj37Dx87mZqe/QbstY+W2lIajtcxgxaaCHsl00rL4xEE7jhF67wNe+2nhWZGIijcdJiWmQR7HaB1RrkQJCrvpFUmw14HaZWcPgge1/xEi0yBvQ7RImfbIZjEf01rvA97HaI1jjZAcImeT0tMh70O0xI7qyDYhE2mFT6AvY7QChtKIAiNoAVmwl6/0wKfxyIoPeGmuFmw11HKmxyOINUlk9Jmw17HKG4YgleLVAqbC3sdp7CsBxHMbtpLWfNgr+OUldwEwa3EdxS1APY6QVGLiyHYRb5LSQthrxQKyv6XCyGgTxblfAZ7naScvQ0RGm7/nWIWw16nKGZRAkJFhc2UshT2Ok0hWQMQQmI/oZAvYa9Uyth9C0KK6+ksivgv7JVKEfOLINTc/BslLIe9zlBAZl+EoEIzKeBr2OsszbezHkLTA6k03QrYK42mmxuPUFXlB5rtK9grnSbL6IMQFjXWQ3Mtgb0yaK5fbkJoa3OIploIe2XSTOnDohDqEqbTTPNgr0yaaFkV5Aet99I8s2GvLJrmSA/kE3FveWiWj2CvbJrE814C8o+mv9Ik02GvHJrj51uRr8SMyaEppsBebpohbWgk8pubN9MMk2AvD03wVWXkQ+F9jtG4CbAXjTvcDflU0bdyaNR42ItGeSYXQf5140oa9CrsRYMSmyB/67SHhoyCrVw05OyQSOR3BV5MowEvwVZhNCD9jWugAOWn51C352GrcOqW+U4ZKH+oPttDnYbAVhHUKXtqBSh/qfMZ9RkEW0VSF/fMKlCu1HA59egPW0VSB8+c66HkdudaavckbBVF7T6tDcW7u1dTq8dhq2hqtbQeFN+aLPJQk0dhryxqsrwRFP9qTs+iBg/CXvupwXe3Q8lb2XGpDFgP2OtHBuybllACU2ToEQaoPey1kIE5ObEmlMBFd13uYSCqw15PMhCbeheEolHFEcnMU2YE7FWZeUqf0QCKHmF3zcuif2tgt0T6t2NgUSi6lXh6K/1pC7t1oB/ZC1q6oBjT6P1U+rIJ9ltDXw4MLwPFBHGPrKNXh6vBflWP0BvPso4RUMxSc9xR5nL8RjhBnRTmcnxcVSimiur0hZtXmHktnKHaCl4hZ0nnaCjmu7bnhwd40YHJDeEc3Vfm8KKU+Y+XgiKm4m1dBw5+5N6bXHCWYl2fGf/BhCG9GoRDURRFURRFURTFwf4fR4JTtCVMPyYAAAAASUVORK5CYII=;labelPosition=right;align=left;" vertex="1" parent="1">
                    <mxGeometry x="1060" y="58" width="42" height="42" as="geometry"/>
                </mxCell>
                <mxCell id="133" value="" style="shape=image;imageAspect=0;aspect=fixed;verticalLabelPosition=bottom;verticalAlign=top;image=data:image/png,iVBORw0KGgoAAAANSUhEUgAAAgAAAAIACAMAAADDpiTIAAAAA3NCSVQICAjb4U/gAAAACXBIWXMAAMinAADIpwFvdAvIAAAAGXRFWHRTb2Z0d2FyZQB3d3cuaW5rc2NhcGUub3Jnm+48GgAAAwBQTFRF////AAAAAAAAAAAAAAAAAAAAAAAAAAAAAAAAAAAAAAAAAAAAAAAAAAAAAAAAAAAAAAAAAAAAAAAAAAAAAAAAAAAAAAAAAAAAAAAAAAAAAAAAAAAAAAAAAAAAAAAAAAAAAAAAAAAAAAAAAAAAAAAAAAAAAAAAAAAAAAAAAAAAAAAAAAAAAAAAAAAAAAAAAAAAAAAAAAAAAAAAAAAAAAAAAAAAAAAAAAAAAAAAAAAAAAAAAAAAAAAAAAAAAAAAAAAAAAAAAAAAAAAAAAAAAAAAAAAAAAAAAAAAAAAAAAAAAAAAAAAAAAAAAAAAAAAAAAAAAAAAAAAAAAAAAAAAAAAAAAAAAAAAAAAAAAAAAAAAAAAAAAAAAAAAAAAAAAAAAAAAAAAAAAAAAAAAAAAAAAAAAAAAAAAAAAAAAAAAAAAAAAAAAAAAAAAAAAAAAAAAAAAAAAAAAAAAAAAAAAAAAAAAAAAAAAAAAAAAAAAAAAAAAAAAAAAAAAAAAAAAAAAAAAAAAAAAAAAAAAAAAAAAAAAAAAAAAAAAAAAAAAAAAAAAAAAAAAAAAAAAAAAAAAAAAAAAAAAAAAAAAAAAAAAAAAAAAAAAAAAAAAAAAAAAAAAAAAAAAAAAAAAAAAAAAAAAAAAAAAAAAAAAAAAAAAAAAAAAAAAAAAAAAAAAAAAAAAAAAAAAAAAAAAAAAAAAAAAAAAAAAAAAAAAAAAAAAAAAAAAAAAAAAAAAAAAAAAAAAAAAAAAAAAAAAAAAAAAAAAAAAAAAAAAAAAAAAAAAAAAAAAAAAAAAAAAAAAAAAAAAAAAAAAAAAAAAAAAAAAAAAAAAAAAAAAAAAAAAAAAAAAAAAAAAAAAAAAAAAAAAAAAAAAAAAAAAAAAAAAAAAAAAAAAAAAAAAAAAAAAAAAAAAAAAAAAAAAAAAAAAAAAAAAAAAAAAAAAAAAAAAAAAAAAAAAAAAAAAAAAAAAAAAAAAAAAAAAAAAAAAAAAAAAAAAAAAAAAAAAAAAAAAAAAAAAAAAAAAAAAACyO34QAAAP90Uk5TAAECAwQFBgcICQoLDA0ODxAREhMUFRYXGBkaGxwdHh8gISIjJCUmJygpKissLS4vMDEyMzQ1Njc4OTo7PD0+P0BBQkNERUZHSElKS0xNTk9QUVJTVFVWV1hZWltcXV5fYGFiY2RlZmdoaWprbG1ub3BxcnN0dXZ3eHl6e3x9fn+AgYKDhIWGh4iJiouMjY6PkJGSk5SVlpeYmZqbnJ2en6ChoqOkpaanqKmqq6ytrq+wsbKztLW2t7i5uru8vb6/wMHCw8TFxsfIycrLzM3Oz9DR0tPU1dbX2Nna29zd3t/g4eLj5OXm5+jp6uvs7e7v8PHy8/T19vf4+fr7/P3+6wjZNQAAHhNJREFUGBntwQmAjfX+BvDnzG6MYWzJml0SXZItLfbqIuLaSlr8yy1Cl0KL5JJCRSURSroIUaiupcWeEncKCYOxZhkMs5/z/JGEOefMeZfv+77nzO/zARRFURRFURRFUUKbq1Dp6jff2a5Hn8EvvzHpnbcnTnjzjdfHjX3t1TGjhvzz/ra331SpWCSUkBNXvdkDz05csCE51cM8pR3+9ftFEwd3u7V8BJTgVqTRwyOn//eXk9THvX/dnLFPdagVBSXYXNvsibdWHKQ5srfPf7lbnRgowaDE3f+ati6F5nP/tnDU/XUjoThW5M1PfrSTstJXv9qhFBTHKX3fa6vSaJGkj/veHAHFIaIbDZy7j1ZL+25Mu0JQbHZd1zc3ZNIu2d8OreeCYpOCbd/ZTdv9PqtnKSiWu37gsgw6xeYxzaKgWCau3aQ9dJgz87vGQbFAzaeXZ9KR0uZ3jYMiKa79u3vpZGnzu8ZBkVH44WWZdL60+V3joJgt6t5P0hks0ua0dEExj+v2904wuCQ9VwaKOWqP2ccglLO4fQQUo8o/m8igdXBUZSgGFH3sOw+DmmdFt2gouoS1W5jJEHDkheJQNIvvv4uhIm1SVSiaVJ2QylDi/rQJlEC5Wi3xMOSs7xQOJQCxj29laNr1ZEEoeajw6gmGruMvxEPx47b5OQxtx56JheJdZK+fmA8c6R8DJbfwXknMJ/b3iYJyJVeX7cxHkh6OgHKZtpuZz+zoEQblohbrmQ8lNodyXuOvmU8tqAil7hLmX+kjCyJ/qznPw3xtf3fkY5U+dDPfW1MP+VTsq1lUSPfUksiP2u6h8oeTA8KR35T7lMpfNt6IfCV8YCqVy2WNiEL+0XAzlav90hD5RJFJHiq5uV+PRX7Q4zAV73Y3R8irtpyKb1OLIKRFD8+g4s/BtghhjXZQycvbMQhRYcOyqeQt8QaEpDJfUwlI2uMIQe2PUwnUgqIIMTFvU9Eg+XaElBsSqWjiHhGO0NEnjYpWayogRBT9lIoOKfcgJNyeTEUX93MuBL3wl91U9FpQCEGu3BoqBvxSFUGt/iEqhpy8G0GsUxoVg9zDXAhWQzxUjJsfh6AUNZ2KKX6piiBU9BsqJkm5A0Gn6g4qpsnsgiBzx3EqJvIMRFB5KIuKuca7EDRco6mYbnY0gkSBeVQEfF0YQaHURioiEssiCJTdSUVIci04XrldVMSk3AaHK7+biqC0FnC0CklURKW3gYNdt4eKsIx74FgV91IRl9kODlVpHxULZHWEI1VOpmKJ7M5woCrJVCyS0w2OU3U/FcvkPACHqXaAioXcveAo1Q9SsZS7Exyk/EEqFstsAceIT6RiudRb4BARy6jY4Nj1cIb3qdgiuTycYBgVm2wvDvt181Cxy8ZCsFvTDCr2WRENe1U7TsVO88Nhp+I7qdjrHdgoZi0Vu/WFbVxzqdgupxXsMoaKA6TUgD0eo+IIvxWFHZrlUHGGFRGwXslDVJxiEizn+oqKc/SF1Z6l4iA5rWCtRtlUnCSlBqyUsIeKs/xaCBZaQMVpZsM6T1Bxnj6wyk0ZVJwnoy6sEfcrFSfaGQ9LfEjFmT6BFR6k4lRPQl6NM1ScKvNmSIvZQhO5U/bvyqBimt1FIGwizfPLE8UBhFVq89Tby/Z5mM94Dq75aMRDd9S//a5B22iaBZDVxEPTfFkQl4lt8sznJ5gvJM0f+8RdNWLwl7vO0iz9ICnyF5pmXSSu5qr1+McnGNLOLu1XDbk1T6dJ0mtA0DCaxtMAXkU0m7CPIerncS2j4d0gmmV9OMRUTadpPoZvdUfsZKhJ+eTRsvAt/iTNMgRiVtA8LeCPq/XCHIaQHx+Mhn9jaJbMWhDSk+Y5HoE8lBtxiKEhe+6tyFNNmubHCIgofpTmmYa8RXZeyeB3bHQ5BOIQTfMiRMygie5BQGq8mcKg9r9HCyAws2iarL9BQDOa6FQ0AhT7yCYGrcV3ImAP0zz/i4LpYnbQRLOgQfstDErbWkGDCjTRKJjuZZqpI7Rw/WMbg86pgZHQZCfNk3MLTFYziyZKj4U24T13Mqh4pl0DjSbTRFujYCrXapppHTSL6L2PwWPDLdCsC830LEz1fzTVm9Ah+smDDA6HH3JBuxIemuhMOZjomhSaqgd0KfCvo3S+7HHx0GULzfQJTPQ2zVUVOsW/mkmHW1sbOo2nqVrCNJWzaKoTLuhWZSGd7MT/uaDXPTTV9iiYZRbN9V8Y0SKROqUd3Lp26cfvjBr8WJfWDerUrnVDzRrVq1WtXKlixRub3NWl98Dh46fO/XLtjgzqlTO9JPQrlE1TPQuT1PHQXCNhSPg/j1GLrN3ffjSqz99rJyAwrlINuwx+e3HiaWqT+V4lGLKWpjpTDuZYQpO1g0EJb2YzAKc3TB903y3XuqBTwt/ufW7eLg8Dcvb1MjBoDM01D6ZoSrOVgmHXf0l/UtZMGdC6HEwR37TftJ8y6VfOVz0LwbCeNFkrmGENTbYPZrhnK73xbJ3Rt/m1MFtknV5vrNxPr1KXP1UKZqhPk/0aBePa0mzzYIqwjht4pQOfDmkWD0EF63QeNmPtMV5yMvGTp+qFwySFaLZnYVhYIs32DMxS7/m1Obzg1IrRHcrAIgkN2t97TusbCsFc+2iyU8Vg1AM0XWuYKLZGy1733VopDKHgK5ptPAyKSqLpboLi3Rs0W0YFGNOX5isLxbs+NN0HMCTuCM0XDcW7e2k6940w4nmaLxWKD41pviUwoNgpmm83FB+qUMDt0G8sBWyA4kMhClgH3RLOUsASKL6kU0BH6PUsJcyA4steCtgeDn0i91PCa1B8+YESekOf7hTxDBRf1lBCciR02UgRD0Px5VuKeAh6NKWMdlB8WUkR21zQYQFltITiyzLK6ADtKrkp4z4ovnxBGeuh3RsU8jAUXxZTyJ3QqvBpChkAxZdFFPIltHqaUoZD8WU5pfwN2oTvoZTXofjyA6XMhjadKWYaFF92UUpOZWiyjmLmQ/HlBMW8Cy0aUs5yKD643BSTUQoazKGcjVB8KExBIxC48jmUswOKD9dR0MFIBOwlCjoCxYcmlNQZgXLtpqAMKD48SEkrEahbKao0FO9GUlQNBOg9imoHxbvZFPUGAhNzkqJGQPHuB4pKiUVAOlPWF1C8O0VZDyMgn1PWUShelaCwjQhEiWwKqwDFmzsorT4C0I/SOkHxZiilTUMAfqC0V6B4s4TS0hKQp5oUtxyKF64TFNcXeRpNcSkuKLnVpLx1yEvYPsqrCiW3R2mBishDM1qgG5TcptMCQ5GHGbTAOCi5/UILJMK/2FRa4AMouZ2iFWrBrx60wkwoucTSEqPg11e0wkdQcqlMS+yGPwk5tMLHUHJpQGs0hB9daYk3oeRSitaYAD9m0hItoOR2kJY4HA6fwo7RCgcioeT2NK3RAj41oiU6QfEiOpGWmAafRtIKs6F4VeMMrXAsDL78RAtsjYPi3f20RCP4UIYWOF0Dii9TaIWR8OH/aIHOUHyK2UILbIIPiyhvHBQ/qp2mBUrDq+gzFPdtBBR/utICj8Cr1hR3sBQU/yZR3nx4NYHSsm+FkofoTRR3OhLe7KK0YVDyVD2T4prBixqUtiMKSt7GUNxYePE0pd0NJQCFDlLaNnixksI+hxKQByiuInKJz6KsjCpQAuJaS2lPIJdOFPZvKAG62U1h85HLJMpKLgglUFMp7Ahy2UJZXaEErORJCquKq8S7KeobKBr0p7CHcJVWlFUfigYR2ynrfVxlOEWtgqLJI5T1K66yjKI6QtEk5ghllcQVwk5TUlI4FG1epKwOuEIdihoARaMS6RQ1Dlf4JyWdjoei1XsU9T2u8BElvQlFs+s9lJQdi8slUZC7MhTtllBUM1zmWkpaCEWH5hT1Ai5zHyXdAUWPzZS0GJcZT0H7XVD0eIyS9uEy6ynobSi6lHRTUgIuicmioBZQ9PmGkm7DJU0p6EQEFH36UlJfXPIMBX0IRaeyHgqagks+o6AOUPRaT0EbcMlhykmLhaLXIAo6G4aLEihoIRTdKlNSNVzUmIIehKLfZgrqhIseoZycolD0e56CRuCisZSzBYoB9ShoIS5aQjlToBgQkUY5u3HRbsrpDcWINZTjicMFBdyUUweKEeMpqDYuuIlyzoZDMaIrBbXDBd0oZxUUQypRUD9cMIJyxkEx5ijljMcFcymnCxRjllDOAlyQSDkVoRjzAuVswnnhmRRzFIpBbSjnBM6rSjkroBhUnILicU47ynkfilGnKac2znmGcp6HYtTPlNMO58ygnAegGLWUcvrhnA2UcxsUoyZRznicc5xyykMxagjlLAAQRTnZ4VCM6kE5GwCUo5wkKIbdSjnbAdxMOV9DMaw85RwE8HfKmQ7FsPAcijkD4FHKGQ7FuL2UEw4Mo5ynoBj3A+UUASZSzqNQjPuOcsoDn1BONyjGfUk5tYDvKKcdFOM+pZzGwA7KaQbFuFmU0wY4TTkNoBg3lXL+gQIUVAuKcRMo51FUpKCKUIx7hXIGohEFlYRi3IuUMxz3UlAsFOMGUc54PE5BYVCMe4JypmA4BUVDMa4v5czBJAoqDMW4QZTzBWZSUEkoxr1AOWvwHwoqD8W40ZSTiHkUVBWKca9Tzl4soqAboRj3LuWkYCkF3QzFuA8o5yyWUVATKMbNoZwT+IaCmkMx7jPKOYjVFHQ3FOOWUU4SNlBQVyjGraKc7dhEQQOgGJdIOVuQSEGvQTHuKOV8j+0UNAuKYZEeylmFXRS0EophZShoOfZS0HYohtWjoCU4SEGnoRh2DwUtwFFKKgjFqEco6D84SUlVoRg1jIJm4Cwl3Q7FqIkUNBmnKKkbFKPmUtAE7KekF6AYtYqCXsNWSpoNxahDFDQS6ylpCxSDClPSc/gvJWWEQzGmASUNwjyKqgrFmAcpqR+mUVR7KMa8QkmP4Q2KGgLFmIWU1BMjKGomFGO2U1JLDKKoH6EYEplNSdfjMYo664JiRA2KikM3yqoBxYgOlJQC3ENZj0IxYiQlJQJNKesDKEaspKSlQB3K2gXFgIgzlDQZqEhhpaHoV5eingOKUdg/oOjXl6J6AVEUNgGKfv+hqOYAjlPWT1D020tR1QBspCx3PBS9ylBWLIC5FNYail6dKeo4znmFwsZC0WsCRW3GOY9R2A4oeu2mqM9xTitKqwFFn1qU9Q7OqUJpg6HoM5SyhuKcSDeFrYaizwbKegDn7aUwdwkoelzroaw7cN43lNYLih69KawyzptGaQug6LGYsjwxOO95SjsTA0W7gumUtQMX3E9xbaFo15HCZuOCxhS3AIp2iylsEC64luKySkLRqpybwprjAlcaxT0NRauXKC0Bf9hKcVuhaBSeTGG7cdEiymsERZu2lDYPFz1PeVOhaPM5pQ3FRW0oLzUOihblciitDS4qRgs8DEWL4RRXAn/aRXkboWgQc4jSknHJbFqgBZTAPUVxi3DJQFpgBZSAxRykuBdxSVNaoQGUQPWjvL/jkoI5tMBCKAGKOUB5pfGX/9ECnhugBKYv5R3GZd6nFWZCCUj0Acpbgss8TitkV4QSiCdpgZdxmbq0xPtQAlD4EC3QAZeJTKcVPPWh5O0tWqECLreelljvgpKX+m5a4DCuMIHWeAhKHsJ/pBU+xBUeoDUOF4biXz9aohuuUJUWGQ/Fr9KnaQV3MVxpF62RXROKP5/QEutwlQm0yNdhUHz7O63xAq7SmlYZCsWnMkdpjfq4SvRZWiS7MRQfIlbRGr+7cLXPaJW9CVC8G02LzEQuj9Eyn0Lx6i4PLdIduZSjdZ6E4kXZY7SIuxhy20LLZNSDkkvEalplPbwYRescqQblauNpmRfhxa200J6yUK40kNa5BV6EH6eFthaDcrkHPLTM72Hw5mNa6fs4KH+5O5vWmQmvetBSK6Kh/KnRWVqoO7wq5qalFoRD+UPN47SQuzi8W0trTXNBOa98Mq20Hj4Mo8XGQzmnWhIt9SJ8uJ5WmxEJpf5RWutm+LKBVvs6Afldq1Raazt86kPLba+E/K17Fi02BD4lZNByRxsjP+vvocXcZeHbHFovvQvyLdcrtNxX8OMu2sAzFPlU8S9ovW7wI/wA7TAtGvlR42Ra72QB+DOGtthyI/Kfp7Npg/fg1/W0R8ZAF/KXhEW0RWP4t542WVkO+Un9JNriV+ThcdolpRvyjeiXMmmPochDkXTa5uMiyB+a76BN3OWQl9m0T3IL5AMlZ9I2/0We2tBOn1ZDiHP1PkH7dEeewg/QTlkTiyOU1VpNG50qgLy9QnudfCYGoaryBzm00xQEoJqHNtvTw4VQVGFKNu3VBIFYSNttvAMhp8zbmbTZDgSkER1gXedwhJJr3kin7YYhMN/RCfYMiEeoqPXuWdrPXQ6BuYf67Z/eo9c7iR6a4dT4CggBEZ2+oSN8hgC5/kddzi7tXxMXFGs/bmMOjcuZ2xBB7prn99MhGiNQ91Mz9w+j7ozC5Yr330IT/DjgWgSvxrMy6RTfIWARe6jJyfe7FIcXdScep3HuZb3iEYzqjt5JB7kLgetHTVLLwoeYAUdpgvS57aMQXOqO3klH2QwNYo9RkwXwKf6lVJrhxOQW0QgWdUfvpNN0gxbDqU1b+FZygpumOLu0//VwvJJdp+6h8+wKhxbFzlKTvQXhR5PdNMu+qZ2LwrHi7h63xUNHehzavEltXoM/habTPO71L99dHI5TsOmLq7LoVIdioE2FbGqSXRd+3XeMpto5q98tUXCIwncM/Girm072DLSaSW12xMGvittptsz1b3avHg5bFW/17NydHjrdyXhodaOH2nwI/xK+pYTM//3nuQ7VwmG56NrdRi7cx+AwGtotpEZjXfArahbFZGyeNbR9lTDEwgKRNf/x0rxtOQwe6ddAuxrZ1OijSPjlGk1Z6avqQdg1z8/5OYvB5h3o8Ra12lAN/o2jrGmQ5lrE4JNTEXoUP0mtzv4T/k2hqMYQF7+dQWcW9BlM7b4sDX/C5lDQVligxmkGm9rQJzqJ2h1vC38iv6Ccp2GF9h4Gl8XQqyt1cA+CP0X2UEpWCVhiBIPLrdDLtZ56TI+CH42zKeQTWMO1mMFkCfRrQl1WlYAfwyikDSxSeB+DR1Z1GPAJddl9HXwLW0kR+8JglS4MHq/DiMqZ1GVPRfhW+iglDId1VjFYHCsCQ8ZRn72V4Ns9FOCuAOvUdTNI9IExCcepz77K8O11mu8rWGkqg0NiOAzqT52Sy8GnqE00XWdY6ZpTDAotYFTkb9Rpcxx8qpZKkx2NgqX+xWCwCMZ1oF6fhcGnnjTZeFgrKonOl1kFJlhMvcbBtw9prpqw2GA632swQ5mT1Ks3fIrbQTOthdVKZNLpjsTDFI9Sr/Tq8OlvGTTRI7Dcx3S63jDJcuq1Jgw+9aN5UuNgudvocJvDYJLrzlCvAfBtEU0zBTbYSme7A6bpS73SqsCnosk0S0PYoB8dbT7M41pFvb5zwaemOTTHz7BDkTQ6WEYlmKhaOvXqC99eoDn6wxZL6GCjYapB1OtMJfjkep9myCwGWwygcx0qBFOFf0+9Vrrgk2sqTTAH9qhN5+oIk9XKpF594JtrCo1rCXu4jtCpPoTpXqBeqaXhm+s9GpXkgk0+pkPtKwzTRW6hXuPhh2syDXoBdnmEzuRpDgF1s6nT2eLww/UuDXGXg10q0JkmQMQo6jUS/rgm0YilsE8SnWh7AYiI+p46nYyHP64BGdSvI+zzOR0o5xYIue4EdRoCrwreiT/csJl6HYmEfV6lA42AmHYe6vN7LLy4dpPn5TBcEDXGTX2eg40eovP8GAk5r1Gnp5Bb2CqSSxPwh9uSqMf3EbBRAzpOek0IilhNfZKjkEtvnrc5AX+In0HtVifATvF0nIEQVfYo9emNXMqc5HkbCuGiDj9Tm6MDomGv/XSYb8Igq7WHuuwMRy4P8oJvw/GnVl8ycKdGxMNuy+gsp6+DtJepT3fk9jnPW43L3DAlnYE4+G6bKNhvMp3lYYgLX0ldfnYhlxJ7eU5rXKHEi0eYh62jG7jgCCPpKJ/BAqUOUZd7kVvdNHImrhbddvS3afTBvWZwNThGfzrJ0WtghTtzqMdGeNGdBxLgTWT9p+Yk8wpnNs/9d68mReEk99NJ7oM1nqMureDFa3fBt3LN7u7Y7aE+/Z8dPuLR20vDgVrTQd6CRVxfUo9vkbe/VUYu75WHY9Wjc3wdAasUT6YeTZGHsH+7uXVMY1zhJu6vhdyun9IL9qtAx0gqDus0zqQOXyIPY3nBtv4J+Ms0MqUprlJmag45AbaLpVOcqQMr9aQet8GvnvxT+gd1cVHxdJLpHXCFe1J43kTYzkOH6ARrDacOu+LgT8J0/mlbVVzUj+e5H8Nfwl7y8A/DYLccOsPLsNqH1OFd+NdmHy/4ojD+9A3/MByXlD3OPySWht0y6QiLXLBa1NfUoTX8K/jM7yTHhuGSZF40ORx/ap7D89YkwHbpdIJfCsF6Cduo3f4iyEPBfy1rh8v8xIuSyuGSp3jOkljY7wwd4EQV2KHiEWo3Exrdmc4LNpXCZaaRMyPgAKdpv5yWsEeDNGrXERrV38JzFhXC5aLXvu6CE6TQfgNhl44eana0CrSq/erSnrhKQTjDcdruA9jnaWq3pyxCyO+024Zo2OgdaretOELHYdrsYGnYKXwJtfsxHiHjAO2V0RD2ivuJ2n1bAKEimfbqBbuVSaZ2SyIRIvbQVi/DfnVOU7svEhAadtNO4+AEt52hdrtvQkj4jTZ6B85wZxq1S3sQoeBX2meGCw7RMp06TIpC8NtO28wOh2PclUkd1pdF0PuVdlkUAQdpm0UdTg6ORpDbQZt8FQ1H6ZBNPfZ0dyGo/UZ7fFMADvOPHOqy8TYEs99oi3VxcJzubuqzsCaC107aYVMROFBPN3Va/VBBBKldtMHPxeFIj3ioV+rUxghKu2m9HaXgUI/TgG2DaiD4JNFySeXgWH1pyOE5/7zBhaCyh1bbXwkONoBGHZ3Xt2kZF4LFXlrsSHU42mCaIX3bkgn929WuVLZE4ZgwONleWmtfTTjcY26aLOdsypF9O3/5acN3y79a8e3q9T9s/nn7zj37Dx87mZqe/QbstY+W2lIajtcxgxaaCHsl00rL4xEE7jhF67wNe+2nhWZGIijcdJiWmQR7HaB1RrkQJCrvpFUmw14HaZWcPgge1/xEi0yBvQ7RImfbIZjEf01rvA97HaI1jjZAcImeT0tMh70O0xI7qyDYhE2mFT6AvY7QChtKIAiNoAVmwl6/0wKfxyIoPeGmuFmw11HKmxyOINUlk9Jmw17HKG4YgleLVAqbC3sdp7CsBxHMbtpLWfNgr+OUldwEwa3EdxS1APY6QVGLiyHYRb5LSQthrxQKyv6XCyGgTxblfAZ7naScvQ0RGm7/nWIWw16nKGZRAkJFhc2UshT2Ok0hWQMQQmI/oZAvYa9Uyth9C0KK6+ksivgv7JVKEfOLINTc/BslLIe9zlBAZl+EoEIzKeBr2OsszbezHkLTA6k03QrYK42mmxuPUFXlB5rtK9grnSbL6IMQFjXWQ3Mtgb0yaK5fbkJoa3OIploIe2XSTOnDohDqEqbTTPNgr0yaaFkV5Aet99I8s2GvLJrmSA/kE3FveWiWj2CvbJrE814C8o+mv9Ik02GvHJrj51uRr8SMyaEppsBebpohbWgk8pubN9MMk2AvD03wVWXkQ+F9jtG4CbAXjTvcDflU0bdyaNR42ItGeSYXQf5140oa9CrsRYMSmyB/67SHhoyCrVw05OyQSOR3BV5MowEvwVZhNCD9jWugAOWn51C352GrcOqW+U4ZKH+oPttDnYbAVhHUKXtqBSh/qfMZ9RkEW0VSF/fMKlCu1HA59egPW0VSB8+c66HkdudaavckbBVF7T6tDcW7u1dTq8dhq2hqtbQeFN+aLPJQk0dhryxqsrwRFP9qTs+iBg/CXvupwXe3Q8lb2XGpDFgP2OtHBuybllACU2ToEQaoPey1kIE5ObEmlMBFd13uYSCqw15PMhCbeheEolHFEcnMU2YE7FWZeUqf0QCKHmF3zcuif2tgt0T6t2NgUSi6lXh6K/1pC7t1oB/ZC1q6oBjT6P1U+rIJ9ltDXw4MLwPFBHGPrKNXh6vBflWP0BvPso4RUMxSc9xR5nL8RjhBnRTmcnxcVSimiur0hZtXmHktnKHaCl4hZ0nnaCjmu7bnhwd40YHJDeEc3Vfm8KKU+Y+XgiKm4m1dBw5+5N6bXHCWYl2fGf/BhCG9GoRDURRFURRFURTFwf4fR4JTtCVMPyYAAAAASUVORK5CYII=;" vertex="1" parent="1">
                    <mxGeometry x="182" y="575" width="42" height="42" as="geometry"/>
                </mxCell>
                <mxCell id="134" value="" style="shape=image;imageAspect=0;aspect=fixed;verticalLabelPosition=bottom;verticalAlign=top;image=data:image/png,iVBORw0KGgoAAAANSUhEUgAAAgAAAAIACAMAAADDpiTIAAAAA3NCSVQICAjb4U/gAAAACXBIWXMAAMinAADIpwFvdAvIAAAAGXRFWHRTb2Z0d2FyZQB3d3cuaW5rc2NhcGUub3Jnm+48GgAAAwBQTFRF////AAAAAAAAAAAAAAAAAAAAAAAAAAAAAAAAAAAAAAAAAAAAAAAAAAAAAAAAAAAAAAAAAAAAAAAAAAAAAAAAAAAAAAAAAAAAAAAAAAAAAAAAAAAAAAAAAAAAAAAAAAAAAAAAAAAAAAAAAAAAAAAAAAAAAAAAAAAAAAAAAAAAAAAAAAAAAAAAAAAAAAAAAAAAAAAAAAAAAAAAAAAAAAAAAAAAAAAAAAAAAAAAAAAAAAAAAAAAAAAAAAAAAAAAAAAAAAAAAAAAAAAAAAAAAAAAAAAAAAAAAAAAAAAAAAAAAAAAAAAAAAAAAAAAAAAAAAAAAAAAAAAAAAAAAAAAAAAAAAAAAAAAAAAAAAAAAAAAAAAAAAAAAAAAAAAAAAAAAAAAAAAAAAAAAAAAAAAAAAAAAAAAAAAAAAAAAAAAAAAAAAAAAAAAAAAAAAAAAAAAAAAAAAAAAAAAAAAAAAAAAAAAAAAAAAAAAAAAAAAAAAAAAAAAAAAAAAAAAAAAAAAAAAAAAAAAAAAAAAAAAAAAAAAAAAAAAAAAAAAAAAAAAAAAAAAAAAAAAAAAAAAAAAAAAAAAAAAAAAAAAAAAAAAAAAAAAAAAAAAAAAAAAAAAAAAAAAAAAAAAAAAAAAAAAAAAAAAAAAAAAAAAAAAAAAAAAAAAAAAAAAAAAAAAAAAAAAAAAAAAAAAAAAAAAAAAAAAAAAAAAAAAAAAAAAAAAAAAAAAAAAAAAAAAAAAAAAAAAAAAAAAAAAAAAAAAAAAAAAAAAAAAAAAAAAAAAAAAAAAAAAAAAAAAAAAAAAAAAAAAAAAAAAAAAAAAAAAAAAAAAAAAAAAAAAAAAAAAAAAAAAAAAAAAAAAAAAAAAAAAAAAAAAAAAAAAAAAAAAAAAAAAAAAAAAAAAAAAAAAAAAAAAAAAAAAAAAAAAAAAAAAAAAAAAAAAAAAAAAAAAAAAAAAAAAAAAAAAAAAAAAAAAAAAAAAAAAAAAAAAAAAAAAAAAAAAAAAAAAAAAAAAAAAAAAAAAAAAAAAACyO34QAAAP90Uk5TAAECAwQFBgcICQoLDA0ODxAREhMUFRYXGBkaGxwdHh8gISIjJCUmJygpKissLS4vMDEyMzQ1Njc4OTo7PD0+P0BBQkNERUZHSElKS0xNTk9QUVJTVFVWV1hZWltcXV5fYGFiY2RlZmdoaWprbG1ub3BxcnN0dXZ3eHl6e3x9fn+AgYKDhIWGh4iJiouMjY6PkJGSk5SVlpeYmZqbnJ2en6ChoqOkpaanqKmqq6ytrq+wsbKztLW2t7i5uru8vb6/wMHCw8TFxsfIycrLzM3Oz9DR0tPU1dbX2Nna29zd3t/g4eLj5OXm5+jp6uvs7e7v8PHy8/T19vf4+fr7/P3+6wjZNQAAHhNJREFUGBntwQmAjfX+BvDnzG6MYWzJml0SXZItLfbqIuLaSlr8yy1Cl0KL5JJCRSURSroIUaiupcWeEncKCYOxZhkMs5/z/JGEOefMeZfv+77nzO/zARRFURRFURRFUUKbq1Dp6jff2a5Hn8EvvzHpnbcnTnjzjdfHjX3t1TGjhvzz/ra331SpWCSUkBNXvdkDz05csCE51cM8pR3+9ftFEwd3u7V8BJTgVqTRwyOn//eXk9THvX/dnLFPdagVBSXYXNvsibdWHKQ5srfPf7lbnRgowaDE3f+ati6F5nP/tnDU/XUjoThW5M1PfrSTstJXv9qhFBTHKX3fa6vSaJGkj/veHAHFIaIbDZy7j1ZL+25Mu0JQbHZd1zc3ZNIu2d8OreeCYpOCbd/ZTdv9PqtnKSiWu37gsgw6xeYxzaKgWCau3aQ9dJgz87vGQbFAzaeXZ9KR0uZ3jYMiKa79u3vpZGnzu8ZBkVH44WWZdL60+V3joJgt6t5P0hks0ua0dEExj+v2904wuCQ9VwaKOWqP2ccglLO4fQQUo8o/m8igdXBUZSgGFH3sOw+DmmdFt2gouoS1W5jJEHDkheJQNIvvv4uhIm1SVSiaVJ2QylDi/rQJlEC5Wi3xMOSs7xQOJQCxj29laNr1ZEEoeajw6gmGruMvxEPx47b5OQxtx56JheJdZK+fmA8c6R8DJbfwXknMJ/b3iYJyJVeX7cxHkh6OgHKZtpuZz+zoEQblohbrmQ8lNodyXuOvmU8tqAil7hLmX+kjCyJ/qznPw3xtf3fkY5U+dDPfW1MP+VTsq1lUSPfUksiP2u6h8oeTA8KR35T7lMpfNt6IfCV8YCqVy2WNiEL+0XAzlav90hD5RJFJHiq5uV+PRX7Q4zAV73Y3R8irtpyKb1OLIKRFD8+g4s/BtghhjXZQycvbMQhRYcOyqeQt8QaEpDJfUwlI2uMIQe2PUwnUgqIIMTFvU9Eg+XaElBsSqWjiHhGO0NEnjYpWayogRBT9lIoOKfcgJNyeTEUX93MuBL3wl91U9FpQCEGu3BoqBvxSFUGt/iEqhpy8G0GsUxoVg9zDXAhWQzxUjJsfh6AUNZ2KKX6piiBU9BsqJkm5A0Gn6g4qpsnsgiBzx3EqJvIMRFB5KIuKuca7EDRco6mYbnY0gkSBeVQEfF0YQaHURioiEssiCJTdSUVIci04XrldVMSk3AaHK7+biqC0FnC0CklURKW3gYNdt4eKsIx74FgV91IRl9kODlVpHxULZHWEI1VOpmKJ7M5woCrJVCyS0w2OU3U/FcvkPACHqXaAioXcveAo1Q9SsZS7Exyk/EEqFstsAceIT6RiudRb4BARy6jY4Nj1cIb3qdgiuTycYBgVm2wvDvt181Cxy8ZCsFvTDCr2WRENe1U7TsVO88Nhp+I7qdjrHdgoZi0Vu/WFbVxzqdgupxXsMoaKA6TUgD0eo+IIvxWFHZrlUHGGFRGwXslDVJxiEizn+oqKc/SF1Z6l4iA5rWCtRtlUnCSlBqyUsIeKs/xaCBZaQMVpZsM6T1Bxnj6wyk0ZVJwnoy6sEfcrFSfaGQ9LfEjFmT6BFR6k4lRPQl6NM1ScKvNmSIvZQhO5U/bvyqBimt1FIGwizfPLE8UBhFVq89Tby/Z5mM94Dq75aMRDd9S//a5B22iaBZDVxEPTfFkQl4lt8sznJ5gvJM0f+8RdNWLwl7vO0iz9ICnyF5pmXSSu5qr1+McnGNLOLu1XDbk1T6dJ0mtA0DCaxtMAXkU0m7CPIerncS2j4d0gmmV9OMRUTadpPoZvdUfsZKhJ+eTRsvAt/iTNMgRiVtA8LeCPq/XCHIaQHx+Mhn9jaJbMWhDSk+Y5HoE8lBtxiKEhe+6tyFNNmubHCIgofpTmmYa8RXZeyeB3bHQ5BOIQTfMiRMygie5BQGq8mcKg9r9HCyAws2iarL9BQDOa6FQ0AhT7yCYGrcV3ImAP0zz/i4LpYnbQRLOgQfstDErbWkGDCjTRKJjuZZqpI7Rw/WMbg86pgZHQZCfNk3MLTFYziyZKj4U24T13Mqh4pl0DjSbTRFujYCrXapppHTSL6L2PwWPDLdCsC830LEz1fzTVm9Ah+smDDA6HH3JBuxIemuhMOZjomhSaqgd0KfCvo3S+7HHx0GULzfQJTPQ2zVUVOsW/mkmHW1sbOo2nqVrCNJWzaKoTLuhWZSGd7MT/uaDXPTTV9iiYZRbN9V8Y0SKROqUd3Lp26cfvjBr8WJfWDerUrnVDzRrVq1WtXKlixRub3NWl98Dh46fO/XLtjgzqlTO9JPQrlE1TPQuT1PHQXCNhSPg/j1GLrN3ffjSqz99rJyAwrlINuwx+e3HiaWqT+V4lGLKWpjpTDuZYQpO1g0EJb2YzAKc3TB903y3XuqBTwt/ufW7eLg8Dcvb1MjBoDM01D6ZoSrOVgmHXf0l/UtZMGdC6HEwR37TftJ8y6VfOVz0LwbCeNFkrmGENTbYPZrhnK73xbJ3Rt/m1MFtknV5vrNxPr1KXP1UKZqhPk/0aBePa0mzzYIqwjht4pQOfDmkWD0EF63QeNmPtMV5yMvGTp+qFwySFaLZnYVhYIs32DMxS7/m1Obzg1IrRHcrAIgkN2t97TusbCsFc+2iyU8Vg1AM0XWuYKLZGy1733VopDKHgK5ptPAyKSqLpboLi3Rs0W0YFGNOX5isLxbs+NN0HMCTuCM0XDcW7e2k6940w4nmaLxWKD41pviUwoNgpmm83FB+qUMDt0G8sBWyA4kMhClgH3RLOUsASKL6kU0BH6PUsJcyA4steCtgeDn0i91PCa1B8+YESekOf7hTxDBRf1lBCciR02UgRD0Px5VuKeAh6NKWMdlB8WUkR21zQYQFltITiyzLK6ADtKrkp4z4ovnxBGeuh3RsU8jAUXxZTyJ3QqvBpChkAxZdFFPIltHqaUoZD8WU5pfwN2oTvoZTXofjyA6XMhjadKWYaFF92UUpOZWiyjmLmQ/HlBMW8Cy0aUs5yKD643BSTUQoazKGcjVB8KExBIxC48jmUswOKD9dR0MFIBOwlCjoCxYcmlNQZgXLtpqAMKD48SEkrEahbKao0FO9GUlQNBOg9imoHxbvZFPUGAhNzkqJGQPHuB4pKiUVAOlPWF1C8O0VZDyMgn1PWUShelaCwjQhEiWwKqwDFmzsorT4C0I/SOkHxZiilTUMAfqC0V6B4s4TS0hKQp5oUtxyKF64TFNcXeRpNcSkuKLnVpLx1yEvYPsqrCiW3R2mBishDM1qgG5TcptMCQ5GHGbTAOCi5/UILJMK/2FRa4AMouZ2iFWrBrx60wkwoucTSEqPg11e0wkdQcqlMS+yGPwk5tMLHUHJpQGs0hB9daYk3oeRSitaYAD9m0hItoOR2kJY4HA6fwo7RCgcioeT2NK3RAj41oiU6QfEiOpGWmAafRtIKs6F4VeMMrXAsDL78RAtsjYPi3f20RCP4UIYWOF0Dii9TaIWR8OH/aIHOUHyK2UILbIIPiyhvHBQ/qp2mBUrDq+gzFPdtBBR/utICj8Cr1hR3sBQU/yZR3nx4NYHSsm+FkofoTRR3OhLe7KK0YVDyVD2T4prBixqUtiMKSt7GUNxYePE0pd0NJQCFDlLaNnixksI+hxKQByiuInKJz6KsjCpQAuJaS2lPIJdOFPZvKAG62U1h85HLJMpKLgglUFMp7Ahy2UJZXaEErORJCquKq8S7KeobKBr0p7CHcJVWlFUfigYR2ynrfVxlOEWtgqLJI5T1K66yjKI6QtEk5ghllcQVwk5TUlI4FG1epKwOuEIdihoARaMS6RQ1Dlf4JyWdjoei1XsU9T2u8BElvQlFs+s9lJQdi8slUZC7MhTtllBUM1zmWkpaCEWH5hT1Ai5zHyXdAUWPzZS0GJcZT0H7XVD0eIyS9uEy6ynobSi6lHRTUgIuicmioBZQ9PmGkm7DJU0p6EQEFH36UlJfXPIMBX0IRaeyHgqagks+o6AOUPRaT0EbcMlhykmLhaLXIAo6G4aLEihoIRTdKlNSNVzUmIIehKLfZgrqhIseoZycolD0e56CRuCisZSzBYoB9ShoIS5aQjlToBgQkUY5u3HRbsrpDcWINZTjicMFBdyUUweKEeMpqDYuuIlyzoZDMaIrBbXDBd0oZxUUQypRUD9cMIJyxkEx5ijljMcFcymnCxRjllDOAlyQSDkVoRjzAuVswnnhmRRzFIpBbSjnBM6rSjkroBhUnILicU47ynkfilGnKac2znmGcp6HYtTPlNMO58ygnAegGLWUcvrhnA2UcxsUoyZRznicc5xyykMxagjlLAAQRTnZ4VCM6kE5GwCUo5wkKIbdSjnbAdxMOV9DMaw85RwE8HfKmQ7FsPAcijkD4FHKGQ7FuL2UEw4Mo5ynoBj3A+UUASZSzqNQjPuOcsoDn1BONyjGfUk5tYDvKKcdFOM+pZzGwA7KaQbFuFmU0wY4TTkNoBg3lXL+gQIUVAuKcRMo51FUpKCKUIx7hXIGohEFlYRi3IuUMxz3UlAsFOMGUc54PE5BYVCMe4JypmA4BUVDMa4v5czBJAoqDMW4QZTzBWZSUEkoxr1AOWvwHwoqD8W40ZSTiHkUVBWKca9Tzl4soqAboRj3LuWkYCkF3QzFuA8o5yyWUVATKMbNoZwT+IaCmkMx7jPKOYjVFHQ3FOOWUU4SNlBQVyjGraKc7dhEQQOgGJdIOVuQSEGvQTHuKOV8j+0UNAuKYZEeylmFXRS0EophZShoOfZS0HYohtWjoCU4SEGnoRh2DwUtwFFKKgjFqEco6D84SUlVoRg1jIJm4Cwl3Q7FqIkUNBmnKKkbFKPmUtAE7KekF6AYtYqCXsNWSpoNxahDFDQS6ylpCxSDClPSc/gvJWWEQzGmASUNwjyKqgrFmAcpqR+mUVR7KMa8QkmP4Q2KGgLFmIWU1BMjKGomFGO2U1JLDKKoH6EYEplNSdfjMYo664JiRA2KikM3yqoBxYgOlJQC3ENZj0IxYiQlJQJNKesDKEaspKSlQB3K2gXFgIgzlDQZqEhhpaHoV5eingOKUdg/oOjXl6J6AVEUNgGKfv+hqOYAjlPWT1D020tR1QBspCx3PBS9ylBWLIC5FNYail6dKeo4znmFwsZC0WsCRW3GOY9R2A4oeu2mqM9xTitKqwFFn1qU9Q7OqUJpg6HoM5SyhuKcSDeFrYaizwbKegDn7aUwdwkoelzroaw7cN43lNYLih69KawyzptGaQug6LGYsjwxOO95SjsTA0W7gumUtQMX3E9xbaFo15HCZuOCxhS3AIp2iylsEC64luKySkLRqpybwprjAlcaxT0NRauXKC0Bf9hKcVuhaBSeTGG7cdEiymsERZu2lDYPFz1PeVOhaPM5pQ3FRW0oLzUOihblciitDS4qRgs8DEWL4RRXAn/aRXkboWgQc4jSknHJbFqgBZTAPUVxi3DJQFpgBZSAxRykuBdxSVNaoQGUQPWjvL/jkoI5tMBCKAGKOUB5pfGX/9ECnhugBKYv5R3GZd6nFWZCCUj0Acpbgss8TitkV4QSiCdpgZdxmbq0xPtQAlD4EC3QAZeJTKcVPPWh5O0tWqECLreelljvgpKX+m5a4DCuMIHWeAhKHsJ/pBU+xBUeoDUOF4biXz9aohuuUJUWGQ/Fr9KnaQV3MVxpF62RXROKP5/QEutwlQm0yNdhUHz7O63xAq7SmlYZCsWnMkdpjfq4SvRZWiS7MRQfIlbRGr+7cLXPaJW9CVC8G02LzEQuj9Eyn0Lx6i4PLdIduZSjdZ6E4kXZY7SIuxhy20LLZNSDkkvEalplPbwYRescqQblauNpmRfhxa200J6yUK40kNa5BV6EH6eFthaDcrkHPLTM72Hw5mNa6fs4KH+5O5vWmQmvetBSK6Kh/KnRWVqoO7wq5qalFoRD+UPN47SQuzi8W0trTXNBOa98Mq20Hj4Mo8XGQzmnWhIt9SJ8uJ5WmxEJpf5RWutm+LKBVvs6Afldq1Raazt86kPLba+E/K17Fi02BD4lZNByRxsjP+vvocXcZeHbHFovvQvyLdcrtNxX8OMu2sAzFPlU8S9ovW7wI/wA7TAtGvlR42Ra72QB+DOGtthyI/Kfp7Npg/fg1/W0R8ZAF/KXhEW0RWP4t542WVkO+Un9JNriV+ThcdolpRvyjeiXMmmPochDkXTa5uMiyB+a76BN3OWQl9m0T3IL5AMlZ9I2/0We2tBOn1ZDiHP1PkH7dEeewg/QTlkTiyOU1VpNG50qgLy9QnudfCYGoaryBzm00xQEoJqHNtvTw4VQVGFKNu3VBIFYSNttvAMhp8zbmbTZDgSkER1gXedwhJJr3kin7YYhMN/RCfYMiEeoqPXuWdrPXQ6BuYf67Z/eo9c7iR6a4dT4CggBEZ2+oSN8hgC5/kddzi7tXxMXFGs/bmMOjcuZ2xBB7prn99MhGiNQ91Mz9w+j7ozC5Yr330IT/DjgWgSvxrMy6RTfIWARe6jJyfe7FIcXdScep3HuZb3iEYzqjt5JB7kLgetHTVLLwoeYAUdpgvS57aMQXOqO3klH2QwNYo9RkwXwKf6lVJrhxOQW0QgWdUfvpNN0gxbDqU1b+FZygpumOLu0//VwvJJdp+6h8+wKhxbFzlKTvQXhR5PdNMu+qZ2LwrHi7h63xUNHehzavEltXoM/habTPO71L99dHI5TsOmLq7LoVIdioE2FbGqSXRd+3XeMpto5q98tUXCIwncM/Girm072DLSaSW12xMGvittptsz1b3avHg5bFW/17NydHjrdyXhodaOH2nwI/xK+pYTM//3nuQ7VwmG56NrdRi7cx+AwGtotpEZjXfArahbFZGyeNbR9lTDEwgKRNf/x0rxtOQwe6ddAuxrZ1OijSPjlGk1Z6avqQdg1z8/5OYvB5h3o8Ra12lAN/o2jrGmQ5lrE4JNTEXoUP0mtzv4T/k2hqMYQF7+dQWcW9BlM7b4sDX/C5lDQVligxmkGm9rQJzqJ2h1vC38iv6Ccp2GF9h4Gl8XQqyt1cA+CP0X2UEpWCVhiBIPLrdDLtZ56TI+CH42zKeQTWMO1mMFkCfRrQl1WlYAfwyikDSxSeB+DR1Z1GPAJddl9HXwLW0kR+8JglS4MHq/DiMqZ1GVPRfhW+iglDId1VjFYHCsCQ8ZRn72V4Ns9FOCuAOvUdTNI9IExCcepz77K8O11mu8rWGkqg0NiOAzqT52Sy8GnqE00XWdY6ZpTDAotYFTkb9Rpcxx8qpZKkx2NgqX+xWCwCMZ1oF6fhcGnnjTZeFgrKonOl1kFJlhMvcbBtw9prpqw2GA632swQ5mT1Ks3fIrbQTOthdVKZNLpjsTDFI9Sr/Tq8OlvGTTRI7Dcx3S63jDJcuq1Jgw+9aN5UuNgudvocJvDYJLrzlCvAfBtEU0zBTbYSme7A6bpS73SqsCnosk0S0PYoB8dbT7M41pFvb5zwaemOTTHz7BDkTQ6WEYlmKhaOvXqC99eoDn6wxZL6GCjYapB1OtMJfjkep9myCwGWwygcx0qBFOFf0+9Vrrgk2sqTTAH9qhN5+oIk9XKpF594JtrCo1rCXu4jtCpPoTpXqBeqaXhm+s9GpXkgk0+pkPtKwzTRW6hXuPhh2syDXoBdnmEzuRpDgF1s6nT2eLww/UuDXGXg10q0JkmQMQo6jUS/rgm0YilsE8SnWh7AYiI+p46nYyHP64BGdSvI+zzOR0o5xYIue4EdRoCrwreiT/csJl6HYmEfV6lA42AmHYe6vN7LLy4dpPn5TBcEDXGTX2eg40eovP8GAk5r1Gnp5Bb2CqSSxPwh9uSqMf3EbBRAzpOek0IilhNfZKjkEtvnrc5AX+In0HtVifATvF0nIEQVfYo9emNXMqc5HkbCuGiDj9Tm6MDomGv/XSYb8Igq7WHuuwMRy4P8oJvw/GnVl8ycKdGxMNuy+gsp6+DtJepT3fk9jnPW43L3DAlnYE4+G6bKNhvMp3lYYgLX0ldfnYhlxJ7eU5rXKHEi0eYh62jG7jgCCPpKJ/BAqUOUZd7kVvdNHImrhbddvS3afTBvWZwNThGfzrJ0WtghTtzqMdGeNGdBxLgTWT9p+Yk8wpnNs/9d68mReEk99NJ7oM1nqMureDFa3fBt3LN7u7Y7aE+/Z8dPuLR20vDgVrTQd6CRVxfUo9vkbe/VUYu75WHY9Wjc3wdAasUT6YeTZGHsH+7uXVMY1zhJu6vhdyun9IL9qtAx0gqDus0zqQOXyIPY3nBtv4J+Ms0MqUprlJmag45AbaLpVOcqQMr9aQet8GvnvxT+gd1cVHxdJLpHXCFe1J43kTYzkOH6ARrDacOu+LgT8J0/mlbVVzUj+e5H8Nfwl7y8A/DYLccOsPLsNqH1OFd+NdmHy/4ojD+9A3/MByXlD3OPySWht0y6QiLXLBa1NfUoTX8K/jM7yTHhuGSZF40ORx/ap7D89YkwHbpdIJfCsF6Cduo3f4iyEPBfy1rh8v8xIuSyuGSp3jOkljY7wwd4EQV2KHiEWo3Exrdmc4LNpXCZaaRMyPgAKdpv5yWsEeDNGrXERrV38JzFhXC5aLXvu6CE6TQfgNhl44eana0CrSq/erSnrhKQTjDcdruA9jnaWq3pyxCyO+024Zo2OgdaretOELHYdrsYGnYKXwJtfsxHiHjAO2V0RD2ivuJ2n1bAKEimfbqBbuVSaZ2SyIRIvbQVi/DfnVOU7svEhAadtNO4+AEt52hdrtvQkj4jTZ6B85wZxq1S3sQoeBX2meGCw7RMp06TIpC8NtO28wOh2PclUkd1pdF0PuVdlkUAQdpm0UdTg6ORpDbQZt8FQ1H6ZBNPfZ0dyGo/UZ7fFMADvOPHOqy8TYEs99oi3VxcJzubuqzsCaC107aYVMROFBPN3Va/VBBBKldtMHPxeFIj3ioV+rUxghKu2m9HaXgUI/TgG2DaiD4JNFySeXgWH1pyOE5/7zBhaCyh1bbXwkONoBGHZ3Xt2kZF4LFXlrsSHU42mCaIX3bkgn929WuVLZE4ZgwONleWmtfTTjcY26aLOdsypF9O3/5acN3y79a8e3q9T9s/nn7zj37Dx87mZqe/QbstY+W2lIajtcxgxaaCHsl00rL4xEE7jhF67wNe+2nhWZGIijcdJiWmQR7HaB1RrkQJCrvpFUmw14HaZWcPgge1/xEi0yBvQ7RImfbIZjEf01rvA97HaI1jjZAcImeT0tMh70O0xI7qyDYhE2mFT6AvY7QChtKIAiNoAVmwl6/0wKfxyIoPeGmuFmw11HKmxyOINUlk9Jmw17HKG4YgleLVAqbC3sdp7CsBxHMbtpLWfNgr+OUldwEwa3EdxS1APY6QVGLiyHYRb5LSQthrxQKyv6XCyGgTxblfAZ7naScvQ0RGm7/nWIWw16nKGZRAkJFhc2UshT2Ok0hWQMQQmI/oZAvYa9Uyth9C0KK6+ksivgv7JVKEfOLINTc/BslLIe9zlBAZl+EoEIzKeBr2OsszbezHkLTA6k03QrYK42mmxuPUFXlB5rtK9grnSbL6IMQFjXWQ3Mtgb0yaK5fbkJoa3OIploIe2XSTOnDohDqEqbTTPNgr0yaaFkV5Aet99I8s2GvLJrmSA/kE3FveWiWj2CvbJrE814C8o+mv9Ik02GvHJrj51uRr8SMyaEppsBebpohbWgk8pubN9MMk2AvD03wVWXkQ+F9jtG4CbAXjTvcDflU0bdyaNR42ItGeSYXQf5140oa9CrsRYMSmyB/67SHhoyCrVw05OyQSOR3BV5MowEvwVZhNCD9jWugAOWn51C352GrcOqW+U4ZKH+oPttDnYbAVhHUKXtqBSh/qfMZ9RkEW0VSF/fMKlCu1HA59egPW0VSB8+c66HkdudaavckbBVF7T6tDcW7u1dTq8dhq2hqtbQeFN+aLPJQk0dhryxqsrwRFP9qTs+iBg/CXvupwXe3Q8lb2XGpDFgP2OtHBuybllACU2ToEQaoPey1kIE5ObEmlMBFd13uYSCqw15PMhCbeheEolHFEcnMU2YE7FWZeUqf0QCKHmF3zcuif2tgt0T6t2NgUSi6lXh6K/1pC7t1oB/ZC1q6oBjT6P1U+rIJ9ltDXw4MLwPFBHGPrKNXh6vBflWP0BvPso4RUMxSc9xR5nL8RjhBnRTmcnxcVSimiur0hZtXmHktnKHaCl4hZ0nnaCjmu7bnhwd40YHJDeEc3Vfm8KKU+Y+XgiKm4m1dBw5+5N6bXHCWYl2fGf/BhCG9GoRDURRFURRFURTFwf4fR4JTtCVMPyYAAAAASUVORK5CYII=;" vertex="1" parent="1">
                    <mxGeometry x="469" y="760" width="42" height="42" as="geometry"/>
                </mxCell>
                <mxCell id="135" value="" style="shape=image;imageAspect=0;aspect=fixed;verticalLabelPosition=bottom;verticalAlign=top;image=data:image/png,iVBORw0KGgoAAAANSUhEUgAAAgAAAAIACAMAAADDpiTIAAAAA3NCSVQICAjb4U/gAAAACXBIWXMAAMinAADIpwFvdAvIAAAAGXRFWHRTb2Z0d2FyZQB3d3cuaW5rc2NhcGUub3Jnm+48GgAAAwBQTFRF////AAAAAAAAAAAAAAAAAAAAAAAAAAAAAAAAAAAAAAAAAAAAAAAAAAAAAAAAAAAAAAAAAAAAAAAAAAAAAAAAAAAAAAAAAAAAAAAAAAAAAAAAAAAAAAAAAAAAAAAAAAAAAAAAAAAAAAAAAAAAAAAAAAAAAAAAAAAAAAAAAAAAAAAAAAAAAAAAAAAAAAAAAAAAAAAAAAAAAAAAAAAAAAAAAAAAAAAAAAAAAAAAAAAAAAAAAAAAAAAAAAAAAAAAAAAAAAAAAAAAAAAAAAAAAAAAAAAAAAAAAAAAAAAAAAAAAAAAAAAAAAAAAAAAAAAAAAAAAAAAAAAAAAAAAAAAAAAAAAAAAAAAAAAAAAAAAAAAAAAAAAAAAAAAAAAAAAAAAAAAAAAAAAAAAAAAAAAAAAAAAAAAAAAAAAAAAAAAAAAAAAAAAAAAAAAAAAAAAAAAAAAAAAAAAAAAAAAAAAAAAAAAAAAAAAAAAAAAAAAAAAAAAAAAAAAAAAAAAAAAAAAAAAAAAAAAAAAAAAAAAAAAAAAAAAAAAAAAAAAAAAAAAAAAAAAAAAAAAAAAAAAAAAAAAAAAAAAAAAAAAAAAAAAAAAAAAAAAAAAAAAAAAAAAAAAAAAAAAAAAAAAAAAAAAAAAAAAAAAAAAAAAAAAAAAAAAAAAAAAAAAAAAAAAAAAAAAAAAAAAAAAAAAAAAAAAAAAAAAAAAAAAAAAAAAAAAAAAAAAAAAAAAAAAAAAAAAAAAAAAAAAAAAAAAAAAAAAAAAAAAAAAAAAAAAAAAAAAAAAAAAAAAAAAAAAAAAAAAAAAAAAAAAAAAAAAAAAAAAAAAAAAAAAAAAAAAAAAAAAAAAAAAAAAAAAAAAAAAAAAAAAAAAAAAAAAAAAAAAAAAAAAAAAAAAAAAAAAAAAAAAAAAAAAAAAAAAAAAAAAAAAAAAAAAAAAAAAAAAAAAAAAAAAAAAAAAAAAAAAAAAAAAAAAAAAAAAAAAAAAAAAAAAAAAAAAAAAAAAAAAAAAAAAAAAAAAAAAAAAACyO34QAAAP90Uk5TAAECAwQFBgcICQoLDA0ODxAREhMUFRYXGBkaGxwdHh8gISIjJCUmJygpKissLS4vMDEyMzQ1Njc4OTo7PD0+P0BBQkNERUZHSElKS0xNTk9QUVJTVFVWV1hZWltcXV5fYGFiY2RlZmdoaWprbG1ub3BxcnN0dXZ3eHl6e3x9fn+AgYKDhIWGh4iJiouMjY6PkJGSk5SVlpeYmZqbnJ2en6ChoqOkpaanqKmqq6ytrq+wsbKztLW2t7i5uru8vb6/wMHCw8TFxsfIycrLzM3Oz9DR0tPU1dbX2Nna29zd3t/g4eLj5OXm5+jp6uvs7e7v8PHy8/T19vf4+fr7/P3+6wjZNQAAHhNJREFUGBntwQmAjfX+BvDnzG6MYWzJml0SXZItLfbqIuLaSlr8yy1Cl0KL5JJCRSURSroIUaiupcWeEncKCYOxZhkMs5/z/JGEOefMeZfv+77nzO/zARRFURRFURRFUUKbq1Dp6jff2a5Hn8EvvzHpnbcnTnjzjdfHjX3t1TGjhvzz/ra331SpWCSUkBNXvdkDz05csCE51cM8pR3+9ftFEwd3u7V8BJTgVqTRwyOn//eXk9THvX/dnLFPdagVBSXYXNvsibdWHKQ5srfPf7lbnRgowaDE3f+ati6F5nP/tnDU/XUjoThW5M1PfrSTstJXv9qhFBTHKX3fa6vSaJGkj/veHAHFIaIbDZy7j1ZL+25Mu0JQbHZd1zc3ZNIu2d8OreeCYpOCbd/ZTdv9PqtnKSiWu37gsgw6xeYxzaKgWCau3aQ9dJgz87vGQbFAzaeXZ9KR0uZ3jYMiKa79u3vpZGnzu8ZBkVH44WWZdL60+V3joJgt6t5P0hks0ua0dEExj+v2904wuCQ9VwaKOWqP2ccglLO4fQQUo8o/m8igdXBUZSgGFH3sOw+DmmdFt2gouoS1W5jJEHDkheJQNIvvv4uhIm1SVSiaVJ2QylDi/rQJlEC5Wi3xMOSs7xQOJQCxj29laNr1ZEEoeajw6gmGruMvxEPx47b5OQxtx56JheJdZK+fmA8c6R8DJbfwXknMJ/b3iYJyJVeX7cxHkh6OgHKZtpuZz+zoEQblohbrmQ8lNodyXuOvmU8tqAil7hLmX+kjCyJ/qznPw3xtf3fkY5U+dDPfW1MP+VTsq1lUSPfUksiP2u6h8oeTA8KR35T7lMpfNt6IfCV8YCqVy2WNiEL+0XAzlav90hD5RJFJHiq5uV+PRX7Q4zAV73Y3R8irtpyKb1OLIKRFD8+g4s/BtghhjXZQycvbMQhRYcOyqeQt8QaEpDJfUwlI2uMIQe2PUwnUgqIIMTFvU9Eg+XaElBsSqWjiHhGO0NEnjYpWayogRBT9lIoOKfcgJNyeTEUX93MuBL3wl91U9FpQCEGu3BoqBvxSFUGt/iEqhpy8G0GsUxoVg9zDXAhWQzxUjJsfh6AUNZ2KKX6piiBU9BsqJkm5A0Gn6g4qpsnsgiBzx3EqJvIMRFB5KIuKuca7EDRco6mYbnY0gkSBeVQEfF0YQaHURioiEssiCJTdSUVIci04XrldVMSk3AaHK7+biqC0FnC0CklURKW3gYNdt4eKsIx74FgV91IRl9kODlVpHxULZHWEI1VOpmKJ7M5woCrJVCyS0w2OU3U/FcvkPACHqXaAioXcveAo1Q9SsZS7Exyk/EEqFstsAceIT6RiudRb4BARy6jY4Nj1cIb3qdgiuTycYBgVm2wvDvt181Cxy8ZCsFvTDCr2WRENe1U7TsVO88Nhp+I7qdjrHdgoZi0Vu/WFbVxzqdgupxXsMoaKA6TUgD0eo+IIvxWFHZrlUHGGFRGwXslDVJxiEizn+oqKc/SF1Z6l4iA5rWCtRtlUnCSlBqyUsIeKs/xaCBZaQMVpZsM6T1Bxnj6wyk0ZVJwnoy6sEfcrFSfaGQ9LfEjFmT6BFR6k4lRPQl6NM1ScKvNmSIvZQhO5U/bvyqBimt1FIGwizfPLE8UBhFVq89Tby/Z5mM94Dq75aMRDd9S//a5B22iaBZDVxEPTfFkQl4lt8sznJ5gvJM0f+8RdNWLwl7vO0iz9ICnyF5pmXSSu5qr1+McnGNLOLu1XDbk1T6dJ0mtA0DCaxtMAXkU0m7CPIerncS2j4d0gmmV9OMRUTadpPoZvdUfsZKhJ+eTRsvAt/iTNMgRiVtA8LeCPq/XCHIaQHx+Mhn9jaJbMWhDSk+Y5HoE8lBtxiKEhe+6tyFNNmubHCIgofpTmmYa8RXZeyeB3bHQ5BOIQTfMiRMygie5BQGq8mcKg9r9HCyAws2iarL9BQDOa6FQ0AhT7yCYGrcV3ImAP0zz/i4LpYnbQRLOgQfstDErbWkGDCjTRKJjuZZqpI7Rw/WMbg86pgZHQZCfNk3MLTFYziyZKj4U24T13Mqh4pl0DjSbTRFujYCrXapppHTSL6L2PwWPDLdCsC830LEz1fzTVm9Ah+smDDA6HH3JBuxIemuhMOZjomhSaqgd0KfCvo3S+7HHx0GULzfQJTPQ2zVUVOsW/mkmHW1sbOo2nqVrCNJWzaKoTLuhWZSGd7MT/uaDXPTTV9iiYZRbN9V8Y0SKROqUd3Lp26cfvjBr8WJfWDerUrnVDzRrVq1WtXKlixRub3NWl98Dh46fO/XLtjgzqlTO9JPQrlE1TPQuT1PHQXCNhSPg/j1GLrN3ffjSqz99rJyAwrlINuwx+e3HiaWqT+V4lGLKWpjpTDuZYQpO1g0EJb2YzAKc3TB903y3XuqBTwt/ufW7eLg8Dcvb1MjBoDM01D6ZoSrOVgmHXf0l/UtZMGdC6HEwR37TftJ8y6VfOVz0LwbCeNFkrmGENTbYPZrhnK73xbJ3Rt/m1MFtknV5vrNxPr1KXP1UKZqhPk/0aBePa0mzzYIqwjht4pQOfDmkWD0EF63QeNmPtMV5yMvGTp+qFwySFaLZnYVhYIs32DMxS7/m1Obzg1IrRHcrAIgkN2t97TusbCsFc+2iyU8Vg1AM0XWuYKLZGy1733VopDKHgK5ptPAyKSqLpboLi3Rs0W0YFGNOX5isLxbs+NN0HMCTuCM0XDcW7e2k6940w4nmaLxWKD41pviUwoNgpmm83FB+qUMDt0G8sBWyA4kMhClgH3RLOUsASKL6kU0BH6PUsJcyA4steCtgeDn0i91PCa1B8+YESekOf7hTxDBRf1lBCciR02UgRD0Px5VuKeAh6NKWMdlB8WUkR21zQYQFltITiyzLK6ADtKrkp4z4ovnxBGeuh3RsU8jAUXxZTyJ3QqvBpChkAxZdFFPIltHqaUoZD8WU5pfwN2oTvoZTXofjyA6XMhjadKWYaFF92UUpOZWiyjmLmQ/HlBMW8Cy0aUs5yKD643BSTUQoazKGcjVB8KExBIxC48jmUswOKD9dR0MFIBOwlCjoCxYcmlNQZgXLtpqAMKD48SEkrEahbKao0FO9GUlQNBOg9imoHxbvZFPUGAhNzkqJGQPHuB4pKiUVAOlPWF1C8O0VZDyMgn1PWUShelaCwjQhEiWwKqwDFmzsorT4C0I/SOkHxZiilTUMAfqC0V6B4s4TS0hKQp5oUtxyKF64TFNcXeRpNcSkuKLnVpLx1yEvYPsqrCiW3R2mBishDM1qgG5TcptMCQ5GHGbTAOCi5/UILJMK/2FRa4AMouZ2iFWrBrx60wkwoucTSEqPg11e0wkdQcqlMS+yGPwk5tMLHUHJpQGs0hB9daYk3oeRSitaYAD9m0hItoOR2kJY4HA6fwo7RCgcioeT2NK3RAj41oiU6QfEiOpGWmAafRtIKs6F4VeMMrXAsDL78RAtsjYPi3f20RCP4UIYWOF0Dii9TaIWR8OH/aIHOUHyK2UILbIIPiyhvHBQ/qp2mBUrDq+gzFPdtBBR/utICj8Cr1hR3sBQU/yZR3nx4NYHSsm+FkofoTRR3OhLe7KK0YVDyVD2T4prBixqUtiMKSt7GUNxYePE0pd0NJQCFDlLaNnixksI+hxKQByiuInKJz6KsjCpQAuJaS2lPIJdOFPZvKAG62U1h85HLJMpKLgglUFMp7Ahy2UJZXaEErORJCquKq8S7KeobKBr0p7CHcJVWlFUfigYR2ynrfVxlOEWtgqLJI5T1K66yjKI6QtEk5ghllcQVwk5TUlI4FG1epKwOuEIdihoARaMS6RQ1Dlf4JyWdjoei1XsU9T2u8BElvQlFs+s9lJQdi8slUZC7MhTtllBUM1zmWkpaCEWH5hT1Ai5zHyXdAUWPzZS0GJcZT0H7XVD0eIyS9uEy6ynobSi6lHRTUgIuicmioBZQ9PmGkm7DJU0p6EQEFH36UlJfXPIMBX0IRaeyHgqagks+o6AOUPRaT0EbcMlhykmLhaLXIAo6G4aLEihoIRTdKlNSNVzUmIIehKLfZgrqhIseoZycolD0e56CRuCisZSzBYoB9ShoIS5aQjlToBgQkUY5u3HRbsrpDcWINZTjicMFBdyUUweKEeMpqDYuuIlyzoZDMaIrBbXDBd0oZxUUQypRUD9cMIJyxkEx5ijljMcFcymnCxRjllDOAlyQSDkVoRjzAuVswnnhmRRzFIpBbSjnBM6rSjkroBhUnILicU47ynkfilGnKac2znmGcp6HYtTPlNMO58ygnAegGLWUcvrhnA2UcxsUoyZRznicc5xyykMxagjlLAAQRTnZ4VCM6kE5GwCUo5wkKIbdSjnbAdxMOV9DMaw85RwE8HfKmQ7FsPAcijkD4FHKGQ7FuL2UEw4Mo5ynoBj3A+UUASZSzqNQjPuOcsoDn1BONyjGfUk5tYDvKKcdFOM+pZzGwA7KaQbFuFmU0wY4TTkNoBg3lXL+gQIUVAuKcRMo51FUpKCKUIx7hXIGohEFlYRi3IuUMxz3UlAsFOMGUc54PE5BYVCMe4JypmA4BUVDMa4v5czBJAoqDMW4QZTzBWZSUEkoxr1AOWvwHwoqD8W40ZSTiHkUVBWKca9Tzl4soqAboRj3LuWkYCkF3QzFuA8o5yyWUVATKMbNoZwT+IaCmkMx7jPKOYjVFHQ3FOOWUU4SNlBQVyjGraKc7dhEQQOgGJdIOVuQSEGvQTHuKOV8j+0UNAuKYZEeylmFXRS0EophZShoOfZS0HYohtWjoCU4SEGnoRh2DwUtwFFKKgjFqEco6D84SUlVoRg1jIJm4Cwl3Q7FqIkUNBmnKKkbFKPmUtAE7KekF6AYtYqCXsNWSpoNxahDFDQS6ylpCxSDClPSc/gvJWWEQzGmASUNwjyKqgrFmAcpqR+mUVR7KMa8QkmP4Q2KGgLFmIWU1BMjKGomFGO2U1JLDKKoH6EYEplNSdfjMYo664JiRA2KikM3yqoBxYgOlJQC3ENZj0IxYiQlJQJNKesDKEaspKSlQB3K2gXFgIgzlDQZqEhhpaHoV5eingOKUdg/oOjXl6J6AVEUNgGKfv+hqOYAjlPWT1D020tR1QBspCx3PBS9ylBWLIC5FNYail6dKeo4znmFwsZC0WsCRW3GOY9R2A4oeu2mqM9xTitKqwFFn1qU9Q7OqUJpg6HoM5SyhuKcSDeFrYaizwbKegDn7aUwdwkoelzroaw7cN43lNYLih69KawyzptGaQug6LGYsjwxOO95SjsTA0W7gumUtQMX3E9xbaFo15HCZuOCxhS3AIp2iylsEC64luKySkLRqpybwprjAlcaxT0NRauXKC0Bf9hKcVuhaBSeTGG7cdEiymsERZu2lDYPFz1PeVOhaPM5pQ3FRW0oLzUOihblciitDS4qRgs8DEWL4RRXAn/aRXkboWgQc4jSknHJbFqgBZTAPUVxi3DJQFpgBZSAxRykuBdxSVNaoQGUQPWjvL/jkoI5tMBCKAGKOUB5pfGX/9ECnhugBKYv5R3GZd6nFWZCCUj0Acpbgss8TitkV4QSiCdpgZdxmbq0xPtQAlD4EC3QAZeJTKcVPPWh5O0tWqECLreelljvgpKX+m5a4DCuMIHWeAhKHsJ/pBU+xBUeoDUOF4biXz9aohuuUJUWGQ/Fr9KnaQV3MVxpF62RXROKP5/QEutwlQm0yNdhUHz7O63xAq7SmlYZCsWnMkdpjfq4SvRZWiS7MRQfIlbRGr+7cLXPaJW9CVC8G02LzEQuj9Eyn0Lx6i4PLdIduZSjdZ6E4kXZY7SIuxhy20LLZNSDkkvEalplPbwYRescqQblauNpmRfhxa200J6yUK40kNa5BV6EH6eFthaDcrkHPLTM72Hw5mNa6fs4KH+5O5vWmQmvetBSK6Kh/KnRWVqoO7wq5qalFoRD+UPN47SQuzi8W0trTXNBOa98Mq20Hj4Mo8XGQzmnWhIt9SJ8uJ5WmxEJpf5RWutm+LKBVvs6Afldq1Raazt86kPLba+E/K17Fi02BD4lZNByRxsjP+vvocXcZeHbHFovvQvyLdcrtNxX8OMu2sAzFPlU8S9ovW7wI/wA7TAtGvlR42Ra72QB+DOGtthyI/Kfp7Npg/fg1/W0R8ZAF/KXhEW0RWP4t542WVkO+Un9JNriV+ThcdolpRvyjeiXMmmPochDkXTa5uMiyB+a76BN3OWQl9m0T3IL5AMlZ9I2/0We2tBOn1ZDiHP1PkH7dEeewg/QTlkTiyOU1VpNG50qgLy9QnudfCYGoaryBzm00xQEoJqHNtvTw4VQVGFKNu3VBIFYSNttvAMhp8zbmbTZDgSkER1gXedwhJJr3kin7YYhMN/RCfYMiEeoqPXuWdrPXQ6BuYf67Z/eo9c7iR6a4dT4CggBEZ2+oSN8hgC5/kddzi7tXxMXFGs/bmMOjcuZ2xBB7prn99MhGiNQ91Mz9w+j7ozC5Yr330IT/DjgWgSvxrMy6RTfIWARe6jJyfe7FIcXdScep3HuZb3iEYzqjt5JB7kLgetHTVLLwoeYAUdpgvS57aMQXOqO3klH2QwNYo9RkwXwKf6lVJrhxOQW0QgWdUfvpNN0gxbDqU1b+FZygpumOLu0//VwvJJdp+6h8+wKhxbFzlKTvQXhR5PdNMu+qZ2LwrHi7h63xUNHehzavEltXoM/habTPO71L99dHI5TsOmLq7LoVIdioE2FbGqSXRd+3XeMpto5q98tUXCIwncM/Girm072DLSaSW12xMGvittptsz1b3avHg5bFW/17NydHjrdyXhodaOH2nwI/xK+pYTM//3nuQ7VwmG56NrdRi7cx+AwGtotpEZjXfArahbFZGyeNbR9lTDEwgKRNf/x0rxtOQwe6ddAuxrZ1OijSPjlGk1Z6avqQdg1z8/5OYvB5h3o8Ra12lAN/o2jrGmQ5lrE4JNTEXoUP0mtzv4T/k2hqMYQF7+dQWcW9BlM7b4sDX/C5lDQVligxmkGm9rQJzqJ2h1vC38iv6Ccp2GF9h4Gl8XQqyt1cA+CP0X2UEpWCVhiBIPLrdDLtZ56TI+CH42zKeQTWMO1mMFkCfRrQl1WlYAfwyikDSxSeB+DR1Z1GPAJddl9HXwLW0kR+8JglS4MHq/DiMqZ1GVPRfhW+iglDId1VjFYHCsCQ8ZRn72V4Ns9FOCuAOvUdTNI9IExCcepz77K8O11mu8rWGkqg0NiOAzqT52Sy8GnqE00XWdY6ZpTDAotYFTkb9Rpcxx8qpZKkx2NgqX+xWCwCMZ1oF6fhcGnnjTZeFgrKonOl1kFJlhMvcbBtw9prpqw2GA632swQ5mT1Ks3fIrbQTOthdVKZNLpjsTDFI9Sr/Tq8OlvGTTRI7Dcx3S63jDJcuq1Jgw+9aN5UuNgudvocJvDYJLrzlCvAfBtEU0zBTbYSme7A6bpS73SqsCnosk0S0PYoB8dbT7M41pFvb5zwaemOTTHz7BDkTQ6WEYlmKhaOvXqC99eoDn6wxZL6GCjYapB1OtMJfjkep9myCwGWwygcx0qBFOFf0+9Vrrgk2sqTTAH9qhN5+oIk9XKpF594JtrCo1rCXu4jtCpPoTpXqBeqaXhm+s9GpXkgk0+pkPtKwzTRW6hXuPhh2syDXoBdnmEzuRpDgF1s6nT2eLww/UuDXGXg10q0JkmQMQo6jUS/rgm0YilsE8SnWh7AYiI+p46nYyHP64BGdSvI+zzOR0o5xYIue4EdRoCrwreiT/csJl6HYmEfV6lA42AmHYe6vN7LLy4dpPn5TBcEDXGTX2eg40eovP8GAk5r1Gnp5Bb2CqSSxPwh9uSqMf3EbBRAzpOek0IilhNfZKjkEtvnrc5AX+In0HtVifATvF0nIEQVfYo9emNXMqc5HkbCuGiDj9Tm6MDomGv/XSYb8Igq7WHuuwMRy4P8oJvw/GnVl8ycKdGxMNuy+gsp6+DtJepT3fk9jnPW43L3DAlnYE4+G6bKNhvMp3lYYgLX0ldfnYhlxJ7eU5rXKHEi0eYh62jG7jgCCPpKJ/BAqUOUZd7kVvdNHImrhbddvS3afTBvWZwNThGfzrJ0WtghTtzqMdGeNGdBxLgTWT9p+Yk8wpnNs/9d68mReEk99NJ7oM1nqMureDFa3fBt3LN7u7Y7aE+/Z8dPuLR20vDgVrTQd6CRVxfUo9vkbe/VUYu75WHY9Wjc3wdAasUT6YeTZGHsH+7uXVMY1zhJu6vhdyun9IL9qtAx0gqDus0zqQOXyIPY3nBtv4J+Ms0MqUprlJmag45AbaLpVOcqQMr9aQet8GvnvxT+gd1cVHxdJLpHXCFe1J43kTYzkOH6ARrDacOu+LgT8J0/mlbVVzUj+e5H8Nfwl7y8A/DYLccOsPLsNqH1OFd+NdmHy/4ojD+9A3/MByXlD3OPySWht0y6QiLXLBa1NfUoTX8K/jM7yTHhuGSZF40ORx/ap7D89YkwHbpdIJfCsF6Cduo3f4iyEPBfy1rh8v8xIuSyuGSp3jOkljY7wwd4EQV2KHiEWo3Exrdmc4LNpXCZaaRMyPgAKdpv5yWsEeDNGrXERrV38JzFhXC5aLXvu6CE6TQfgNhl44eana0CrSq/erSnrhKQTjDcdruA9jnaWq3pyxCyO+024Zo2OgdaretOELHYdrsYGnYKXwJtfsxHiHjAO2V0RD2ivuJ2n1bAKEimfbqBbuVSaZ2SyIRIvbQVi/DfnVOU7svEhAadtNO4+AEt52hdrtvQkj4jTZ6B85wZxq1S3sQoeBX2meGCw7RMp06TIpC8NtO28wOh2PclUkd1pdF0PuVdlkUAQdpm0UdTg6ORpDbQZt8FQ1H6ZBNPfZ0dyGo/UZ7fFMADvOPHOqy8TYEs99oi3VxcJzubuqzsCaC107aYVMROFBPN3Va/VBBBKldtMHPxeFIj3ioV+rUxghKu2m9HaXgUI/TgG2DaiD4JNFySeXgWH1pyOE5/7zBhaCyh1bbXwkONoBGHZ3Xt2kZF4LFXlrsSHU42mCaIX3bkgn929WuVLZE4ZgwONleWmtfTTjcY26aLOdsypF9O3/5acN3y79a8e3q9T9s/nn7zj37Dx87mZqe/QbstY+W2lIajtcxgxaaCHsl00rL4xEE7jhF67wNe+2nhWZGIijcdJiWmQR7HaB1RrkQJCrvpFUmw14HaZWcPgge1/xEi0yBvQ7RImfbIZjEf01rvA97HaI1jjZAcImeT0tMh70O0xI7qyDYhE2mFT6AvY7QChtKIAiNoAVmwl6/0wKfxyIoPeGmuFmw11HKmxyOINUlk9Jmw17HKG4YgleLVAqbC3sdp7CsBxHMbtpLWfNgr+OUldwEwa3EdxS1APY6QVGLiyHYRb5LSQthrxQKyv6XCyGgTxblfAZ7naScvQ0RGm7/nWIWw16nKGZRAkJFhc2UshT2Ok0hWQMQQmI/oZAvYa9Uyth9C0KK6+ksivgv7JVKEfOLINTc/BslLIe9zlBAZl+EoEIzKeBr2OsszbezHkLTA6k03QrYK42mmxuPUFXlB5rtK9grnSbL6IMQFjXWQ3Mtgb0yaK5fbkJoa3OIploIe2XSTOnDohDqEqbTTPNgr0yaaFkV5Aet99I8s2GvLJrmSA/kE3FveWiWj2CvbJrE814C8o+mv9Ik02GvHJrj51uRr8SMyaEppsBebpohbWgk8pubN9MMk2AvD03wVWXkQ+F9jtG4CbAXjTvcDflU0bdyaNR42ItGeSYXQf5140oa9CrsRYMSmyB/67SHhoyCrVw05OyQSOR3BV5MowEvwVZhNCD9jWugAOWn51C352GrcOqW+U4ZKH+oPttDnYbAVhHUKXtqBSh/qfMZ9RkEW0VSF/fMKlCu1HA59egPW0VSB8+c66HkdudaavckbBVF7T6tDcW7u1dTq8dhq2hqtbQeFN+aLPJQk0dhryxqsrwRFP9qTs+iBg/CXvupwXe3Q8lb2XGpDFgP2OtHBuybllACU2ToEQaoPey1kIE5ObEmlMBFd13uYSCqw15PMhCbeheEolHFEcnMU2YE7FWZeUqf0QCKHmF3zcuif2tgt0T6t2NgUSi6lXh6K/1pC7t1oB/ZC1q6oBjT6P1U+rIJ9ltDXw4MLwPFBHGPrKNXh6vBflWP0BvPso4RUMxSc9xR5nL8RjhBnRTmcnxcVSimiur0hZtXmHktnKHaCl4hZ0nnaCjmu7bnhwd40YHJDeEc3Vfm8KKU+Y+XgiKm4m1dBw5+5N6bXHCWYl2fGf/BhCG9GoRDURRFURRFURTFwf4fR4JTtCVMPyYAAAAASUVORK5CYII=;" vertex="1" parent="1">
                    <mxGeometry x="169" y="1505" width="42" height="42" as="geometry"/>
                </mxCell>
                <mxCell id="136" value="" style="shape=image;imageAspect=0;aspect=fixed;verticalLabelPosition=bottom;verticalAlign=top;image=data:image/png,iVBORw0KGgoAAAANSUhEUgAAAgAAAAIACAMAAADDpiTIAAAAA3NCSVQICAjb4U/gAAAACXBIWXMAAMinAADIpwFvdAvIAAAAGXRFWHRTb2Z0d2FyZQB3d3cuaW5rc2NhcGUub3Jnm+48GgAAAwBQTFRF////AAAAAAAAAAAAAAAAAAAAAAAAAAAAAAAAAAAAAAAAAAAAAAAAAAAAAAAAAAAAAAAAAAAAAAAAAAAAAAAAAAAAAAAAAAAAAAAAAAAAAAAAAAAAAAAAAAAAAAAAAAAAAAAAAAAAAAAAAAAAAAAAAAAAAAAAAAAAAAAAAAAAAAAAAAAAAAAAAAAAAAAAAAAAAAAAAAAAAAAAAAAAAAAAAAAAAAAAAAAAAAAAAAAAAAAAAAAAAAAAAAAAAAAAAAAAAAAAAAAAAAAAAAAAAAAAAAAAAAAAAAAAAAAAAAAAAAAAAAAAAAAAAAAAAAAAAAAAAAAAAAAAAAAAAAAAAAAAAAAAAAAAAAAAAAAAAAAAAAAAAAAAAAAAAAAAAAAAAAAAAAAAAAAAAAAAAAAAAAAAAAAAAAAAAAAAAAAAAAAAAAAAAAAAAAAAAAAAAAAAAAAAAAAAAAAAAAAAAAAAAAAAAAAAAAAAAAAAAAAAAAAAAAAAAAAAAAAAAAAAAAAAAAAAAAAAAAAAAAAAAAAAAAAAAAAAAAAAAAAAAAAAAAAAAAAAAAAAAAAAAAAAAAAAAAAAAAAAAAAAAAAAAAAAAAAAAAAAAAAAAAAAAAAAAAAAAAAAAAAAAAAAAAAAAAAAAAAAAAAAAAAAAAAAAAAAAAAAAAAAAAAAAAAAAAAAAAAAAAAAAAAAAAAAAAAAAAAAAAAAAAAAAAAAAAAAAAAAAAAAAAAAAAAAAAAAAAAAAAAAAAAAAAAAAAAAAAAAAAAAAAAAAAAAAAAAAAAAAAAAAAAAAAAAAAAAAAAAAAAAAAAAAAAAAAAAAAAAAAAAAAAAAAAAAAAAAAAAAAAAAAAAAAAAAAAAAAAAAAAAAAAAAAAAAAAAAAAAAAAAAAAAAAAAAAAAAAAAAAAAAAAAAAAAAAAAAAAAAAAAAAAAAAAAAAAAAAAAAAAAAAAAAAAAAAAAAAAAAAAAAAAAAAAAAAAAAAAAAAAAAAAAAAAAAAAAAAAAAAAAAAAAAAAAAAAAAAAAAAAACyO34QAAAP90Uk5TAAECAwQFBgcICQoLDA0ODxAREhMUFRYXGBkaGxwdHh8gISIjJCUmJygpKissLS4vMDEyMzQ1Njc4OTo7PD0+P0BBQkNERUZHSElKS0xNTk9QUVJTVFVWV1hZWltcXV5fYGFiY2RlZmdoaWprbG1ub3BxcnN0dXZ3eHl6e3x9fn+AgYKDhIWGh4iJiouMjY6PkJGSk5SVlpeYmZqbnJ2en6ChoqOkpaanqKmqq6ytrq+wsbKztLW2t7i5uru8vb6/wMHCw8TFxsfIycrLzM3Oz9DR0tPU1dbX2Nna29zd3t/g4eLj5OXm5+jp6uvs7e7v8PHy8/T19vf4+fr7/P3+6wjZNQAAHhNJREFUGBntwQmAjfX+BvDnzG6MYWzJml0SXZItLfbqIuLaSlr8yy1Cl0KL5JJCRSURSroIUaiupcWeEncKCYOxZhkMs5/z/JGEOefMeZfv+77nzO/zARRFURRFURRFUUKbq1Dp6jff2a5Hn8EvvzHpnbcnTnjzjdfHjX3t1TGjhvzz/ra331SpWCSUkBNXvdkDz05csCE51cM8pR3+9ftFEwd3u7V8BJTgVqTRwyOn//eXk9THvX/dnLFPdagVBSXYXNvsibdWHKQ5srfPf7lbnRgowaDE3f+ati6F5nP/tnDU/XUjoThW5M1PfrSTstJXv9qhFBTHKX3fa6vSaJGkj/veHAHFIaIbDZy7j1ZL+25Mu0JQbHZd1zc3ZNIu2d8OreeCYpOCbd/ZTdv9PqtnKSiWu37gsgw6xeYxzaKgWCau3aQ9dJgz87vGQbFAzaeXZ9KR0uZ3jYMiKa79u3vpZGnzu8ZBkVH44WWZdL60+V3joJgt6t5P0hks0ua0dEExj+v2904wuCQ9VwaKOWqP2ccglLO4fQQUo8o/m8igdXBUZSgGFH3sOw+DmmdFt2gouoS1W5jJEHDkheJQNIvvv4uhIm1SVSiaVJ2QylDi/rQJlEC5Wi3xMOSs7xQOJQCxj29laNr1ZEEoeajw6gmGruMvxEPx47b5OQxtx56JheJdZK+fmA8c6R8DJbfwXknMJ/b3iYJyJVeX7cxHkh6OgHKZtpuZz+zoEQblohbrmQ8lNodyXuOvmU8tqAil7hLmX+kjCyJ/qznPw3xtf3fkY5U+dDPfW1MP+VTsq1lUSPfUksiP2u6h8oeTA8KR35T7lMpfNt6IfCV8YCqVy2WNiEL+0XAzlav90hD5RJFJHiq5uV+PRX7Q4zAV73Y3R8irtpyKb1OLIKRFD8+g4s/BtghhjXZQycvbMQhRYcOyqeQt8QaEpDJfUwlI2uMIQe2PUwnUgqIIMTFvU9Eg+XaElBsSqWjiHhGO0NEnjYpWayogRBT9lIoOKfcgJNyeTEUX93MuBL3wl91U9FpQCEGu3BoqBvxSFUGt/iEqhpy8G0GsUxoVg9zDXAhWQzxUjJsfh6AUNZ2KKX6piiBU9BsqJkm5A0Gn6g4qpsnsgiBzx3EqJvIMRFB5KIuKuca7EDRco6mYbnY0gkSBeVQEfF0YQaHURioiEssiCJTdSUVIci04XrldVMSk3AaHK7+biqC0FnC0CklURKW3gYNdt4eKsIx74FgV91IRl9kODlVpHxULZHWEI1VOpmKJ7M5woCrJVCyS0w2OU3U/FcvkPACHqXaAioXcveAo1Q9SsZS7Exyk/EEqFstsAceIT6RiudRb4BARy6jY4Nj1cIb3qdgiuTycYBgVm2wvDvt181Cxy8ZCsFvTDCr2WRENe1U7TsVO88Nhp+I7qdjrHdgoZi0Vu/WFbVxzqdgupxXsMoaKA6TUgD0eo+IIvxWFHZrlUHGGFRGwXslDVJxiEizn+oqKc/SF1Z6l4iA5rWCtRtlUnCSlBqyUsIeKs/xaCBZaQMVpZsM6T1Bxnj6wyk0ZVJwnoy6sEfcrFSfaGQ9LfEjFmT6BFR6k4lRPQl6NM1ScKvNmSIvZQhO5U/bvyqBimt1FIGwizfPLE8UBhFVq89Tby/Z5mM94Dq75aMRDd9S//a5B22iaBZDVxEPTfFkQl4lt8sznJ5gvJM0f+8RdNWLwl7vO0iz9ICnyF5pmXSSu5qr1+McnGNLOLu1XDbk1T6dJ0mtA0DCaxtMAXkU0m7CPIerncS2j4d0gmmV9OMRUTadpPoZvdUfsZKhJ+eTRsvAt/iTNMgRiVtA8LeCPq/XCHIaQHx+Mhn9jaJbMWhDSk+Y5HoE8lBtxiKEhe+6tyFNNmubHCIgofpTmmYa8RXZeyeB3bHQ5BOIQTfMiRMygie5BQGq8mcKg9r9HCyAws2iarL9BQDOa6FQ0AhT7yCYGrcV3ImAP0zz/i4LpYnbQRLOgQfstDErbWkGDCjTRKJjuZZqpI7Rw/WMbg86pgZHQZCfNk3MLTFYziyZKj4U24T13Mqh4pl0DjSbTRFujYCrXapppHTSL6L2PwWPDLdCsC830LEz1fzTVm9Ah+smDDA6HH3JBuxIemuhMOZjomhSaqgd0KfCvo3S+7HHx0GULzfQJTPQ2zVUVOsW/mkmHW1sbOo2nqVrCNJWzaKoTLuhWZSGd7MT/uaDXPTTV9iiYZRbN9V8Y0SKROqUd3Lp26cfvjBr8WJfWDerUrnVDzRrVq1WtXKlixRub3NWl98Dh46fO/XLtjgzqlTO9JPQrlE1TPQuT1PHQXCNhSPg/j1GLrN3ffjSqz99rJyAwrlINuwx+e3HiaWqT+V4lGLKWpjpTDuZYQpO1g0EJb2YzAKc3TB903y3XuqBTwt/ufW7eLg8Dcvb1MjBoDM01D6ZoSrOVgmHXf0l/UtZMGdC6HEwR37TftJ8y6VfOVz0LwbCeNFkrmGENTbYPZrhnK73xbJ3Rt/m1MFtknV5vrNxPr1KXP1UKZqhPk/0aBePa0mzzYIqwjht4pQOfDmkWD0EF63QeNmPtMV5yMvGTp+qFwySFaLZnYVhYIs32DMxS7/m1Obzg1IrRHcrAIgkN2t97TusbCsFc+2iyU8Vg1AM0XWuYKLZGy1733VopDKHgK5ptPAyKSqLpboLi3Rs0W0YFGNOX5isLxbs+NN0HMCTuCM0XDcW7e2k6940w4nmaLxWKD41pviUwoNgpmm83FB+qUMDt0G8sBWyA4kMhClgH3RLOUsASKL6kU0BH6PUsJcyA4steCtgeDn0i91PCa1B8+YESekOf7hTxDBRf1lBCciR02UgRD0Px5VuKeAh6NKWMdlB8WUkR21zQYQFltITiyzLK6ADtKrkp4z4ovnxBGeuh3RsU8jAUXxZTyJ3QqvBpChkAxZdFFPIltHqaUoZD8WU5pfwN2oTvoZTXofjyA6XMhjadKWYaFF92UUpOZWiyjmLmQ/HlBMW8Cy0aUs5yKD643BSTUQoazKGcjVB8KExBIxC48jmUswOKD9dR0MFIBOwlCjoCxYcmlNQZgXLtpqAMKD48SEkrEahbKao0FO9GUlQNBOg9imoHxbvZFPUGAhNzkqJGQPHuB4pKiUVAOlPWF1C8O0VZDyMgn1PWUShelaCwjQhEiWwKqwDFmzsorT4C0I/SOkHxZiilTUMAfqC0V6B4s4TS0hKQp5oUtxyKF64TFNcXeRpNcSkuKLnVpLx1yEvYPsqrCiW3R2mBishDM1qgG5TcptMCQ5GHGbTAOCi5/UILJMK/2FRa4AMouZ2iFWrBrx60wkwoucTSEqPg11e0wkdQcqlMS+yGPwk5tMLHUHJpQGs0hB9daYk3oeRSitaYAD9m0hItoOR2kJY4HA6fwo7RCgcioeT2NK3RAj41oiU6QfEiOpGWmAafRtIKs6F4VeMMrXAsDL78RAtsjYPi3f20RCP4UIYWOF0Dii9TaIWR8OH/aIHOUHyK2UILbIIPiyhvHBQ/qp2mBUrDq+gzFPdtBBR/utICj8Cr1hR3sBQU/yZR3nx4NYHSsm+FkofoTRR3OhLe7KK0YVDyVD2T4prBixqUtiMKSt7GUNxYePE0pd0NJQCFDlLaNnixksI+hxKQByiuInKJz6KsjCpQAuJaS2lPIJdOFPZvKAG62U1h85HLJMpKLgglUFMp7Ahy2UJZXaEErORJCquKq8S7KeobKBr0p7CHcJVWlFUfigYR2ynrfVxlOEWtgqLJI5T1K66yjKI6QtEk5ghllcQVwk5TUlI4FG1epKwOuEIdihoARaMS6RQ1Dlf4JyWdjoei1XsU9T2u8BElvQlFs+s9lJQdi8slUZC7MhTtllBUM1zmWkpaCEWH5hT1Ai5zHyXdAUWPzZS0GJcZT0H7XVD0eIyS9uEy6ynobSi6lHRTUgIuicmioBZQ9PmGkm7DJU0p6EQEFH36UlJfXPIMBX0IRaeyHgqagks+o6AOUPRaT0EbcMlhykmLhaLXIAo6G4aLEihoIRTdKlNSNVzUmIIehKLfZgrqhIseoZycolD0e56CRuCisZSzBYoB9ShoIS5aQjlToBgQkUY5u3HRbsrpDcWINZTjicMFBdyUUweKEeMpqDYuuIlyzoZDMaIrBbXDBd0oZxUUQypRUD9cMIJyxkEx5ijljMcFcymnCxRjllDOAlyQSDkVoRjzAuVswnnhmRRzFIpBbSjnBM6rSjkroBhUnILicU47ynkfilGnKac2znmGcp6HYtTPlNMO58ygnAegGLWUcvrhnA2UcxsUoyZRznicc5xyykMxagjlLAAQRTnZ4VCM6kE5GwCUo5wkKIbdSjnbAdxMOV9DMaw85RwE8HfKmQ7FsPAcijkD4FHKGQ7FuL2UEw4Mo5ynoBj3A+UUASZSzqNQjPuOcsoDn1BONyjGfUk5tYDvKKcdFOM+pZzGwA7KaQbFuFmU0wY4TTkNoBg3lXL+gQIUVAuKcRMo51FUpKCKUIx7hXIGohEFlYRi3IuUMxz3UlAsFOMGUc54PE5BYVCMe4JypmA4BUVDMa4v5czBJAoqDMW4QZTzBWZSUEkoxr1AOWvwHwoqD8W40ZSTiHkUVBWKca9Tzl4soqAboRj3LuWkYCkF3QzFuA8o5yyWUVATKMbNoZwT+IaCmkMx7jPKOYjVFHQ3FOOWUU4SNlBQVyjGraKc7dhEQQOgGJdIOVuQSEGvQTHuKOV8j+0UNAuKYZEeylmFXRS0EophZShoOfZS0HYohtWjoCU4SEGnoRh2DwUtwFFKKgjFqEco6D84SUlVoRg1jIJm4Cwl3Q7FqIkUNBmnKKkbFKPmUtAE7KekF6AYtYqCXsNWSpoNxahDFDQS6ylpCxSDClPSc/gvJWWEQzGmASUNwjyKqgrFmAcpqR+mUVR7KMa8QkmP4Q2KGgLFmIWU1BMjKGomFGO2U1JLDKKoH6EYEplNSdfjMYo664JiRA2KikM3yqoBxYgOlJQC3ENZj0IxYiQlJQJNKesDKEaspKSlQB3K2gXFgIgzlDQZqEhhpaHoV5eingOKUdg/oOjXl6J6AVEUNgGKfv+hqOYAjlPWT1D020tR1QBspCx3PBS9ylBWLIC5FNYail6dKeo4znmFwsZC0WsCRW3GOY9R2A4oeu2mqM9xTitKqwFFn1qU9Q7OqUJpg6HoM5SyhuKcSDeFrYaizwbKegDn7aUwdwkoelzroaw7cN43lNYLih69KawyzptGaQug6LGYsjwxOO95SjsTA0W7gumUtQMX3E9xbaFo15HCZuOCxhS3AIp2iylsEC64luKySkLRqpybwprjAlcaxT0NRauXKC0Bf9hKcVuhaBSeTGG7cdEiymsERZu2lDYPFz1PeVOhaPM5pQ3FRW0oLzUOihblciitDS4qRgs8DEWL4RRXAn/aRXkboWgQc4jSknHJbFqgBZTAPUVxi3DJQFpgBZSAxRykuBdxSVNaoQGUQPWjvL/jkoI5tMBCKAGKOUB5pfGX/9ECnhugBKYv5R3GZd6nFWZCCUj0Acpbgss8TitkV4QSiCdpgZdxmbq0xPtQAlD4EC3QAZeJTKcVPPWh5O0tWqECLreelljvgpKX+m5a4DCuMIHWeAhKHsJ/pBU+xBUeoDUOF4biXz9aohuuUJUWGQ/Fr9KnaQV3MVxpF62RXROKP5/QEutwlQm0yNdhUHz7O63xAq7SmlYZCsWnMkdpjfq4SvRZWiS7MRQfIlbRGr+7cLXPaJW9CVC8G02LzEQuj9Eyn0Lx6i4PLdIduZSjdZ6E4kXZY7SIuxhy20LLZNSDkkvEalplPbwYRescqQblauNpmRfhxa200J6yUK40kNa5BV6EH6eFthaDcrkHPLTM72Hw5mNa6fs4KH+5O5vWmQmvetBSK6Kh/KnRWVqoO7wq5qalFoRD+UPN47SQuzi8W0trTXNBOa98Mq20Hj4Mo8XGQzmnWhIt9SJ8uJ5WmxEJpf5RWutm+LKBVvs6Afldq1Raazt86kPLba+E/K17Fi02BD4lZNByRxsjP+vvocXcZeHbHFovvQvyLdcrtNxX8OMu2sAzFPlU8S9ovW7wI/wA7TAtGvlR42Ra72QB+DOGtthyI/Kfp7Npg/fg1/W0R8ZAF/KXhEW0RWP4t542WVkO+Un9JNriV+ThcdolpRvyjeiXMmmPochDkXTa5uMiyB+a76BN3OWQl9m0T3IL5AMlZ9I2/0We2tBOn1ZDiHP1PkH7dEeewg/QTlkTiyOU1VpNG50qgLy9QnudfCYGoaryBzm00xQEoJqHNtvTw4VQVGFKNu3VBIFYSNttvAMhp8zbmbTZDgSkER1gXedwhJJr3kin7YYhMN/RCfYMiEeoqPXuWdrPXQ6BuYf67Z/eo9c7iR6a4dT4CggBEZ2+oSN8hgC5/kddzi7tXxMXFGs/bmMOjcuZ2xBB7prn99MhGiNQ91Mz9w+j7ozC5Yr330IT/DjgWgSvxrMy6RTfIWARe6jJyfe7FIcXdScep3HuZb3iEYzqjt5JB7kLgetHTVLLwoeYAUdpgvS57aMQXOqO3klH2QwNYo9RkwXwKf6lVJrhxOQW0QgWdUfvpNN0gxbDqU1b+FZygpumOLu0//VwvJJdp+6h8+wKhxbFzlKTvQXhR5PdNMu+qZ2LwrHi7h63xUNHehzavEltXoM/habTPO71L99dHI5TsOmLq7LoVIdioE2FbGqSXRd+3XeMpto5q98tUXCIwncM/Girm072DLSaSW12xMGvittptsz1b3avHg5bFW/17NydHjrdyXhodaOH2nwI/xK+pYTM//3nuQ7VwmG56NrdRi7cx+AwGtotpEZjXfArahbFZGyeNbR9lTDEwgKRNf/x0rxtOQwe6ddAuxrZ1OijSPjlGk1Z6avqQdg1z8/5OYvB5h3o8Ra12lAN/o2jrGmQ5lrE4JNTEXoUP0mtzv4T/k2hqMYQF7+dQWcW9BlM7b4sDX/C5lDQVligxmkGm9rQJzqJ2h1vC38iv6Ccp2GF9h4Gl8XQqyt1cA+CP0X2UEpWCVhiBIPLrdDLtZ56TI+CH42zKeQTWMO1mMFkCfRrQl1WlYAfwyikDSxSeB+DR1Z1GPAJddl9HXwLW0kR+8JglS4MHq/DiMqZ1GVPRfhW+iglDId1VjFYHCsCQ8ZRn72V4Ns9FOCuAOvUdTNI9IExCcepz77K8O11mu8rWGkqg0NiOAzqT52Sy8GnqE00XWdY6ZpTDAotYFTkb9Rpcxx8qpZKkx2NgqX+xWCwCMZ1oF6fhcGnnjTZeFgrKonOl1kFJlhMvcbBtw9prpqw2GA632swQ5mT1Ks3fIrbQTOthdVKZNLpjsTDFI9Sr/Tq8OlvGTTRI7Dcx3S63jDJcuq1Jgw+9aN5UuNgudvocJvDYJLrzlCvAfBtEU0zBTbYSme7A6bpS73SqsCnosk0S0PYoB8dbT7M41pFvb5zwaemOTTHz7BDkTQ6WEYlmKhaOvXqC99eoDn6wxZL6GCjYapB1OtMJfjkep9myCwGWwygcx0qBFOFf0+9Vrrgk2sqTTAH9qhN5+oIk9XKpF594JtrCo1rCXu4jtCpPoTpXqBeqaXhm+s9GpXkgk0+pkPtKwzTRW6hXuPhh2syDXoBdnmEzuRpDgF1s6nT2eLww/UuDXGXg10q0JkmQMQo6jUS/rgm0YilsE8SnWh7AYiI+p46nYyHP64BGdSvI+zzOR0o5xYIue4EdRoCrwreiT/csJl6HYmEfV6lA42AmHYe6vN7LLy4dpPn5TBcEDXGTX2eg40eovP8GAk5r1Gnp5Bb2CqSSxPwh9uSqMf3EbBRAzpOek0IilhNfZKjkEtvnrc5AX+In0HtVifATvF0nIEQVfYo9emNXMqc5HkbCuGiDj9Tm6MDomGv/XSYb8Igq7WHuuwMRy4P8oJvw/GnVl8ycKdGxMNuy+gsp6+DtJepT3fk9jnPW43L3DAlnYE4+G6bKNhvMp3lYYgLX0ldfnYhlxJ7eU5rXKHEi0eYh62jG7jgCCPpKJ/BAqUOUZd7kVvdNHImrhbddvS3afTBvWZwNThGfzrJ0WtghTtzqMdGeNGdBxLgTWT9p+Yk8wpnNs/9d68mReEk99NJ7oM1nqMureDFa3fBt3LN7u7Y7aE+/Z8dPuLR20vDgVrTQd6CRVxfUo9vkbe/VUYu75WHY9Wjc3wdAasUT6YeTZGHsH+7uXVMY1zhJu6vhdyun9IL9qtAx0gqDus0zqQOXyIPY3nBtv4J+Ms0MqUprlJmag45AbaLpVOcqQMr9aQet8GvnvxT+gd1cVHxdJLpHXCFe1J43kTYzkOH6ARrDacOu+LgT8J0/mlbVVzUj+e5H8Nfwl7y8A/DYLccOsPLsNqH1OFd+NdmHy/4ojD+9A3/MByXlD3OPySWht0y6QiLXLBa1NfUoTX8K/jM7yTHhuGSZF40ORx/ap7D89YkwHbpdIJfCsF6Cduo3f4iyEPBfy1rh8v8xIuSyuGSp3jOkljY7wwd4EQV2KHiEWo3Exrdmc4LNpXCZaaRMyPgAKdpv5yWsEeDNGrXERrV38JzFhXC5aLXvu6CE6TQfgNhl44eana0CrSq/erSnrhKQTjDcdruA9jnaWq3pyxCyO+024Zo2OgdaretOELHYdrsYGnYKXwJtfsxHiHjAO2V0RD2ivuJ2n1bAKEimfbqBbuVSaZ2SyIRIvbQVi/DfnVOU7svEhAadtNO4+AEt52hdrtvQkj4jTZ6B85wZxq1S3sQoeBX2meGCw7RMp06TIpC8NtO28wOh2PclUkd1pdF0PuVdlkUAQdpm0UdTg6ORpDbQZt8FQ1H6ZBNPfZ0dyGo/UZ7fFMADvOPHOqy8TYEs99oi3VxcJzubuqzsCaC107aYVMROFBPN3Va/VBBBKldtMHPxeFIj3ioV+rUxghKu2m9HaXgUI/TgG2DaiD4JNFySeXgWH1pyOE5/7zBhaCyh1bbXwkONoBGHZ3Xt2kZF4LFXlrsSHU42mCaIX3bkgn929WuVLZE4ZgwONleWmtfTTjcY26aLOdsypF9O3/5acN3y79a8e3q9T9s/nn7zj37Dx87mZqe/QbstY+W2lIajtcxgxaaCHsl00rL4xEE7jhF67wNe+2nhWZGIijcdJiWmQR7HaB1RrkQJCrvpFUmw14HaZWcPgge1/xEi0yBvQ7RImfbIZjEf01rvA97HaI1jjZAcImeT0tMh70O0xI7qyDYhE2mFT6AvY7QChtKIAiNoAVmwl6/0wKfxyIoPeGmuFmw11HKmxyOINUlk9Jmw17HKG4YgleLVAqbC3sdp7CsBxHMbtpLWfNgr+OUldwEwa3EdxS1APY6QVGLiyHYRb5LSQthrxQKyv6XCyGgTxblfAZ7naScvQ0RGm7/nWIWw16nKGZRAkJFhc2UshT2Ok0hWQMQQmI/oZAvYa9Uyth9C0KK6+ksivgv7JVKEfOLINTc/BslLIe9zlBAZl+EoEIzKeBr2OsszbezHkLTA6k03QrYK42mmxuPUFXlB5rtK9grnSbL6IMQFjXWQ3Mtgb0yaK5fbkJoa3OIploIe2XSTOnDohDqEqbTTPNgr0yaaFkV5Aet99I8s2GvLJrmSA/kE3FveWiWj2CvbJrE814C8o+mv9Ik02GvHJrj51uRr8SMyaEppsBebpohbWgk8pubN9MMk2AvD03wVWXkQ+F9jtG4CbAXjTvcDflU0bdyaNR42ItGeSYXQf5140oa9CrsRYMSmyB/67SHhoyCrVw05OyQSOR3BV5MowEvwVZhNCD9jWugAOWn51C352GrcOqW+U4ZKH+oPttDnYbAVhHUKXtqBSh/qfMZ9RkEW0VSF/fMKlCu1HA59egPW0VSB8+c66HkdudaavckbBVF7T6tDcW7u1dTq8dhq2hqtbQeFN+aLPJQk0dhryxqsrwRFP9qTs+iBg/CXvupwXe3Q8lb2XGpDFgP2OtHBuybllACU2ToEQaoPey1kIE5ObEmlMBFd13uYSCqw15PMhCbeheEolHFEcnMU2YE7FWZeUqf0QCKHmF3zcuif2tgt0T6t2NgUSi6lXh6K/1pC7t1oB/ZC1q6oBjT6P1U+rIJ9ltDXw4MLwPFBHGPrKNXh6vBflWP0BvPso4RUMxSc9xR5nL8RjhBnRTmcnxcVSimiur0hZtXmHktnKHaCl4hZ0nnaCjmu7bnhwd40YHJDeEc3Vfm8KKU+Y+XgiKm4m1dBw5+5N6bXHCWYl2fGf/BhCG9GoRDURRFURRFURTFwf4fR4JTtCVMPyYAAAAASUVORK5CYII=;" vertex="1" parent="1">
                    <mxGeometry x="449" y="1768" width="42" height="42" as="geometry"/>
                </mxCell>
            </root>
        </mxGraphModel>
    </diagram>
</mxfile>